#N canvas 215 23 888 663 10;
#X obj 10 11 c.canvasinfos;
#X obj 21 12 c.loadmess;
#X obj 196 599 hoa.help.pub;
#X obj 1 1 hoa.tuto.header;
#X text 9 160 Order of decomposition (N);
#X text 9 290 Number of harmonics;
#X obj 14 184 c.number @size 53 17 @fontname Helvetica @fontweight
normal @fontslant roman @fontsize 11 @receive norder @send (null) @presetname
(null) @min 1 @max (null) @minmax 1 (null) @decimal 0 @bgcolor 0.75
0.75 0.75 1 @bdcolor 0.5 0.5 0.5 1 @textcolor 0 0 0 1;
#X obj 14 264 c.number @size 53 17 @fontname Helvetica @fontweight
normal @fontslant roman @fontsize 11 @receive (null) @send (null) @presetname
(null) @min (null) @max (null) @minmax (null) (null) @decimal 0 @bgcolor
0.75 0.75 0.75 1 @bdcolor 0.5 0.5 0.5 1 @textcolor 0 0 0 1;
#X obj 14 211 * 2;
#X obj 14 237 + 1;
#X obj 194 184 c.number @size 53 17 @fontname Helvetica @fontweight
normal @fontslant roman @fontsize 11 @receive nharmo @send (null) @presetname
(null) @min 3 @max (null) @minmax 3 (null) @decimal 0 @bgcolor 0.75
0.75 0.75 1 @bdcolor 0.5 0.5 0.5 1 @textcolor 0 0 0 1;
#X obj 194 264 c.number @size 53 17 @fontname Helvetica @fontweight
normal @fontslant roman @fontsize 11 @receive (null) @send (null) @presetname
(null) @min (null) @max (null) @minmax (null) (null) @decimal 0 @bgcolor
0.75 0.75 0.75 1 @bdcolor 0.5 0.5 0.5 1 @textcolor 0 0 0 1;
#X text 189 160 Number of harmonics;
#X text 189 290 Order of decomposition (N);
#X obj 194 211 - 1;
#X obj 194 237 / 2;
#X text 209 412 Order of decomposition (N);
#X obj 214 436 c.number @size 53 17 @fontname Helvetica @fontweight
normal @fontslant roman @fontsize 11 @receive norder @send (null) @presetname
(null) @min 1 @max (null) @minmax 1 (null) @decimal 0 @bgcolor 0.75
0.75 0.75 1 @bdcolor 0.5 0.5 0.5 1 @textcolor 0 0 0 1;
#X obj 374 23 s norder;
#X obj 457 22 s nharmo;
#X msg 214 516 0 -1 1 -2 2 -3 3 -4 4 -5 5 -6 6 -7 7;
#N canvas 0 22 450 300 hoaNumbering 0;
#X obj 95 63 until;
#X obj 95 34 t f b, f 7;
#X obj 144 93 + 1;
#X obj 95 93 f 1, f 7;
#X obj 174 209 c.prepend set;
#X obj 95 209 c.prepend 0;
#X obj 134 63 f 1;
#X obj 174 63 f 0;
#X obj 95 144 * -1;
#X obj 95 165 pack 0 0;
#X obj 95 9 inlet;
#X obj 95 261 outlet;
#X obj 95 120 t f f, f 8;
#X connect 0 0 3 0;
#X connect 1 0 0 0;
#X connect 1 1 6 0;
#X connect 1 1 7 0;
#X connect 2 0 3 1;
#X connect 3 0 2 0;
#X connect 3 0 12 0;
#X connect 4 0 5 0;
#X connect 4 0 11 0;
#X connect 5 0 4 0;
#X connect 6 0 3 1;
#X connect 7 0 4 0;
#X connect 8 0 9 0;
#X connect 9 0 5 0;
#X connect 10 0 1 0;
#X connect 12 0 8 0;
#X connect 12 1 9 1;
#X restore 214 471 pd hoaNumbering;
#X obj 374 2 c.loadmess 7;
#X obj 457 1 c.loadmess 15;
#X text 9 412 Order of decomposition (N);
#X obj 14 436 c.number @size 53 17 @fontname Helvetica @fontweight
normal @fontslant roman @fontsize 11 @receive norder @send (null) @presetname
(null) @min 1 @max (null) @minmax 1 (null) @decimal 0 @bgcolor 0.75
0.75 0.75 1 @bdcolor 0.5 0.5 0.5 1 @textcolor 0 0 0 1;
#X msg 14 516 0 1 1 2 2 3 3 4 4 5 5 6 6 7 7;
#N canvas 0 22 450 300 hoaNumbering 0;
#X obj 95 63 until;
#X obj 95 34 t f b, f 7;
#X obj 144 93 + 1;
#X obj 95 93 f 1, f 7;
#X obj 174 209 c.prepend set;
#X obj 95 209 c.prepend 0;
#X obj 134 63 f 1;
#X obj 174 63 f 0;
#X obj 95 165 pack 0 0;
#X obj 95 9 inlet;
#X obj 95 261 outlet;
#X obj 95 120 t f f, f 8;
#X connect 0 0 3 0;
#X connect 1 0 0 0;
#X connect 1 1 6 0;
#X connect 1 1 7 0;
#X connect 2 0 3 1;
#X connect 3 0 2 0;
#X connect 3 0 11 0;
#X connect 4 0 5 0;
#X connect 4 0 10 0;
#X connect 5 0 4 0;
#X connect 6 0 3 1;
#X connect 7 0 4 0;
#X connect 8 0 5 0;
#X connect 9 0 1 0;
#X connect 11 0 8 0;
#X connect 11 1 8 1;
#X restore 14 471 pd hoaNumbering;
#X text 487 160 Order of decomposition (N);
#X obj 492 184 c.number @size 53 17 @fontname Helvetica @fontweight
normal @fontslant roman @fontsize 11 @receive norder @send (null) @presetname
(null) @min 1 @max (null) @minmax 1 (null) @decimal 0 @bgcolor 0.75
0.75 0.75 1 @bdcolor 0.5 0.5 0.5 1 @textcolor 0 0 0 1;
#X msg 492 264 0 1 2 3 4 5 6 7 8 9 10 11 12 13 14 15;
#N canvas 0 22 450 300 hoaNumbering 0;
#X obj 95 133 until;
#X obj 95 34 t f b, f 7;
#X obj 144 163 + 1;
#X obj 95 163 f 1, f 7;
#X obj 174 209 c.prepend set;
#X obj 95 209 c.prepend 0;
#X obj 134 133 f 1;
#X obj 174 133 f 0;
#X obj 95 9 inlet;
#X obj 95 261 outlet;
#X obj 95 65 * 2;
#X obj 95 97 + 1;
#X connect 0 0 3 0;
#X connect 1 0 10 0;
#X connect 1 1 6 0;
#X connect 1 1 7 0;
#X connect 2 0 3 1;
#X connect 3 0 2 0;
#X connect 3 0 5 0;
#X connect 4 0 5 0;
#X connect 4 0 9 0;
#X connect 5 0 4 0;
#X connect 6 0 3 1;
#X connect 7 0 4 0;
#X connect 8 0 1 0;
#X connect 10 0 11 0;
#X connect 11 0 0 0;
#X restore 492 219 pd hoaNumbering;
#X text 486 290 ACN of the harmonics;
#X text 489 412 Order of decomposition (N);
#X msg 494 516 W Y X V U Q P ? ? ? ? ? ? ? ? ?;
#N canvas 0 22 449 312 hoaNumbering 0;
#X obj 95 133 until;
#X obj 95 34 t f b, f 7;
#X obj 144 158 + 1;
#X obj 95 158 f 1, f 7;
#X obj 174 249 c.prepend set;
#X obj 95 249 c.prepend 0;
#X obj 134 133 f 1;
#X obj 95 9 inlet;
#X obj 95 281 outlet;
#X obj 95 65 * 2;
#X obj 95 97 + 1;
#X obj 174 133 symbol W;
#X obj 95 213 symbol Y;
#X obj 126 213 symbol X;
#X obj 158 213 symbol V;
#X obj 190 213 symbol U;
#X obj 218 213 symbol Q;
#X obj 246 213 symbol P;
#X obj 95 185 sel 1 2 3 4 5 6, f 30;
#X obj 306 191 bng 15 250 50 0 empty empty empty 17 7 0 10 -262144
-1 -1;
#X obj 306 213 symbol ?;
#X connect 0 0 3 0;
#X connect 1 0 9 0;
#X connect 1 1 6 0;
#X connect 1 1 11 0;
#X connect 2 0 3 1;
#X connect 3 0 2 0;
#X connect 3 0 18 0;
#X connect 4 0 5 0;
#X connect 4 0 8 0;
#X connect 5 0 4 0;
#X connect 6 0 3 1;
#X connect 7 0 1 0;
#X connect 9 0 10 0;
#X connect 10 0 0 0;
#X connect 11 0 4 0;
#X connect 12 0 5 0;
#X connect 13 0 5 0;
#X connect 14 0 5 0;
#X connect 15 0 5 0;
#X connect 16 0 5 0;
#X connect 17 0 5 0;
#X connect 18 0 12 0;
#X connect 18 1 13 0;
#X connect 18 2 14 0;
#X connect 18 3 15 0;
#X connect 18 4 16 0;
#X connect 18 5 17 0;
#X connect 18 6 19 0;
#X connect 19 0 20 0;
#X connect 20 0 5 0;
#X restore 494 471 pd hoaNumbering;
#X obj 494 436 c.number @size 53 17 @fontname Helvetica @fontweight
normal @fontslant roman @fontsize 11 @receive norder @send (null) @presetname
(null) @min 1 @max (null) @minmax 1 (null) @decimal 0 @bgcolor 0.75
0.75 0.75 1 @bdcolor 0.5 0.5 0.5 1 @textcolor 0 0 0 1;
#X text 3 47 A set of tools to understand the numbering of the harmonics
channels in 2d.;
#X text 209 542 Orders of the harmonics (m);
#X text 9 542 Degrees of the harmonics (l);
#X text 488 542 Letter codes of the harmonics;
#X text 10 103 The number of harmonics depends on the order of decomposition
(N) :;
#X text 479 101 The numbering of the harmonics channels is similar
to the ACN even if the use of the degrees and the orders is preferred
:;
#X text 13 353 An harmonic is defined by a degree (l) and an order
(m) thus it can be noted h(l \, m). In 2d \, the degree (l) is rarely
used because it is equal to the absolute value of the order (m) :;
#X text 481 353 The letter codes of the harmonics are not in the alphabetic
order :;
#X connect 0 0 3 0;
#X connect 1 0 0 0;
#X connect 6 0 8 0;
#X connect 8 0 9 0;
#X connect 9 0 7 0;
#X connect 10 0 14 0;
#X connect 14 0 15 0;
#X connect 15 0 11 0;
#X connect 17 0 21 0;
#X connect 21 0 20 0;
#X connect 22 0 18 0;
#X connect 23 0 19 0;
#X connect 25 0 27 0;
#X connect 27 0 26 0;
#X connect 29 0 31 0;
#X connect 31 0 30 0;
#X connect 35 0 34 0;
#X connect 36 0 35 0;
