#N canvas 163 23 799 740 10;
#X obj 22 7 c.canvasinfos;
#X obj 21 3 c.loadmess;
#X obj 4 2 hoa.tuto.header;
#X obj 417 2 hoa.help.pub;
#X obj 439 59 c.blackboard @size 320 320 @fontname "Helvetica" @fontweight
"normal" @fontslant "roman" @fontsize 11 @receive "(null)" @send "(null)"
@chalkmode 0 @bgcolor 0.75 0.75 0.75 1 @bdcolor 0.5 0.5 0.5 1;
#N canvas 0 50 635 265 subscript 0;
#X obj 142 243 outlet;
#X obj 154 46 c.loadmess;
#X msg 143 85 clear \, fill 0 \, width 3 \, color rgb 0 0 0 \, oval
7 7 315 315 \, width 1 \, line 161 161 52 52 \, line 161 161 52 271
\, line 161 161 271 52 \, line 161 161 271 271 \, color rgb 0 1 0 \,
fill 1 \, oval 157 157 166 166 \, line 161 161 161 120 \, line 161
120 156 130 \, line 161 120 166 130 \, color rgb 0 0 1 \, fill 0 \,
arc 20 20 303 303 90 40 \, line 161 15 161 25 \, line 70 54 74 43 \,
line 70 54 81 53 \, color rgb 0 0 0 \, text 140 61 FRONT \, text 144
242 BACK \, text 61 159 LEFT \, text 232 159 RIGHT;
#X connect 1 0 2 0;
#X connect 2 0 0 0;
#X restore 502 126 pd subscript;
#X obj 439 396 c.blackboard @size 320 320 @fontname "Helvetica" @fontweight
"normal" @fontslant "roman" @fontsize 11 @receive "(null)" @send "(null)"
@chalkmode 0 @bgcolor 0.75 0.75 0.75 1 @bdcolor 0.5 0.5 0.5 1;
#N canvas 729 414 635 265 subscript 0;
#X obj 142 243 outlet;
#X obj 154 46 c.loadmess;
#X msg 149 85 clear \, fill 0 \, width 3 \, color rgb 0 0 0 \, oval
7 7 315 315 \, width 1 \, line 7 161 315 161 \, color rgb 0 1 0 \,
fill 1 \, oval 157 157 166 166 \, line 161 161 120 161 \, line 120
161 130 156 \, line 120 161 130 166 \, color rgb 0 0 1 \, fill 0 \,
arc 20 20 303 303 140 40 \, line 15 161 25 161 \, line 54 70 43 74
\, line 54 70 53 81 \, color rgb 0 0 0 \, text 146 61 TOP \, text 136
242 BOTTOM;
#X connect 1 0 2 0;
#X connect 2 0 0 0;
#X restore 502 456 pd subscript;
#X text 3 409 Assuming that the listener is directed to 0° \, it is
customary to define :, f 65;
#X text 3 436 The "front" of the sound field at 0° or 0 rad azimuth
, f 65;
#X text 3 451 The "left" of the sound field at 90 ° or π/2 rad azimuth
, f 65;
#X text 3 465 The "back" of the sound field at 180° or π rad azimuth
, f 65;
#X text 3 479 The "right" of the sound field at 270° or 3/2π rad
azimuth, f 65;
#X text 3 493 The "horizon" of the sound field at 0° or 0 rad elevation
, f 65;
#X text 3 507 The "top" of the sound field at 90° or π/2 rad elevation
, f 65;
#X text 3 521 The "bottom" of the sound field at -90° or -π/2 rad
elevation, f 65;
#X text 3 261 The angles are usually defined in radians for a representation
of space in the circular or spherical harmonics domain (between 0 and
2π rad for the azimuth and between -π/2 and π/2 for the elevation).
For a representation of space in the planewaves domain (or for a set
of loudspeakers) the angles are usually defined in degrees (between
0° and 360° for the azimuth and between -90° and 90° for the elevation).
, f 65;
#X text 3 51 The ambisonic model is based on a polar or spherical representation
of space in adequacy with a listener placed at the center of a circle
or a sphere of loudspeakers., f 65;
#X text 3 581 In the representations \, the listener and its point
of view are represented by the green arrrows \, the 0° azimuth and
elevation and their rotation direction are represented by the blue
arrows., f 65;
#X text 3 131 The coordinate system used within the library is similar
to the geographics coordinates. We arbitrarily define the direction
of rotation as counterclockwise for the azimuth and from the bottom
to the top for the elevation. The 0° of the azimuth is 90° phase
shifted relative to a mathematical representation of a circle. The
0° of elevation matches with the equatorial plan, f 65;
#X connect 0 0 2 0;
#X connect 1 0 0 0;
#X connect 5 0 4 0;
#X connect 7 0 6 0;
