#N canvas 65 54 1301 714 10;
#X msg 1079 180 \; pd dsp 1;
#X msg 1157 181 \; pd dsp 0;
#X obj 783 91 hoa.pi 2;
#X obj 783 71 c.number @size 53 17 @fontname Helvetica @fontweight
normal @fontslant roman @fontsize 11 @receive (null) @send (null) @presetname
(null) @min (null) @max (null) @minmax (null) (null) @decimal 6 @bgcolor
0.75 0.75 0.75 1 @bdcolor 0.5 0.5 0.5 1 @textcolor 0 0 0 1;
#X obj 783 47 c.loadmess 0;
#X obj 21 8 c.canvasinfos;
#X obj 20 4 c.loadmess;
#X obj 3 3 hoa.tuto.header;
#X obj 456 3 hoa.help.pub;
#X text 14 76 - the ambisonic decoding (it's the 'normal' operation
when the sound system is good), f 79;
#X text 14 108 - the irregular decoding (it's a way to work when the
sound system is not realy a circle (or sphere)), f 79;
#X text 2 351 Let's see that step by step :;
#X text 14 472 - now there is the encoding operation;
#X text 14 636 - each result of these multiplication are summed to
create a decoder outlet, f 79;
#X text 5 661 For a complete example \, see :;
#X text 2 46 At the end of the ambisonic line you must 'decode' the
signal to come back in the 'habitual' domain. To do that \, there are
three ways :, f 81;
#X floatatom 247 388 5 0 0 0 - - -, f 5;
#X floatatom 247 430 5 0 0 0 - - -, f 5;
#X text 283 388 decomposition order;
#X text 2 237 In fact \, the decoding operation is equal to do as much
encoding operation as the number of outlets., f 81;
#X text 2 325 Each outlet of each encoding is a factor for an inlet
signal., f 81;
#X text 14 140 - the binaural decoding (method for a piece which has
to be listened with headphones / method to work with headphones because
the sound system is far away from a circle (or sphere)), f 79;
#X obj 517 141 hoa.3d.scope~ @size 273 273 @fontname Helvetica @fontweight
normal @fontslant roman @fontsize 11 @receive (null) @send (null) @order
1 @view 0 0 0 @gain 1 @interval 100 @bgcolor 0.76 0.76 0.76 1 @bdcolor
0.7 0.7 0.7 1 @phcolor 1 0 0 1 @nhcolor 0 0 1 1;
#X obj 649 91 hoa.pi 2;
#X obj 649 71 c.number @size 53 17 @fontname Helvetica @fontweight
normal @fontslant roman @fontsize 11 @receive (null) @send (null) @presetname
(null) @min (null) @max (null) @minmax (null) (null) @decimal 6 @bgcolor
0.75 0.75 0.75 1 @bdcolor 0.5 0.5 0.5 1 @textcolor 0 0 0 1;
#X obj 649 47 c.loadmess 0;
#X obj 516 113 hoa.3d.encoder~ 1 ---------------------------;
#X obj 841 452 hoa.3d.meter~ @size 273 136.5 @fontname Helvetica @fontweight
normal @fontslant roman @fontsize 11 @receive hoa3dmeter @send (null)
@channels 4 @angles 180 90 0 -19.5 120 -19.5 240 -19.5 @offset 0 0
0 @rotation anti-clockwise @view top-bottom @vectors none @interval
50 @bgcolor 0.76 0.76 0.76 1 @bdcolor 0.7 0.7 0.7 1 @coldcolor 0 0.6
0 0.8 @tepidcolor 0.6 0.73 0 0.8 @warmcolor 0.85 0.85 0 0.8 @hotcolor
1 0.6 0 0.8 @overcolor 1 0 0 0.8 @energycolor 0 0 1 0.8 @velocitycolor
1 0 0 0.8;
#X obj 516 88 sig~ 1;
#X obj 1001 139 s hoa3dmeter;
#X obj 897 140 s hoa3dencoder;
#X obj 798 385 r hoa3dencoder;
#X obj 921 45 loadbang;
#X msg 957 88 angles 0 -90 0 19.5 120 19.5 240 19.5;
#X obj 699 619 c.number~ @size 53 17 @fontname Helvetica @fontweight
normal @fontslant roman @fontsize 11 @receive (null) @send (null) @interval
50 @decimal 6 @bgcolor 0.75 0.75 0.75 1 @bdcolor 0.5 0.5 0.5 1 @textcolor
0 0 0 1;
#X obj 698 595 -~;
#X obj 769 619 c.number~ @size 53 17 @fontname Helvetica @fontweight
normal @fontslant roman @fontsize 11 @receive (null) @send (null) @interval
50 @decimal 6 @bgcolor 0.75 0.75 0.75 1 @bdcolor 0.5 0.5 0.5 1 @textcolor
0 0 0 1;
#X obj 768 595 -~;
#X obj 829 619 c.number~ @size 53 17 @fontname Helvetica @fontweight
normal @fontslant roman @fontsize 11 @receive (null) @send (null) @interval
50 @decimal 6 @bgcolor 0.75 0.75 0.75 1 @bdcolor 0.5 0.5 0.5 1 @textcolor
0 0 0 1;
#X obj 828 595 -~;
#X obj 889 619 c.number~ @size 53 17 @fontname Helvetica @fontweight
normal @fontslant roman @fontsize 11 @receive (null) @send (null) @interval
50 @decimal 6 @bgcolor 0.75 0.75 0.75 1 @bdcolor 0.5 0.5 0.5 1 @textcolor
0 0 0 1;
#X obj 888 595 -~;
#X obj 499 639 c.number~ @size 53 17 @fontname Helvetica @fontweight
normal @fontslant roman @fontsize 11 @receive (null) @send (null) @interval
50 @decimal 6 @bgcolor 0.75 0.75 0.75 1 @bdcolor 0.5 0.5 0.5 1 @textcolor
0 0 0 1;
#X obj 569 639 c.number~ @size 53 17 @fontname Helvetica @fontweight
normal @fontslant roman @fontsize 11 @receive (null) @send (null) @interval
50 @decimal 6 @bgcolor 0.75 0.75 0.75 1 @bdcolor 0.5 0.5 0.5 1 @textcolor
0 0 0 1;
#X obj 629 639 c.number~ @size 53 17 @fontname Helvetica @fontweight
normal @fontslant roman @fontsize 11 @receive (null) @send (null) @interval
50 @decimal 6 @bgcolor 0.75 0.75 0.75 1 @bdcolor 0.5 0.5 0.5 1 @textcolor
0 0 0 1;
#X obj 689 639 c.number~ @size 53 17 @fontname Helvetica @fontweight
normal @fontslant roman @fontsize 11 @receive (null) @send (null) @interval
50 @decimal 6 @bgcolor 0.75 0.75 0.75 1 @bdcolor 0.5 0.5 0.5 1 @textcolor
0 0 0 1;
#X obj 899 639 c.number~ @size 53 17 @fontname Helvetica @fontweight
normal @fontslant roman @fontsize 11 @receive (null) @send (null) @interval
50 @decimal 6 @bgcolor 0.75 0.75 0.75 1 @bdcolor 0.5 0.5 0.5 1 @textcolor
0 0 0 1;
#X obj 969 639 c.number~ @size 53 17 @fontname Helvetica @fontweight
normal @fontslant roman @fontsize 11 @receive (null) @send (null) @interval
50 @decimal 6 @bgcolor 0.75 0.75 0.75 1 @bdcolor 0.5 0.5 0.5 1 @textcolor
0 0 0 1;
#X obj 1029 639 c.number~ @size 53 17 @fontname Helvetica @fontweight
normal @fontslant roman @fontsize 11 @receive (null) @send (null) @interval
50 @decimal 6 @bgcolor 0.75 0.75 0.75 1 @bdcolor 0.5 0.5 0.5 1 @textcolor
0 0 0 1;
#X obj 1089 639 c.number~ @size 53 17 @fontname Helvetica @fontweight
normal @fontslant roman @fontsize 11 @receive (null) @send (null) @interval
50 @decimal 6 @bgcolor 0.75 0.75 0.75 1 @bdcolor 0.5 0.5 0.5 1 @textcolor
0 0 0 1;
#X msg 921 66 angles 0 90 0 -19.5 120 -19.5 240 -19.5;
#X obj 517 427 hoa.3d.process~ 1 hoa.fx.3d.decoder~ --------;
#X obj 196 207 hoa.3d.decoder~ 1 @channels 4;
#X obj 840 428 hoa.3d.decoder~ 1 ambisonic @channels 4------;
#N canvas 142 297 410 281 norm 0;
#X obj 100 12 inlet;
#X obj 100 54 t b f;
#X obj 127 101 + 1;
#X obj 100 174 /;
#X obj 127 124 t f f;
#X obj 127 150 *;
#X msg 100 77 12.5;
#X obj 100 196 outlet;
#X obj 100 33 max 0;
#X connect 0 0 8 0;
#X connect 1 0 6 0;
#X connect 1 1 2 0;
#X connect 2 0 4 0;
#X connect 3 0 7 0;
#X connect 4 0 5 0;
#X connect 4 1 5 1;
#X connect 5 0 3 1;
#X connect 6 0 3 0;
#X connect 8 0 1 0;
#X restore 247 407 pd norm;
#X text 2 280 The azimuth angle and the elevation one depends on the
arrangement of the loudspeakers (in radians)., f 81;
#X text 14 455 - the angles are transposed in radians. angle = angle
/ 360 * 2 * PI, f 79;
#X text 2 265 The signal for encoding depends of the decomposition
order(m)., f 81;
#X text 2 309 Each outlet is multiplied by a factor depending on the
order of the index(l)., f 81;
#N canvas 115 161 450 300 factor 0;
#X obj 236 26 inlet;
#X obj 236 173 /, f 5;
#X obj 236 93 * 2;
#X obj 236 115 + 1;
#X obj 263 139 hoa.pi 4;
#X obj 236 68 t f b;
#X obj 236 195 outlet;
#X obj 236 47 max 0;
#X connect 0 0 7 0;
#X connect 1 0 6 0;
#X connect 2 0 3 0;
#X connect 3 0 1 0;
#X connect 4 0 1 1;
#X connect 5 0 2 0;
#X connect 5 1 4 0;
#X connect 7 0 5 0;
#X restore 230 534 pd factor;
#X floatatom 230 515 5 0 0 0 - - -, f 5;
#X floatatom 230 556 5 0 0 0 - - -, f 5;
#X text 14 490 - each outlet is multiplied by a factor. factor = (l*2+1)
/ (4 * PI), f 79;
#X text 13 606 - each decoder inlet is multiplied by the corresponding
outlet of the encoder (inlet1 * outlet1 \, inlet2 * outlet2 \, ...).
, f 79;
#X obj 518 452 hoa.3d.meter~ @size 273 136.5 @fontname Helvetica @fontweight
normal @fontslant roman @fontsize 11 @receive hoa3dmeter @send (null)
@channels 4 @angles 180 90 0 -19.5 120 -19.5 240 -19.5 @offset 0 0
0 @rotation anti-clockwise @view top-bottom @vectors none @interval
50 @bgcolor 0.76 0.76 0.76 1 @bdcolor 0.7 0.7 0.7 1 @coldcolor 0 0.6
0 0.8 @tepidcolor 0.6 0.73 0 0.8 @warmcolor 0.85 0.85 0 0.8 @hotcolor
1 0.6 0 0.8 @overcolor 1 0 0 0.8 @energycolor 0 0 1 0.8 @velocitycolor
1 0 0 0.8;
#N canvas 129 97 1215 686 hoa.3d.decoder~ 1;
#X obj 95 188 sig~ 1;
#X obj 161 137 hoa.pi~ 2;
#X obj 145 159 *~;
#X obj 145 115 phasor~ 0.1;
#X msg 873 398 \; pd dsp 1;
#X obj 917 10 c.loadmess;
#X msg 421 57 1;
#X obj 95 211 hoa.3d.encoder~ 1;
#X obj 17 379 hoa.3d.scope~ @size 225 225 @fontname Helvetica @fontweight
normal @fontslant roman @fontsize 11 @receive (null) @send (null) @order
1 @view 0 0 0 @gain 1 @interval 100 @bgcolor 0.76 0.76 0.76 1 @bdcolor
0.7 0.7 0.7 1 @phcolor 1 0 0 1 @nhcolor 0 0 1 1;
#X obj 322 401 hoa.3d.decoder~ 1 ------;
#X obj 257 430 hoa.3d.meter~ @size 273 136.5 @fontname Helvetica @fontweight
normal @fontslant roman @fontsize 11 @receive hoa3dmeter @send (null)
@channels 4 @angles 180 90 0 -19.5 120 -19.5 240 -19.5 @offset 0 0
0 @rotation anti-clockwise @view top-bottom @vectors none @interval
50 @bgcolor 0.76 0.76 0.76 1 @bdcolor 0.7 0.7 0.7 1 @coldcolor 0 0.6
0 0.8 @tepidcolor 0.6 0.73 0 0.8 @warmcolor 0.85 0.85 0 0.8 @hotcolor
1 0.6 0 0.8 @overcolor 1 0 0 0.8 @energycolor 0 0 1 0.8 @velocitycolor
1 0 0 0.8;
#X msg 888 443 \; pd dsp 0;
#X obj 543 427 hoa.3d.meter~ @size 273 136.5 @fontname Helvetica @fontweight
normal @fontslant roman @fontsize 11 @receive hoa3dmeter @send (null)
@channels 4 @angles 180 90 0 -19.5 120 -19.5 240 -19.5 @offset 0 0
0 @rotation anti-clockwise @view top-bottom @vectors none @interval
50 @bgcolor 0.76 0.76 0.76 1 @bdcolor 0.7 0.7 0.7 1 @coldcolor 0 0.6
0 0.8 @tepidcolor 0.6 0.73 0 0.8 @warmcolor 0.85 0.85 0 0.8 @hotcolor
1 0.6 0 0.8 @overcolor 1 0 0 0.8 @energycolor 0 0 1 0.8 @velocitycolor
1 0 0 0.8;
#N canvas 136 307 410 281 norm 0;
#X obj 100 12 inlet;
#X obj 100 54 t b f;
#X obj 127 101 + 1;
#X obj 100 174 /;
#X obj 127 124 t f f;
#X obj 127 150 *;
#X msg 100 77 12.5;
#X obj 100 33 max 0;
#X obj 100 219 outlet~;
#X obj 100 196 sig~;
#X connect 0 0 7 0;
#X connect 1 0 6 0;
#X connect 1 1 2 0;
#X connect 2 0 4 0;
#X connect 3 0 9 0;
#X connect 4 0 5 0;
#X connect 4 1 5 1;
#X connect 5 0 3 1;
#X connect 6 0 3 0;
#X connect 7 0 1 0;
#X connect 9 0 8 0;
#X restore 421 78 pd norm;
#X text 303 58 decomposition order;
#X obj 422 113 hoa.3d.encoder~ 1;
#X obj 552 113 hoa.3d.encoder~ 1;
#X obj 685 113 hoa.3d.encoder~ 1;
#X obj 818 113 hoa.3d.encoder~ 1;
#X msg 411 22 180 90 0 -19.5 120 -19.5 240 -19.5;
#X text 421 3 angles of the hoa.3d.meter~;
#X msg 601 50 0;
#X msg 651 50 19.5;
#X msg 734 49 120;
#X msg 784 49 -19.5;
#X msg 867 49 240;
#X msg 917 49 -19.5;
#N canvas 70 151 450 300 factor 0;
#X obj 216 133 inlet~;
#X obj 215 206 outlet~;
#X obj 236 26 inlet;
#X obj 236 160 /, f 5;
#X obj 236 80 * 2;
#X obj 236 102 + 1;
#X obj 263 126 hoa.pi 4;
#X obj 236 55 t f b;
#X obj 215 182 *~ 1;
#X connect 0 0 8 0;
#X connect 2 0 7 0;
#X connect 3 0 8 1;
#X connect 4 0 5 0;
#X connect 5 0 3 0;
#X connect 6 0 3 1;
#X connect 7 0 4 0;
#X connect 7 1 6 0;
#X connect 8 0 1 0;
#X restore 521 216 pd factor;
#X text 994 136 order of the harmonics;
#N canvas 70 151 450 300 factor 0;
#X obj 216 133 inlet~;
#X obj 215 206 outlet~;
#X obj 236 26 inlet;
#X obj 236 160 /, f 5;
#X obj 236 80 * 2;
#X obj 236 102 + 1;
#X obj 263 126 hoa.pi 4;
#X obj 236 55 t f b;
#X obj 215 182 *~ 1;
#X connect 0 0 8 0;
#X connect 2 0 7 0;
#X connect 3 0 8 1;
#X connect 4 0 5 0;
#X connect 5 0 3 0;
#X connect 6 0 3 1;
#X connect 7 0 4 0;
#X connect 7 1 6 0;
#X connect 8 0 1 0;
#X restore 421 191 pd factor;
#N canvas 70 151 450 300 factor 0;
#X obj 216 133 inlet~;
#X obj 215 206 outlet~;
#X obj 236 26 inlet;
#X obj 236 160 /, f 5;
#X obj 236 80 * 2;
#X obj 236 102 + 1;
#X obj 263 126 hoa.pi 4;
#X obj 236 55 t f b;
#X obj 215 182 *~ 1;
#X connect 0 0 8 0;
#X connect 2 0 7 0;
#X connect 3 0 8 1;
#X connect 4 0 5 0;
#X connect 5 0 3 0;
#X connect 6 0 3 1;
#X connect 7 0 4 0;
#X connect 7 1 6 0;
#X connect 8 0 1 0;
#X restore 455 216 pd factor;
#N canvas 67 156 450 300 factor 0;
#X obj 216 133 inlet~;
#X obj 215 206 outlet~;
#X obj 236 26 inlet;
#X obj 236 160 /, f 5;
#X obj 236 80 * 2;
#X obj 236 102 + 1;
#X obj 263 126 hoa.pi 4;
#X obj 236 55 t f b;
#X obj 215 182 *~ 1;
#X connect 0 0 8 0;
#X connect 2 0 7 0;
#X connect 3 0 8 1;
#X connect 4 0 5 0;
#X connect 5 0 3 0;
#X connect 6 0 3 1;
#X connect 7 0 4 0;
#X connect 7 1 6 0;
#X connect 8 0 1 0;
#X restore 489 191 pd factor;
#N canvas 70 151 450 300 factor 0;
#X obj 216 133 inlet~;
#X obj 215 206 outlet~;
#X obj 236 26 inlet;
#X obj 236 160 /, f 5;
#X obj 236 80 * 2;
#X obj 236 102 + 1;
#X obj 263 126 hoa.pi 4;
#X obj 236 55 t f b;
#X obj 215 182 *~ 1;
#X connect 0 0 8 0;
#X connect 2 0 7 0;
#X connect 3 0 8 1;
#X connect 4 0 5 0;
#X connect 5 0 3 0;
#X connect 6 0 3 1;
#X connect 7 0 4 0;
#X connect 7 1 6 0;
#X connect 8 0 1 0;
#X restore 651 216 pd factor;
#N canvas 70 151 450 300 factor 0;
#X obj 216 133 inlet~;
#X obj 215 206 outlet~;
#X obj 236 26 inlet;
#X obj 236 160 /, f 5;
#X obj 236 80 * 2;
#X obj 236 102 + 1;
#X obj 263 126 hoa.pi 4;
#X obj 236 55 t f b;
#X obj 215 182 *~ 1;
#X connect 0 0 8 0;
#X connect 2 0 7 0;
#X connect 3 0 8 1;
#X connect 4 0 5 0;
#X connect 5 0 3 0;
#X connect 6 0 3 1;
#X connect 7 0 4 0;
#X connect 7 1 6 0;
#X connect 8 0 1 0;
#X restore 553 191 pd factor;
#N canvas 70 151 450 300 factor 0;
#X obj 216 133 inlet~;
#X obj 215 206 outlet~;
#X obj 236 26 inlet;
#X obj 236 160 /, f 5;
#X obj 236 80 * 2;
#X obj 236 102 + 1;
#X obj 263 126 hoa.pi 4;
#X obj 236 55 t f b;
#X obj 215 182 *~ 1;
#X connect 0 0 8 0;
#X connect 2 0 7 0;
#X connect 3 0 8 1;
#X connect 4 0 5 0;
#X connect 5 0 3 0;
#X connect 6 0 3 1;
#X connect 7 0 4 0;
#X connect 7 1 6 0;
#X connect 8 0 1 0;
#X restore 586 216 pd factor;
#N canvas 70 151 450 300 factor 0;
#X obj 216 133 inlet~;
#X obj 215 206 outlet~;
#X obj 236 26 inlet;
#X obj 236 160 /, f 5;
#X obj 236 80 * 2;
#X obj 236 102 + 1;
#X obj 263 126 hoa.pi 4;
#X obj 236 55 t f b;
#X obj 215 182 *~ 1;
#X connect 0 0 8 0;
#X connect 2 0 7 0;
#X connect 3 0 8 1;
#X connect 4 0 5 0;
#X connect 5 0 3 0;
#X connect 6 0 3 1;
#X connect 7 0 4 0;
#X connect 7 1 6 0;
#X connect 8 0 1 0;
#X restore 619 191 pd factor;
#N canvas 70 151 450 300 factor 0;
#X obj 216 133 inlet~;
#X obj 215 206 outlet~;
#X obj 236 26 inlet;
#X obj 236 160 /, f 5;
#X obj 236 80 * 2;
#X obj 236 102 + 1;
#X obj 263 126 hoa.pi 4;
#X obj 236 55 t f b;
#X obj 215 182 *~ 1;
#X connect 0 0 8 0;
#X connect 2 0 7 0;
#X connect 3 0 8 1;
#X connect 4 0 5 0;
#X connect 5 0 3 0;
#X connect 6 0 3 1;
#X connect 7 0 4 0;
#X connect 7 1 6 0;
#X connect 8 0 1 0;
#X restore 784 216 pd factor;
#N canvas 70 151 450 300 factor 0;
#X obj 216 133 inlet~;
#X obj 215 206 outlet~;
#X obj 236 26 inlet;
#X obj 236 160 /, f 5;
#X obj 236 80 * 2;
#X obj 236 102 + 1;
#X obj 263 126 hoa.pi 4;
#X obj 236 55 t f b;
#X obj 215 182 *~ 1;
#X connect 0 0 8 0;
#X connect 2 0 7 0;
#X connect 3 0 8 1;
#X connect 4 0 5 0;
#X connect 5 0 3 0;
#X connect 6 0 3 1;
#X connect 7 0 4 0;
#X connect 7 1 6 0;
#X connect 8 0 1 0;
#X restore 686 191 pd factor;
#N canvas 70 151 450 300 factor 0;
#X obj 216 133 inlet~;
#X obj 215 206 outlet~;
#X obj 236 26 inlet;
#X obj 236 160 /, f 5;
#X obj 236 80 * 2;
#X obj 236 102 + 1;
#X obj 263 126 hoa.pi 4;
#X obj 236 55 t f b;
#X obj 215 182 *~ 1;
#X connect 0 0 8 0;
#X connect 2 0 7 0;
#X connect 3 0 8 1;
#X connect 4 0 5 0;
#X connect 5 0 3 0;
#X connect 6 0 3 1;
#X connect 7 0 4 0;
#X connect 7 1 6 0;
#X connect 8 0 1 0;
#X restore 718 216 pd factor;
#N canvas 70 151 450 300 factor 0;
#X obj 216 133 inlet~;
#X obj 215 206 outlet~;
#X obj 236 26 inlet;
#X obj 236 160 /, f 5;
#X obj 236 80 * 2;
#X obj 236 102 + 1;
#X obj 263 126 hoa.pi 4;
#X obj 236 55 t f b;
#X obj 215 182 *~ 1;
#X connect 0 0 8 0;
#X connect 2 0 7 0;
#X connect 3 0 8 1;
#X connect 4 0 5 0;
#X connect 5 0 3 0;
#X connect 6 0 3 1;
#X connect 7 0 4 0;
#X connect 7 1 6 0;
#X connect 8 0 1 0;
#X restore 751 191 pd factor;
#N canvas 70 151 450 300 factor 0;
#X obj 216 133 inlet~;
#X obj 215 206 outlet~;
#X obj 236 26 inlet;
#X obj 236 160 /, f 5;
#X obj 236 80 * 2;
#X obj 236 102 + 1;
#X obj 263 126 hoa.pi 4;
#X obj 236 55 t f b;
#X obj 215 182 *~ 1;
#X connect 0 0 8 0;
#X connect 2 0 7 0;
#X connect 3 0 8 1;
#X connect 4 0 5 0;
#X connect 5 0 3 0;
#X connect 6 0 3 1;
#X connect 7 0 4 0;
#X connect 7 1 6 0;
#X connect 8 0 1 0;
#X restore 917 216 pd factor;
#N canvas 70 151 450 300 factor 0;
#X obj 216 133 inlet~;
#X obj 215 206 outlet~;
#X obj 236 26 inlet;
#X obj 236 160 /, f 5;
#X obj 236 80 * 2;
#X obj 236 102 + 1;
#X obj 263 126 hoa.pi 4;
#X obj 236 55 t f b;
#X obj 215 182 *~ 1;
#X connect 0 0 8 0;
#X connect 2 0 7 0;
#X connect 3 0 8 1;
#X connect 4 0 5 0;
#X connect 5 0 3 0;
#X connect 6 0 3 1;
#X connect 7 0 4 0;
#X connect 7 1 6 0;
#X connect 8 0 1 0;
#X restore 819 191 pd factor;
#N canvas 70 151 450 300 factor 0;
#X obj 216 133 inlet~;
#X obj 215 206 outlet~;
#X obj 236 26 inlet;
#X obj 236 160 /, f 5;
#X obj 236 80 * 2;
#X obj 236 102 + 1;
#X obj 263 126 hoa.pi 4;
#X obj 236 55 t f b;
#X obj 215 182 *~ 1;
#X connect 0 0 8 0;
#X connect 2 0 7 0;
#X connect 3 0 8 1;
#X connect 4 0 5 0;
#X connect 5 0 3 0;
#X connect 6 0 3 1;
#X connect 7 0 4 0;
#X connect 7 1 6 0;
#X connect 8 0 1 0;
#X restore 851 216 pd factor;
#N canvas 70 151 450 300 factor 0;
#X obj 216 133 inlet~;
#X obj 215 206 outlet~;
#X obj 236 26 inlet;
#X obj 236 160 /, f 5;
#X obj 236 80 * 2;
#X obj 236 102 + 1;
#X obj 263 126 hoa.pi 4;
#X obj 236 55 t f b;
#X obj 215 182 *~ 1;
#X connect 0 0 8 0;
#X connect 2 0 7 0;
#X connect 3 0 8 1;
#X connect 4 0 5 0;
#X connect 5 0 3 0;
#X connect 6 0 3 1;
#X connect 7 0 4 0;
#X connect 7 1 6 0;
#X connect 8 0 1 0;
#X restore 885 191 pd factor;
#X obj 406 263 *~;
#X obj 475 263 *~;
#X obj 440 263 *~;
#X obj 507 263 *~;
#X obj 537 263 *~;
#X obj 605 263 *~;
#X obj 571 263 *~;
#X obj 637 263 *~;
#X obj 670 263 *~;
#X obj 737 263 *~;
#X obj 704 263 *~;
#X obj 769 263 *~;
#X obj 803 263 *~;
#X obj 871 263 *~;
#X obj 837 263 *~;
#X obj 903 263 *~;
#X msg 471 50 180;
#X msg 521 50 90;
#N canvas 65 82 450 300 toRad 0;
#X obj 230 93 inlet;
#X obj 230 116 / 360;
#X obj 230 185 *;
#X obj 257 161 hoa.pi 2;
#X obj 230 208 outlet;
#X obj 230 139 t f b;
#X connect 0 0 1 0;
#X connect 1 0 5 0;
#X connect 2 0 4 0;
#X connect 3 0 2 1;
#X connect 5 0 2 0;
#X connect 5 1 3 0;
#X restore 917 91 pd toRad;
#N canvas 65 87 450 300 toRad 0;
#X obj 230 93 inlet;
#X obj 230 116 / 360;
#X obj 230 185 *;
#X obj 257 161 hoa.pi 2;
#X obj 230 208 outlet;
#X obj 230 139 t f b;
#X connect 0 0 1 0;
#X connect 1 0 5 0;
#X connect 2 0 4 0;
#X connect 3 0 2 1;
#X connect 5 0 2 0;
#X connect 5 1 3 0;
#X restore 867 71 pd toRad;
#N canvas 65 82 450 300 toRad 0;
#X obj 230 93 inlet;
#X obj 230 116 / 360;
#X obj 230 185 *;
#X obj 257 161 hoa.pi 2;
#X obj 230 208 outlet;
#X obj 230 139 t f b;
#X connect 0 0 1 0;
#X connect 1 0 5 0;
#X connect 2 0 4 0;
#X connect 3 0 2 1;
#X connect 5 0 2 0;
#X connect 5 1 3 0;
#X restore 784 91 pd toRad;
#N canvas 65 82 450 300 toRad 0;
#X obj 230 93 inlet;
#X obj 230 116 / 360;
#X obj 230 185 *;
#X obj 257 161 hoa.pi 2;
#X obj 230 208 outlet;
#X obj 230 139 t f b;
#X connect 0 0 1 0;
#X connect 1 0 5 0;
#X connect 2 0 4 0;
#X connect 3 0 2 1;
#X connect 5 0 2 0;
#X connect 5 1 3 0;
#X restore 734 71 pd toRad;
#N canvas 65 82 450 300 toRad 0;
#X obj 230 93 inlet;
#X obj 230 116 / 360;
#X obj 230 185 *;
#X obj 257 161 hoa.pi 2;
#X obj 230 208 outlet;
#X obj 230 139 t f b;
#X connect 0 0 1 0;
#X connect 1 0 5 0;
#X connect 2 0 4 0;
#X connect 3 0 2 1;
#X connect 5 0 2 0;
#X connect 5 1 3 0;
#X restore 651 91 pd toRad;
#N canvas 65 82 450 300 toRad 0;
#X obj 230 93 inlet;
#X obj 230 116 / 360;
#X obj 230 185 *;
#X obj 257 161 hoa.pi 2;
#X obj 230 208 outlet;
#X obj 230 139 t f b;
#X connect 0 0 1 0;
#X connect 1 0 5 0;
#X connect 2 0 4 0;
#X connect 3 0 2 1;
#X connect 5 0 2 0;
#X connect 5 1 3 0;
#X restore 601 71 pd toRad;
#N canvas 65 82 450 300 toRad 0;
#X obj 230 93 inlet;
#X obj 230 116 / 360;
#X obj 230 185 *;
#X obj 257 161 hoa.pi 2;
#X obj 230 208 outlet;
#X obj 230 139 t f b;
#X connect 0 0 1 0;
#X connect 1 0 5 0;
#X connect 2 0 4 0;
#X connect 3 0 2 1;
#X connect 5 0 2 0;
#X connect 5 1 3 0;
#X restore 521 91 pd toRad;
#N canvas 65 82 450 300 toRad 0;
#X obj 230 93 inlet;
#X obj 230 116 / 360;
#X obj 230 185 *;
#X obj 257 161 hoa.pi 2;
#X obj 230 208 outlet;
#X obj 230 139 t f b;
#X connect 0 0 1 0;
#X connect 1 0 5 0;
#X connect 2 0 4 0;
#X connect 3 0 2 1;
#X connect 5 0 2 0;
#X connect 5 1 3 0;
#X restore 471 71 pd toRad;
#X msg 968 136 1;
#X msg 368 140 0;
#X obj 545 359 c.number~ @size 53 17 @fontname Helvetica @fontweight
normal @fontslant roman @fontsize 11 @receive (null) @send (null) @interval
50 @decimal 6 @bgcolor 0.75 0.75 0.75 1 @bdcolor 0.5 0.5 0.5 1 @textcolor
0 0 0 1;
#X obj 605 359 c.number~ @size 53 17 @fontname Helvetica @fontweight
normal @fontslant roman @fontsize 11 @receive (null) @send (null) @interval
50 @decimal 6 @bgcolor 0.75 0.75 0.75 1 @bdcolor 0.5 0.5 0.5 1 @textcolor
0 0 0 1;
#X obj 575 329 c.number~ @size 53 17 @fontname Helvetica @fontweight
normal @fontslant roman @fontsize 11 @receive (null) @send (null) @interval
50 @decimal 6 @bgcolor 0.75 0.75 0.75 1 @bdcolor 0.5 0.5 0.5 1 @textcolor
0 0 0 1;
#X obj 645 329 c.number~ @size 53 17 @fontname Helvetica @fontweight
normal @fontslant roman @fontsize 11 @receive (null) @send (null) @interval
50 @decimal 6 @bgcolor 0.75 0.75 0.75 1 @bdcolor 0.5 0.5 0.5 1 @textcolor
0 0 0 1;
#X obj 715 329 c.number~ @size 53 17 @fontname Helvetica @fontweight
normal @fontslant roman @fontsize 11 @receive (null) @send (null) @interval
50 @decimal 6 @bgcolor 0.75 0.75 0.75 1 @bdcolor 0.5 0.5 0.5 1 @textcolor
0 0 0 1;
#X obj 675 359 c.number~ @size 53 17 @fontname Helvetica @fontweight
normal @fontslant roman @fontsize 11 @receive (null) @send (null) @interval
50 @decimal 6 @bgcolor 0.75 0.75 0.75 1 @bdcolor 0.5 0.5 0.5 1 @textcolor
0 0 0 1;
#X obj 755 359 c.number~ @size 53 17 @fontname Helvetica @fontweight
normal @fontslant roman @fontsize 11 @receive (null) @send (null) @interval
50 @decimal 6 @bgcolor 0.75 0.75 0.75 1 @bdcolor 0.5 0.5 0.5 1 @textcolor
0 0 0 1;
#X obj 782 329 c.number~ @size 53 17 @fontname Helvetica @fontweight
normal @fontslant roman @fontsize 11 @receive (null) @send (null) @interval
50 @decimal 6 @bgcolor 0.75 0.75 0.75 1 @bdcolor 0.5 0.5 0.5 1 @textcolor
0 0 0 1;
#X obj 825 359 c.number~ @size 53 17 @fontname Helvetica @fontweight
normal @fontslant roman @fontsize 11 @receive (null) @send (null) @interval
50 @decimal 6 @bgcolor 0.75 0.75 0.75 1 @bdcolor 0.5 0.5 0.5 1 @textcolor
0 0 0 1;
#X obj 855 329 c.number~ @size 53 17 @fontname Helvetica @fontweight
normal @fontslant roman @fontsize 11 @receive (null) @send (null) @interval
50 @decimal 6 @bgcolor 0.75 0.75 0.75 1 @bdcolor 0.5 0.5 0.5 1 @textcolor
0 0 0 1;
#X obj 895 359 c.number~ @size 53 17 @fontname Helvetica @fontweight
normal @fontslant roman @fontsize 11 @receive (null) @send (null) @interval
50 @decimal 6 @bgcolor 0.75 0.75 0.75 1 @bdcolor 0.5 0.5 0.5 1 @textcolor
0 0 0 1;
#X obj 517 328 c.number~ @size 53 17 @fontname Helvetica @fontweight
normal @fontslant roman @fontsize 11 @receive (null) @send (null) @interval
50 @decimal 6 @bgcolor 0.75 0.75 0.75 1 @bdcolor 0.5 0.5 0.5 1 @textcolor
0 0 0 1;
#X obj 425 359 c.number~ @size 53 17 @fontname Helvetica @fontweight
normal @fontslant roman @fontsize 11 @receive (null) @send (null) @interval
50 @decimal 6 @bgcolor 0.75 0.75 0.75 1 @bdcolor 0.5 0.5 0.5 1 @textcolor
0 0 0 1;
#X obj 455 329 c.number~ @size 53 17 @fontname Helvetica @fontweight
normal @fontslant roman @fontsize 11 @receive (null) @send (null) @interval
50 @decimal 6 @bgcolor 0.75 0.75 0.75 1 @bdcolor 0.5 0.5 0.5 1 @textcolor
0 0 0 1;
#X obj 397 328 c.number~ @size 53 17 @fontname Helvetica @fontweight
normal @fontslant roman @fontsize 11 @receive (null) @send (null) @interval
50 @decimal 6 @bgcolor 0.75 0.75 0.75 1 @bdcolor 0.5 0.5 0.5 1 @textcolor
0 0 0 1;
#X obj 485 359 c.number~ @size 53 17 @fontname Helvetica @fontweight
normal @fontslant roman @fontsize 11 @receive (null) @send (null) @interval
50 @decimal 6 @bgcolor 0.75 0.75 0.75 1 @bdcolor 0.5 0.5 0.5 1 @textcolor
0 0 0 1;
#X obj 86 299 c.number~ @size 53 17 @fontname Helvetica @fontweight
normal @fontslant roman @fontsize 11 @receive (null) @send (null) @interval
50 @decimal 6 @bgcolor 0.75 0.75 0.75 1 @bdcolor 0.5 0.5 0.5 1 @textcolor
0 0 0 1;
#X obj 141 335 c.number~ @size 53 17 @fontname Helvetica @fontweight
normal @fontslant roman @fontsize 11 @receive (null) @send (null) @interval
50 @decimal 6 @bgcolor 0.75 0.75 0.75 1 @bdcolor 0.5 0.5 0.5 1 @textcolor
0 0 0 1;
#X obj 213 339 c.number~ @size 53 17 @fontname Helvetica @fontweight
normal @fontslant roman @fontsize 11 @receive (null) @send (null) @interval
50 @decimal 6 @bgcolor 0.75 0.75 0.75 1 @bdcolor 0.5 0.5 0.5 1 @textcolor
0 0 0 1;
#X obj 17 265 c.number~ @size 53 17 @fontname Helvetica @fontweight
normal @fontslant roman @fontsize 11 @receive (null) @send (null) @interval
50 @decimal 6 @bgcolor 0.75 0.75 0.75 1 @bdcolor 0.5 0.5 0.5 1 @textcolor
0 0 0 1;
#X connect 0 0 7 0;
#X connect 1 0 2 1;
#X connect 2 0 7 1;
#X connect 3 0 2 0;
#X connect 5 0 6 0;
#X connect 5 0 60 0;
#X connect 5 0 61 0;
#X connect 5 0 21 0;
#X connect 5 0 22 0;
#X connect 5 0 23 0;
#X connect 5 0 24 0;
#X connect 5 0 25 0;
#X connect 5 0 26 0;
#X connect 5 0 70 0;
#X connect 5 0 71 0;
#X connect 6 0 13 0;
#X connect 7 0 8 0;
#X connect 7 0 9 0;
#X connect 7 0 47 0;
#X connect 7 0 45 0;
#X connect 7 0 46 0;
#X connect 7 0 44 0;
#X connect 7 0 91 0;
#X connect 7 1 8 1;
#X connect 7 1 9 1;
#X connect 7 1 51 0;
#X connect 7 1 49 0;
#X connect 7 1 50 0;
#X connect 7 1 48 0;
#X connect 7 1 88 0;
#X connect 7 2 8 2;
#X connect 7 2 9 2;
#X connect 7 2 55 0;
#X connect 7 2 53 0;
#X connect 7 2 54 0;
#X connect 7 2 52 0;
#X connect 7 2 89 0;
#X connect 7 3 8 3;
#X connect 7 3 9 3;
#X connect 7 3 56 0;
#X connect 7 3 58 0;
#X connect 7 3 57 0;
#X connect 7 3 59 0;
#X connect 7 3 90 0;
#X connect 9 0 10 0;
#X connect 9 1 10 1;
#X connect 9 2 10 2;
#X connect 9 3 10 3;
#X connect 13 0 15 0;
#X connect 13 0 16 0;
#X connect 13 0 17 0;
#X connect 13 0 18 0;
#X connect 15 0 29 0;
#X connect 15 1 30 0;
#X connect 15 2 31 0;
#X connect 15 3 27 0;
#X connect 16 0 33 0;
#X connect 16 1 34 0;
#X connect 16 2 35 0;
#X connect 16 3 32 0;
#X connect 17 0 37 0;
#X connect 17 1 38 0;
#X connect 17 2 39 0;
#X connect 17 3 36 0;
#X connect 18 0 41 0;
#X connect 18 1 42 0;
#X connect 18 2 43 0;
#X connect 18 3 40 0;
#X connect 21 0 67 0;
#X connect 22 0 66 0;
#X connect 23 0 65 0;
#X connect 24 0 64 0;
#X connect 25 0 63 0;
#X connect 26 0 62 0;
#X connect 27 0 47 1;
#X connect 29 0 44 1;
#X connect 30 0 46 1;
#X connect 31 0 45 1;
#X connect 32 0 51 1;
#X connect 33 0 48 1;
#X connect 34 0 50 1;
#X connect 35 0 49 1;
#X connect 36 0 55 1;
#X connect 37 0 52 1;
#X connect 38 0 54 1;
#X connect 39 0 53 1;
#X connect 40 0 59 1;
#X connect 41 0 56 1;
#X connect 42 0 58 1;
#X connect 43 0 57 1;
#X connect 44 0 86 0;
#X connect 45 0 85 0;
#X connect 46 0 84 0;
#X connect 47 0 87 0;
#X connect 48 0 83 0;
#X connect 49 0 74 0;
#X connect 50 0 72 0;
#X connect 51 0 73 0;
#X connect 52 0 75 0;
#X connect 53 0 76 0;
#X connect 54 0 77 0;
#X connect 55 0 78 0;
#X connect 56 0 79 0;
#X connect 57 0 81 0;
#X connect 58 0 80 0;
#X connect 59 0 82 0;
#X connect 60 0 69 0;
#X connect 61 0 68 0;
#X connect 62 0 18 2;
#X connect 63 0 18 1;
#X connect 64 0 17 2;
#X connect 65 0 17 1;
#X connect 66 0 16 2;
#X connect 67 0 16 1;
#X connect 68 0 15 2;
#X connect 69 0 15 1;
#X connect 70 0 33 1;
#X connect 70 0 34 1;
#X connect 70 0 37 1;
#X connect 70 0 39 1;
#X connect 70 0 41 1;
#X connect 70 0 43 1;
#X connect 70 0 32 1;
#X connect 70 0 38 1;
#X connect 70 0 36 1;
#X connect 70 0 42 1;
#X connect 70 0 40 1;
#X connect 71 0 29 1;
#X connect 71 0 30 1;
#X connect 71 0 31 1;
#X connect 71 0 27 1;
#X restore 189 660 pd hoa.3d.decoder~ 1;
#X text 14 366 - the encoding input signal (in the decoder) corresponds
to the normalisation. norm = 12.5 / (m+1)^2 (nbOfHarmonics), f 79
;
#X text 2 186 Here we go to explain the regular 3d decoding. The equivalent
Hoa object to this exemple is :, f 81;
#X connect 2 0 26 2;
#X connect 3 0 2 0;
#X connect 4 0 3 0;
#X connect 5 0 7 0;
#X connect 6 0 5 0;
#X connect 16 0 54 0;
#X connect 23 0 26 1;
#X connect 24 0 23 0;
#X connect 25 0 24 0;
#X connect 26 0 22 0;
#X connect 26 0 51 0;
#X connect 26 0 53 0;
#X connect 26 1 22 1;
#X connect 26 1 53 1;
#X connect 26 2 22 2;
#X connect 26 2 53 2;
#X connect 26 3 22 3;
#X connect 26 3 53 3;
#X connect 28 0 26 0;
#X connect 32 0 50 0;
#X connect 33 0 29 0;
#X connect 33 0 30 0;
#X connect 35 0 34 0;
#X connect 37 0 36 0;
#X connect 39 0 38 0;
#X connect 41 0 40 0;
#X connect 50 0 29 0;
#X connect 50 0 30 0;
#X connect 53 0 27 0;
#X connect 53 0 35 1;
#X connect 53 0 46 0;
#X connect 53 1 27 1;
#X connect 53 1 37 1;
#X connect 53 1 47 0;
#X connect 53 2 27 2;
#X connect 53 2 39 1;
#X connect 53 2 48 0;
#X connect 53 3 27 3;
#X connect 53 3 41 1;
#X connect 53 3 49 0;
#X connect 54 0 17 0;
#X connect 59 0 61 0;
#X connect 60 0 59 0;
