#N canvas 223 116 771 639 10;
#X obj 614 43 c.number @size 53 17 @fontname "Helvetica" @fontweight
"normal" @fontslant "roman" @fontsize 11 @receive "(null)" @send "(null)"
@presetname "(null)" @min "(null)" @max "(null)" @minmax "(null)" "(null)"
@decimal 6 @bgcolor 0.75 0.75 0.75 1 @bdcolor 0.5 0.5 0.5 1 @textcolor
0 0 0 1;
#X obj 21 8 c.canvasinfos;
#X obj 20 4 loadbang;
#X obj 3 3 hoa.tuto.header;
#X obj 11 577 hoa.help.pub;
#X obj 395 41 sig~ 1;
#N canvas 877 209 450 315 maxRe 0;
#X obj 63 12 inlet;
#X obj 63 264 outlet;
#X obj 63 119 /, f 5;
#X obj 63 211 *, f 4;
#X obj 78 140 inlet;
#X obj 78 162 abs;
#X obj 90 76 * 2;
#X obj 90 97 + 2;
#X obj 78 183 t b f;
#X obj 63 33 t b f;
#X obj 63 55 hoa.pi 1;
#X obj 63 233 cos;
#X connect 0 0 9 0;
#X connect 2 0 3 0;
#X connect 3 0 11 0;
#X connect 4 0 5 0;
#X connect 5 0 8 0;
#X connect 6 0 7 0;
#X connect 7 0 2 1;
#X connect 8 0 3 0;
#X connect 8 1 3 1;
#X connect 9 0 10 0;
#X connect 9 1 6 0;
#X connect 10 0 2 0;
#X connect 11 0 1 0;
#X restore 145 315 pd maxRe;
#N canvas 549 158 660 439 inPhase 0;
#X obj 10 14 inlet;
#X obj 90 14 inlet;
#N canvas 0 22 450 300 factorial 0;
#X obj 163 81 until;
#X obj 163 103 f 1;
#X obj 188 103 + 1;
#X obj 188 123 f 1;
#X obj 163 123 * 1;
#X obj 163 19 inlet, f 11;
#X obj 163 61 t f b, f 9;
#X obj 214 81 f 1;
#X obj 163 40 max 1;
#X obj 163 145 outlet;
#X connect 0 0 1 0;
#X connect 1 0 2 0;
#X connect 1 0 4 0;
#X connect 2 0 1 1;
#X connect 3 0 4 1;
#X connect 4 0 3 0;
#X connect 4 0 9 0;
#X connect 5 0 8 0;
#X connect 6 0 0 0;
#X connect 6 1 7 0;
#X connect 7 0 1 1;
#X connect 7 0 4 1;
#X connect 8 0 6 0;
#X restore 10 76 pd factorial;
#N canvas 0 22 450 300 factorial 0;
#X obj 163 81 until;
#X obj 163 103 f 1;
#X obj 188 103 + 1;
#X obj 188 123 f 1;
#X obj 163 123 * 1;
#X obj 163 19 inlet, f 11;
#X obj 163 61 t f b, f 9;
#X obj 214 81 f 1;
#X obj 163 40 max 1;
#X obj 163 145 outlet;
#X connect 0 0 1 0;
#X connect 1 0 2 0;
#X connect 1 0 4 0;
#X connect 2 0 1 1;
#X connect 3 0 4 1;
#X connect 4 0 3 0;
#X connect 4 0 9 0;
#X connect 5 0 8 0;
#X connect 6 0 0 0;
#X connect 6 1 7 0;
#X connect 7 0 1 1;
#X connect 7 0 4 1;
#X connect 8 0 6 0;
#X restore 90 76 pd factorial;
#X obj 90 54 +, f 5;
#X obj 90 34 t b f;
#N canvas 0 22 450 300 factorial 0;
#X obj 163 81 until;
#X obj 163 103 f 1;
#X obj 188 103 + 1;
#X obj 188 123 f 1;
#X obj 163 123 * 1;
#X obj 163 19 inlet, f 11;
#X obj 163 61 t f b, f 9;
#X obj 214 81 f 1;
#X obj 163 40 max 1;
#X obj 163 145 outlet;
#X connect 0 0 1 0;
#X connect 1 0 2 0;
#X connect 1 0 4 0;
#X connect 2 0 1 1;
#X connect 3 0 4 1;
#X connect 4 0 3 0;
#X connect 4 0 9 0;
#X connect 5 0 8 0;
#X connect 6 0 0 0;
#X connect 6 1 7 0;
#X connect 7 0 1 1;
#X connect 7 0 4 1;
#X connect 8 0 6 0;
#X restore 170 76 pd factorial;
#X obj 170 34 t b f;
#X obj 170 54 -, f 5;
#X obj 10 125 /, f 5;
#X obj 90 96 t b f;
#X obj 120 125 /, f 5;
#X obj 170 96 t b f;
#X obj 10 178 *, f 5;
#X obj 120 145 t b f;
#X obj 10 200 outlet;
#X connect 0 0 2 0;
#X connect 0 0 4 0;
#X connect 0 0 8 0;
#X connect 1 0 5 0;
#X connect 1 0 7 0;
#X connect 2 0 9 0;
#X connect 2 0 11 0;
#X connect 3 0 10 0;
#X connect 4 0 3 0;
#X connect 5 0 4 0;
#X connect 5 1 4 1;
#X connect 6 0 12 0;
#X connect 7 0 8 0;
#X connect 7 1 8 1;
#X connect 8 0 6 0;
#X connect 9 0 13 0;
#X connect 10 0 9 0;
#X connect 10 1 9 1;
#X connect 11 0 14 0;
#X connect 12 0 11 0;
#X connect 12 1 11 1;
#X connect 13 0 15 0;
#X connect 14 0 13 0;
#X connect 14 1 13 1;
#X restore 145 497 pd inPhase;
#X text 16 285 decomposition order;
#X text 276 286 harmonic degree;
#X obj 396 356 hoa.3d.scope~ @size 224 224 @fontname "Helvetica" @fontweight
"normal" @fontslant "roman" @fontsize 11 @receive "(null)" @send "(null)"
@order 2 @view 0 0 0 @gain 2 @interval 100 @bgcolor 0.76 0.76 0.76
1 @bdcolor 0.7 0.7 0.7 1 @phcolor 1 0 0 1 @nhcolor 0 0 1 1;
#X obj 395 99 hoa.3d.scope~ @size 224 224 @fontname "Helvetica" @fontweight
"normal" @fontslant "roman" @fontsize 11 @receive "(null)" @send "(null)"
@order 2 @view 0 0 0 @gain 1 @interval 100 @bgcolor 0.76 0.76 0.76
1 @bdcolor 0.7 0.7 0.7 1 @phcolor 1 0 0 1 @nhcolor 0 0 1 1;
#X text 319 539 Dsp on/off;
#X obj 286 532 c.dsp~ @size 30 30 @fontname "Helvetica" @fontweight
"normal" @fontslant "roman" @fontsize 11 @receive "(null)" @send "(null)"
@bgcolor 0.75 0.75 0.75 1 @bdcolor 0.5 0.5 0.5 1 @logocolor 0 0.6 0
0.8;
#X text 205 347 gain;
#X obj 395 80 hoa.3d.encoder~ 2 -, f 37;
#X obj 504 43 c.number @size 53 17 @fontname "Helvetica" @fontweight
"normal" @fontslant "roman" @fontsize 11 @receive "(null)" @send "(null)"
@presetname "(null)" @min "(null)" @max "(null)" @minmax "(null)" "(null)"
@decimal 6 @bgcolor 0.75 0.75 0.75 1 @bdcolor 0.5 0.5 0.5 1 @textcolor
0 0 0 1;
#X text 405 17 Optimizations are similar in 2D and 3D.;
#X text 8 141 - The basic optimization does nothing. It isn't the optimal
choice for the spatialization of punctual sources but it should be
preferred for diffuse sound fields.;
#X text 5 383 - The inPhase optimization filters the signal for an
audience which covers all the sound space. The gain g for each harmonic
depends on the order of decompostion N and the degree l.;
#X obj 145 286 c.number @size 53 17 @fontname "Helvetica" @fontweight
"normal" @fontslant "roman" @fontsize 11 @receive "(null)" @send "(null)"
@presetname "(null)" @min "(null)" @max "(null)" @minmax "(null)" "(null)"
@decimal 1 @bgcolor 0.75 0.75 0.75 1 @bdcolor 0.5 0.5 0.5 1 @textcolor
0 0 0 1;
#X obj 214 286 c.number @size 53 17 @fontname "Helvetica" @fontweight
"normal" @fontslant "roman" @fontsize 11 @receive "(null)" @send "(null)"
@presetname "(null)" @min "(null)" @max "(null)" @minmax "(null)" "(null)"
@decimal 1 @bgcolor 0.75 0.75 0.75 1 @bdcolor 0.5 0.5 0.5 1 @textcolor
0 0 0 1;
#X obj 216 284 max \$1;
#X obj 145 348 c.number @size 53 17 @fontname "Helvetica" @fontweight
"normal" @fontslant "roman" @fontsize 11 @receive "(null)" @send "(null)"
@presetname "(null)" @min "(null)" @max "(null)" @minmax "(null)" "(null)"
@decimal 6 @bgcolor 0.75 0.75 0.75 1 @bdcolor 0.5 0.5 0.5 1 @textcolor
0 0 0 1;
#X text 16 465 decomposition order;
#X text 276 466 harmonic degree;
#X obj 145 466 c.number @size 53 17 @fontname "Helvetica" @fontweight
"normal" @fontslant "roman" @fontsize 11 @receive "(null)" @send "(null)"
@presetname "(null)" @min "(null)" @max "(null)" @minmax "(null)" "(null)"
@decimal 1 @bgcolor 0.75 0.75 0.75 1 @bdcolor 0.5 0.5 0.5 1 @textcolor
0 0 0 1;
#X obj 214 466 c.number @size 53 17 @fontname "Helvetica" @fontweight
"normal" @fontslant "roman" @fontsize 11 @receive "(null)" @send "(null)"
@presetname "(null)" @min "(null)" @max "(null)" @minmax "(null)" "(null)"
@decimal 1 @bgcolor 0.75 0.75 0.75 1 @bdcolor 0.5 0.5 0.5 1 @textcolor
0 0 0 1;
#X obj 216 464 max \$1;
#X text 205 527 gain;
#X obj 145 528 c.number @size 53 17 @fontname "Helvetica" @fontweight
"normal" @fontslant "roman" @fontsize 11 @receive "(null)" @send "(null)"
@presetname "(null)" @min "(null)" @max "(null)" @minmax "(null)" "(null)"
@decimal 6 @bgcolor 0.75 0.75 0.75 1 @bdcolor 0.5 0.5 0.5 1 @textcolor
0 0 0 1;
#X text 8 261 g[l] = cos(π / (N * 2 + 2) * l);
#X text 5 440 g[l] = N!^2 / (N-l)! * (N+l)!;
#X obj 629 264 c.menu @size 100 17 @fontname "Helvetica" @fontweight
"normal" @fontslant "roman" @fontsize 11 @receive "(null)" @send "(null)"
@presetname "(null)" @hover 0 @items "basic" "maxRe" "inPhase" @states
0 0 0 @bgcolor 0.75 0.75 0.75 1 @bdcolor 0.5 0.5 0.5 1 @textcolor 0
0 0 1;
#X obj 629 232 c.loadmess set 1;
#X text 2 50 Ambisonics assume that there is one listener at the center
of a perfect circle or sphere. Such situations are very rare \, in
fact the loudspeaker arrangement is never optimal and the audience
is generally spreads all over the sound space. To compensate the artefacts
due to these restrictions \, several optimizations are offered :;
#X text 8 192 - The maxRe optimization filters the signal for an audience
confined to the center of the sound space. The gain g for each harmonic
depends on the order of decomposition N and the degree l.;
#X obj 395 324 hoa.3d.process~ 2 hoa.fx.optim~ harmonics inPhase,
f 38;
#X connect 0 0 15 2;
#X connect 1 0 3 0;
#X connect 2 0 1 0;
#X connect 5 0 15 0;
#X connect 6 0 23 0;
#X connect 7 0 30 0;
#X connect 15 0 11 0;
#X connect 15 0 37 0;
#X connect 15 1 11 1;
#X connect 15 1 37 1;
#X connect 15 2 11 2;
#X connect 15 2 37 2;
#X connect 15 3 11 3;
#X connect 15 3 37 3;
#X connect 15 4 11 4;
#X connect 15 4 37 4;
#X connect 15 5 11 5;
#X connect 15 5 37 5;
#X connect 15 6 11 6;
#X connect 15 6 37 6;
#X connect 15 7 11 7;
#X connect 15 7 37 7;
#X connect 15 8 11 8;
#X connect 15 8 37 8;
#X connect 16 0 15 1;
#X connect 20 0 6 0;
#X connect 20 0 22 0;
#X connect 21 0 6 1;
#X connect 22 0 21 0;
#X connect 26 0 28 0;
#X connect 26 0 7 0;
#X connect 27 0 7 1;
#X connect 28 0 27 0;
#X connect 33 1 37 9;
#X connect 34 0 33 0;
#X connect 37 0 10 0;
#X connect 37 1 10 1;
#X connect 37 2 10 2;
#X connect 37 3 10 3;
#X connect 37 4 10 4;
#X connect 37 5 10 5;
#X connect 37 6 10 6;
#X connect 37 7 10 7;
#X connect 37 8 10 8;
