#N canvas 8 23 1440 722 10;
#X obj 21 11 c.canvasinfos;
#X obj 20 7 loadbang;
#X obj 3 6 hoa.tuto.header;
#X obj 546 6 hoa.help.pub;
#X obj 11 467 hoa.2d.scope~ @size 225 225 @fontname "Helvetica" @fontweight
"normal" @fontslant "roman" @fontsize 11 @receive "(null)" @send "(null)"
@order 1 @view 0 @gain 100 @interval 100 @bgcolor 0.76 0.76 0.76 1
@bdcolor 0.7 0.7 0.7 1 @phcolor 1 0 0 1 @nhcolor 0 0 1 1;
#X obj 120 356 sig~ 1;
#X obj 383 468 hoa.2d.scope~ @size 225 225 @fontname "Helvetica" @fontweight
"normal" @fontslant "roman" @fontsize 11 @receive "(null)" @send "(null)"
@order 7 @view 0 @gain 100 @interval 100 @bgcolor 0.76 0.76 0.76 1
@bdcolor 0.7 0.7 0.7 1 @phcolor 1 0 0 1 @nhcolor 0 0 1 1;
#X obj 383 386 sig~ 1;
#X obj 602 410 c.number @size 53 17 @fontname "Helvetica" @fontweight
"normal" @fontslant "roman" @fontsize 11 @receive "init" @send "(null)"
@presetname "(null)" @min "(null)" @max "(null)" @minmax "(null)" "(null)"
@decimal 6 @bgcolor 0.75 0.75 0.75 1 @bdcolor 0.5 0.5 0.5 1 @textcolor
0 0 0 1;
#X obj 251 355 c.number @size 53 17 @fontname "Helvetica" @fontweight
"normal" @fontslant "roman" @fontsize 11 @receive "(null)" @send "(null)"
@presetname "(null)" @min "(null)" @max "(null)" @minmax "(null)" "(null)"
@decimal 6 @bgcolor 0.75 0.75 0.75 1 @bdcolor 0.5 0.5 0.5 1 @textcolor
0 0 0 1;
#X text 70 357 Source;
#X obj 11 419 *~ 1;
#X obj 230 421 *~ 1;
#X obj 120 421 *~ 0;
#X obj 141 396 sin;
#X obj 251 396 cos;
#X text 17 440 Harmonic 0;
#X text 127 440 Harmonic -1;
#X text 237 440 Harmonic 1;
#X text 365 136 if m < 0;
#X text 365 166 else;
#X text 615 444 Look inside;
#X obj 592 273 c.dsp~ @size 30 30 @fontname "Helvetica" @fontweight
"normal" @fontslant "roman" @fontsize 11 @receive "(null)" @send "(null)"
@bgcolor 0.75 0.75 0.75 1 @bdcolor 0.5 0.5 0.5 1 @logocolor 0 0.6 0
0.8;
#X text 633 279 Dsp On/Off;
#X text 3 191 For an order of decomposition 1 \, the sound field is
composed by 3 circular harmonics. The harmonics depends on the azimuth
θ and the signal S:, f 57;
#X text 365 201 With l the degree \, m the (azimuthal) order \, θ
the azimuth and S the signal to encode., f 54;
#X text 480 411 Azimuth θ in radian;
#X text 189 333 Azimuth θ in radian;
#X text 1058 90 Y[l \, m] = k(l \, m) * P'[l \, |m|](cos(φ)) * e^i|m|θ
* S, f 55;
#X text 1058 274 The normalization k is defined by, f 59;
#X text 1058 164 The associated Legendre polynomial is defined by,
f 59;
#X text 1058 181 P'[0 \, 0](x) = 1, f 59;
#X text 1060 321 Note that the complex exponential e^i is similar to
the 2d encoding operation.;
#X text 365 106 and the the complex exponential e^i can be simplified
by, f 54;
#X text 375 151 Y[l \, m](θ) = sin(|m|*θ);
#X text 365 86 Y[l \, m](θ) = e^i|m|θ * S;
#X text 375 181 Y[l \, m](θ) = cos(|m|*θ);
#X obj 1093 403 sig~ 1;
#X obj 1202 377 c.number @size 53 17 @fontname "Helvetica" @fontweight
"normal" @fontslant "roman" @fontsize 11 @receive "init" @send "(null)"
@presetname "(null)" @min "(null)" @max "(null)" @minmax "(null)" "(null)"
@decimal 6 @bgcolor 0.75 0.75 0.75 1 @bdcolor 0.5 0.5 0.5 1 @textcolor
0 0 0 1;
#X text 1325 439 Look inside;
#X text 1082 376 Azimuth θ in radian;
#X obj 1312 397 c.number @size 53 17 @fontname "Helvetica" @fontweight
"normal" @fontslant "roman" @fontsize 11 @receive "init" @send "(null)"
@presetname "(null)" @min "(null)" @max "(null)" @minmax "(null)" "(null)"
@decimal 6 @bgcolor 0.75 0.75 0.75 1 @bdcolor 0.5 0.5 0.5 1 @textcolor
0 0 0 1;
#X text 1180 396 Elevation φ in radian;
#X obj 814 305 c.number @size 53 17 @fontname "Helvetica" @fontweight
"normal" @fontslant "roman" @fontsize 11 @receive "init" @send "(null)"
@presetname "(null)" @min "(null)" @max "(null)" @minmax "(null)" "(null)"
@decimal 6 @bgcolor 0.75 0.75 0.75 1 @bdcolor 0.5 0.5 0.5 1 @textcolor
0 0 0 1;
#X obj 750 468 hoa.3d.scope~ @size 225 225 @fontname "Helvetica" @fontweight
"normal" @fontslant "roman" @fontsize 11 @receive "(null)" @send "(null)"
@order 1 @view 0 0 0 @gain 1 @interval 100 @bgcolor 0.76 0.76 0.76
1 @bdcolor 0.7 0.7 0.7 1 @phcolor 1 0 0 1 @nhcolor 0 0 1 1;
#X obj 943 305 c.number @size 53 17 @fontname "Helvetica" @fontweight
"normal" @fontslant "roman" @fontsize 11 @receive "init" @send "(null)"
@presetname "(null)" @min "(null)" @max "(null)" @minmax "(null)" "(null)"
@decimal 6 @bgcolor 0.75 0.75 0.75 1 @bdcolor 0.5 0.5 0.5 1 @textcolor
0 0 0 1;
#X obj 917 360 cos;
#X obj 750 389 sig~ 1;
#X obj 843 360 sin;
#N canvas 65 92 450 300 P' 0;
#X obj 6 6 inlet;
#X obj 6 198 outlet;
#X obj 6 177 * -1;
#X obj 6 137 -, f 5;
#X obj 6 96 t b f;
#X obj 6 76 *, f 5;
#X obj 6 56 t f f;
#X obj 6 157 sqrt;
#X obj 6 116 f 1;
#X obj 6 28 cos;
#X connect 0 0 9 0;
#X connect 2 0 1 0;
#X connect 3 0 7 0;
#X connect 4 0 8 0;
#X connect 4 1 3 1;
#X connect 5 0 4 0;
#X connect 6 0 5 0;
#X connect 6 1 5 1;
#X connect 7 0 2 0;
#X connect 8 0 3 0;
#X connect 9 0 6 0;
#X restore 870 360 pd P';
#X obj 750 426 *~ 1;
#N canvas 65 92 450 300 P' 0;
#X obj 6 6 inlet;
#X obj 6 198 outlet;
#X obj 6 177 * -1;
#X obj 6 137 -, f 5;
#X obj 6 96 t b f;
#X obj 6 76 *, f 5;
#X obj 6 56 t f f;
#X obj 6 157 sqrt;
#X obj 6 116 f 1;
#X obj 6 28 cos;
#X connect 0 0 9 0;
#X connect 2 0 1 0;
#X connect 3 0 7 0;
#X connect 4 0 8 0;
#X connect 4 1 3 1;
#X connect 5 0 4 0;
#X connect 6 0 5 0;
#X connect 6 1 5 1;
#X connect 7 0 2 0;
#X connect 8 0 3 0;
#X connect 9 0 6 0;
#X restore 1023 360 pd P';
#N canvas 526 308 468 374 wrap_angles 0;
#X obj 82 39 inlet;
#X obj 195 49 inlet;
#X obj 195 71 /, f 7;
#X obj 234 47 hoa.pi 2;
#X obj 234 26 loadbang;
#X obj 195 137 *, f 7;
#X obj 195 93 + 0.25;
#X obj 195 116 wrap;
#X obj 105 203 >;
#X obj 104 274 t b f;
#X obj 81 300 +, f 4;
#X obj 120 128 hoa.pi 1;
#X obj 105 228 sel 1;
#X obj 105 250 hoa.pi 1;
#X obj 81 322 outlet;
#X obj 222 320 outlet, f 30;
#X obj 195 157 t f f;
#X connect 0 0 10 0;
#X connect 1 0 2 0;
#X connect 2 0 6 0;
#X connect 3 0 2 1;
#X connect 3 0 5 1;
#X connect 4 0 3 0;
#X connect 4 0 11 0;
#X connect 5 0 16 0;
#X connect 6 0 7 0;
#X connect 7 0 5 0;
#X connect 8 0 12 0;
#X connect 9 0 10 0;
#X connect 9 1 10 1;
#X connect 10 0 14 0;
#X connect 11 0 8 1;
#X connect 12 0 13 0;
#X connect 12 1 9 0;
#X connect 13 0 9 0;
#X connect 16 0 8 0;
#X connect 16 1 15 0;
#X restore 843 332 pd wrap_angles;
#X obj 996 360 cos;
#X text 907 285 Elevation φ in radian;
#X text 777 285 Azimuth θ in radian;
#X text 757 450 Harmo 0 0;
#X text 827 450 Harmo 1 -1;
#X text 900 450 Harmo 1 0;
#X text 977 450 Harmo 1 1;
#X text 716 197 The harmonic 0 0 : S;
#X text 716 240 The harmonic 1 0 : cos(φ) * S;
#X text 1058 201 P'[l \, l](x) = −(2l+1)√(1−x^2)P[l \, l](x)
, f 59;
#X text 1058 221 P'[l \, l-1](x) = x(2l+1)P[l \, l](x), f 59;
#X text 1058 241 P'[l \, m](x) = (x(2l+1)P[l-1 \, |m|](x)−(l+|m|)P[l−2
\, |m|](x)) / (l−|m|+1);
#X text 3 241 The harmonic 0 0 : S;
#X text 3 256 The harmonic 1 -1 : sin(θ) * S, f 56;
#X text 3 272 The harmonic 1 1 : cos(θ) * S, f 56;
#X text 365 56 In 2d \, for high orders of decomposition \, the harmonics
Y are defined by, f 54;
#X text 1055 56 In 3d \, for high orders of decomposition \, the harmonics
Y are defined by;
#X obj 896 426 *~ 0;
#X obj 843 380 * 1, f 5;
#X obj 996 380 * 1, f 5;
#X obj 822 426 *~ 0;
#X obj 969 426 *~ -1;
#X text 1058 291 k(l \, m) = sqrt((l - |m|)! / (l + |m|)!) * sqrt((2-σ)/
4π);
#X text 716 212 The harmonic 1 -1 : sin(θ) * -√(1−cos(φ)^2) *
-√(1/4π) * S, f 53;
#X text 716 256 The harmonic 1 1 : cos(θ) * -√(1−cos(φ)^2) *
-√(1/4π) * S;
#N canvas 65 82 450 300 norm 0;
#X obj 105 155 hoa.pi;
#X obj 105 176 t b f;
#X obj 105 220 /;
#X obj 105 242 sqrt;
#X obj 105 264 outlet;
#X obj 105 131 c.loadmess 4;
#X obj 105 198 f 1;
#X connect 0 0 1 0;
#X connect 1 0 6 0;
#X connect 1 1 2 1;
#X connect 2 0 3 0;
#X connect 3 0 4 0;
#X connect 5 0 0 0;
#X connect 6 0 2 0;
#X restore 882 380 pd norm;
#X obj 843 402 * 1, f 7;
#N canvas 0 50 450 300 norm 0;
#X obj 105 155 hoa.pi;
#X obj 105 176 t b f;
#X obj 105 220 /;
#X obj 105 242 sqrt;
#X obj 105 264 outlet;
#X obj 105 131 c.loadmess 4;
#X obj 105 198 f 1;
#X connect 0 0 1 0;
#X connect 1 0 6 0;
#X connect 1 1 2 1;
#X connect 2 0 3 0;
#X connect 3 0 4 0;
#X connect 5 0 0 0;
#X connect 6 0 2 0;
#X restore 1035 380 pd norm;
#X obj 996 402 * 1, f 7;
#X obj 373 10 c.loadmess 0;
#X obj 1093 469 hoa.3d.scope~ @size 225 225 @fontname "Helvetica" @fontweight
"normal" @fontslant "roman" @fontsize 11 @receive "(null)" @send "(null)"
@order 7 @view 0 0 0 @gain 1 @interval 100 @bgcolor 0.76 0.76 0.76
1 @bdcolor 0.7 0.7 0.7 1 @phcolor 1 0 0 1 @nhcolor 0 0 1 1;
#X obj 383 434 hoa.2d.process~ 7 hoa.syn.2d.encoder~ harmonics, f
37;
#X obj 1093 433 hoa.3d.process~ 7 hoa.syn.3d.encoder~ harmonics, f
37;
#X obj 373 29 s init;
#X text 1059 308 with σ = 1 if m = 0 else σ = 0;
#X text 2 55 With Ambisonics \, the encoding operation gives the spatial
informations for a sound. Thus \, the sound can be listened as coming
from a point of the space., f 57;
#X text 2 135 Encoding a source in the circular harmonics domain consists
in synthesizing the circular harmonics Y depending on an azimuth θ
and an order of decomposition N.;
#X text 717 57 Encoding a source in the spherical harmonics domain
consists in synthesizing the spherical harmonics Y depending on the
azimuth θ and the elevation φ and an order of decomposition N :,
f 52;
#X text 716 127 For an order of decomposition 1 \, the sound field
is composed by 4 spherical harmonics. The harmonic depends on the azimuth
θ \, the elevation φ and the signal S:, f 53;
#X text 1058 111 k is the normalization \, P' is the associated Legendre
polynomial \, e^i is the complex exponential \, S the signal \, l the
degree \, m the order \, θ azimuth and φ elevation.;
#X connect 0 0 2 0;
#X connect 1 0 0 0;
#X connect 5 0 11 0;
#X connect 5 0 13 0;
#X connect 5 0 12 0;
#X connect 7 0 84 0;
#X connect 8 0 84 1;
#X connect 9 0 14 0;
#X connect 9 0 15 0;
#X connect 11 0 4 0;
#X connect 12 0 4 2;
#X connect 13 0 4 1;
#X connect 14 0 13 1;
#X connect 15 0 12 1;
#X connect 37 0 85 0;
#X connect 38 0 85 1;
#X connect 41 0 85 2;
#X connect 43 0 52 0;
#X connect 45 0 52 1;
#X connect 46 0 70 1;
#X connect 47 0 50 0;
#X connect 47 0 70 0;
#X connect 47 0 73 0;
#X connect 47 0 74 0;
#X connect 48 0 71 0;
#X connect 49 0 71 1;
#X connect 50 0 44 0;
#X connect 51 0 72 1;
#X connect 52 0 48 0;
#X connect 52 0 53 0;
#X connect 52 1 46 0;
#X connect 52 1 49 0;
#X connect 52 1 51 0;
#X connect 53 0 72 0;
#X connect 70 0 44 2;
#X connect 71 0 79 0;
#X connect 72 0 81 0;
#X connect 73 0 44 1;
#X connect 74 0 44 3;
#X connect 78 0 79 1;
#X connect 79 0 73 1;
#X connect 80 0 81 1;
#X connect 81 0 74 1;
#X connect 82 0 86 0;
#X connect 84 0 6 0;
#X connect 84 1 6 1;
#X connect 84 2 6 2;
#X connect 84 3 6 3;
#X connect 84 4 6 4;
#X connect 84 5 6 5;
#X connect 84 6 6 6;
#X connect 84 7 6 7;
#X connect 84 8 6 8;
#X connect 84 9 6 9;
#X connect 84 10 6 10;
#X connect 84 11 6 11;
#X connect 84 12 6 12;
#X connect 84 13 6 13;
#X connect 84 14 6 14;
#X connect 85 0 83 0;
#X connect 85 1 83 1;
#X connect 85 2 83 2;
#X connect 85 3 83 3;
#X connect 85 4 83 4;
#X connect 85 5 83 5;
#X connect 85 6 83 6;
#X connect 85 7 83 7;
#X connect 85 8 83 8;
#X connect 85 9 83 9;
#X connect 85 10 83 10;
#X connect 85 11 83 11;
#X connect 85 12 83 12;
#X connect 85 13 83 13;
#X connect 85 14 83 14;
#X connect 85 15 83 15;
#X connect 85 16 83 16;
#X connect 85 17 83 17;
#X connect 85 18 83 18;
#X connect 85 19 83 19;
#X connect 85 20 83 20;
#X connect 85 21 83 21;
#X connect 85 22 83 22;
#X connect 85 23 83 23;
#X connect 85 24 83 24;
#X connect 85 25 83 25;
#X connect 85 26 83 26;
#X connect 85 27 83 27;
#X connect 85 28 83 28;
#X connect 85 29 83 29;
#X connect 85 30 83 30;
#X connect 85 31 83 31;
#X connect 85 32 83 32;
#X connect 85 33 83 33;
#X connect 85 34 83 34;
#X connect 85 35 83 35;
#X connect 85 36 83 36;
#X connect 85 37 83 37;
#X connect 85 38 83 38;
#X connect 85 39 83 39;
#X connect 85 40 83 40;
#X connect 85 41 83 41;
#X connect 85 42 83 42;
#X connect 85 43 83 43;
#X connect 85 44 83 44;
#X connect 85 45 83 45;
#X connect 85 46 83 46;
#X connect 85 47 83 47;
#X connect 85 48 83 48;
#X connect 85 49 83 49;
#X connect 85 50 83 50;
#X connect 85 51 83 51;
#X connect 85 52 83 52;
#X connect 85 53 83 53;
#X connect 85 54 83 54;
#X connect 85 55 83 55;
#X connect 85 56 83 56;
#X connect 85 57 83 57;
#X connect 85 58 83 58;
#X connect 85 59 83 59;
#X connect 85 60 83 60;
#X connect 85 61 83 61;
#X connect 85 62 83 62;
#X connect 85 63 83 63;
