#N canvas 577 83 855 498 10;
#X obj 12 78 env~;
#X obj 12 369 t f f f f, f 12;
#X obj 12 409 >= 100;
#X obj 35 389 >= 94;
#X obj 58 409 >= 88;
#X obj 81 389 >= 1;
#X obj 12 57 *~ 1;
#N canvas 0 23 435 240 get.gain 0;
#X obj 14 136 list split 1;
#X obj 14 68 symbol gain;
#X obj 47 207 outlet;
#X obj 48 163 dbtorms;
#X obj 48 185 + 1;
#X obj 14 23 loadbang;
#X obj 14 45 delay 10;
#X obj 14 92 text search \$6;
#X obj 14 114 text get \$6;
#X connect 0 1 3 0;
#X connect 1 0 7 0;
#X connect 3 0 4 0;
#X connect 4 0 2 0;
#X connect 5 0 6 0;
#X connect 6 0 1 0;
#X connect 7 0 8 0;
#X connect 8 0 0 0;
#X restore 33 36 pd get.gain;
#N canvas 234 223 530 429 filter.cell 0;
#X obj 37 315 outlet;
#X obj 37 2 loadbang;
#X obj 37 256 delay 10;
#X obj 37 90 spigot 0;
#X obj 82 67 == 0;
#N canvas 627 102 555 431 get.colors 0;
#X obj 63 117 t l l;
#X obj 90 139 list length;
#N canvas 536 255 450 300 pass 0;
#X obj 51 9 inlet;
#X obj 51 54 spigot, f 7;
#X obj 90 29 > 0;
#X obj 90 9 inlet;
#X obj 51 76 outlet;
#X connect 0 0 1 0;
#X connect 1 0 4 0;
#X connect 2 0 1 1;
#X connect 3 0 2 0;
#X restore 90 258 pd pass;
#N canvas 536 255 450 300 pass 0;
#X obj 51 9 inlet;
#X obj 51 54 spigot, f 7;
#X obj 90 9 inlet;
#X obj 51 76 outlet;
#X obj 90 29 > 3;
#X connect 0 0 1 0;
#X connect 1 0 3 0;
#X connect 2 0 4 0;
#X connect 4 0 1 1;
#X restore 174 214 pd pass;
#N canvas 536 255 450 300 pass 0;
#X obj 51 9 inlet;
#X obj 51 54 spigot, f 7;
#X obj 90 9 inlet;
#X obj 51 76 outlet;
#X obj 90 29 > 2;
#X connect 0 0 1 0;
#X connect 1 0 3 0;
#X connect 2 0 4 0;
#X connect 4 0 1 1;
#X restore 146 258 pd pass;
#N canvas 536 255 450 300 pass 0;
#X obj 51 9 inlet;
#X obj 51 54 spigot, f 7;
#X obj 90 9 inlet;
#X obj 51 76 outlet;
#X obj 90 29 > 1;
#X connect 0 0 1 0;
#X connect 1 0 3 0;
#X connect 2 0 4 0;
#X connect 4 0 1 1;
#X restore 118 215 pd pass;
#X obj 63 189 unpack f f f f f, f 19;
#N canvas 536 255 450 300 pass 0;
#X obj 51 9 inlet;
#X obj 51 54 spigot, f 7;
#X obj 90 9 inlet;
#X obj 51 76 outlet;
#X obj 90 29 > 4;
#X connect 0 0 1 0;
#X connect 1 0 3 0;
#X connect 2 0 4 0;
#X connect 4 0 1 1;
#X restore 63 215 pd pass;
#X obj 29 6 inlet;
#X obj 248 204 > 5;
#X obj 248 226 sel 1;
#X msg 248 248 warning extra colors arguments;
#X obj 29 95 list split 1;
#X obj 29 27 symbol colors;
#X obj 63 237 s \$0-c0;
#X obj 90 280 s \$0-c1;
#X obj 118 237 s \$0-c2;
#X obj 146 280 s \$0-c3;
#X obj 174 236 s \$0-c4;
#X obj 29 51 text search \$6;
#X obj 29 73 text get \$6;
#X obj 248 272 print hoa.2d.meter~;
#X connect 0 0 6 0;
#X connect 0 1 1 0;
#X connect 1 0 7 1;
#X connect 1 0 2 1;
#X connect 1 0 5 1;
#X connect 1 0 4 1;
#X connect 1 0 3 1;
#X connect 1 0 9 0;
#X connect 2 0 15 0;
#X connect 3 0 18 0;
#X connect 4 0 17 0;
#X connect 5 0 16 0;
#X connect 6 0 7 0;
#X connect 6 1 2 0;
#X connect 6 2 5 0;
#X connect 6 3 4 0;
#X connect 6 4 3 0;
#X connect 7 0 14 0;
#X connect 8 0 13 0;
#X connect 9 0 10 0;
#X connect 10 0 11 0;
#X connect 11 0 21 0;
#X connect 12 1 0 0;
#X connect 13 0 19 0;
#X connect 19 0 20 0;
#X connect 20 0 12 0;
#X restore 176 315 pd get.colors;
#X obj 37 111 t b b, f 8;
#N canvas 722 345 450 300 resize.buffer 0;
#X msg 19 69 resize \$1;
#X obj 19 25 inlet;
#X obj 19 47 f \$3;
#X obj 19 92 array define \$5-buffer-\$4;
#X connect 0 0 3 0;
#X connect 1 0 2 0;
#X connect 2 0 0 0;
#X restore 82 134 pd resize.buffer;
#N canvas 663 140 555 431 get.sizes 0;
#X obj 29 6 inlet;
#X obj 198 198 sel 1;
#X obj 63 126 unpack;
#X obj 63 148 swap, f 6;
#X obj 63 170 -, f 6;
#X obj 63 235 +;
#X obj 113 235 +;
#X obj 113 212 * 2;
#X obj 63 193 / 3;
#X obj 198 153 list length;
#X obj 198 176 != 2;
#X msg 198 220 warning size needs a minimum and a maximum;
#X obj 29 101 list split 1;
#X obj 109 169 s \$0-s1;
#X obj 9 169 s \$0-s4;
#X obj 63 257 s \$0-s2;
#X obj 113 257 s \$0-s3;
#X obj 29 27 symbol sizes;
#X obj 29 50 text search \$6;
#X obj 29 73 text get \$6;
#X obj 198 244 print hoa.2d.meter~;
#X connect 0 0 17 0;
#X connect 1 0 11 0;
#X connect 2 0 3 0;
#X connect 2 1 3 1;
#X connect 3 0 4 0;
#X connect 3 0 14 0;
#X connect 3 1 4 1;
#X connect 3 1 5 1;
#X connect 3 1 6 1;
#X connect 3 1 13 0;
#X connect 4 0 8 0;
#X connect 5 0 15 0;
#X connect 6 0 16 0;
#X connect 7 0 6 0;
#X connect 8 0 5 0;
#X connect 8 0 7 0;
#X connect 9 0 10 0;
#X connect 10 0 1 0;
#X connect 11 0 20 0;
#X connect 12 1 9 0;
#X connect 12 1 2 0;
#X connect 17 0 18 0;
#X connect 18 0 19 0;
#X connect 19 0 12 0;
#X restore 316 314 pd get.sizes;
#X obj 37 24 t b b, f 8;
#X obj 37 155 t b b, f 8;
#X obj 37 219 spigot 0;
#X obj 82 198 != 0;
#X obj 37 286 t b b b, f 47;
#X obj 82 45 f \$4;
#X obj 82 176 f \$3;
#X connect 1 0 9 0;
#X connect 2 0 13 0;
#X connect 3 0 6 0;
#X connect 4 0 3 1;
#X connect 6 0 10 0;
#X connect 6 1 7 0;
#X connect 9 0 3 0;
#X connect 9 1 14 0;
#X connect 10 0 11 0;
#X connect 10 1 15 0;
#X connect 11 0 2 0;
#X connect 12 0 11 1;
#X connect 13 0 0 0;
#X connect 13 1 5 0;
#X connect 13 2 8 0;
#X connect 14 0 4 0;
#X connect 15 0 12 0;
#X restore 69 69 pd filter.cell;
#N canvas 0 22 450 300 clearer 0;
#X msg 23 81 \; pd-\$1 clear;
#X obj 23 35 inlet;
#X obj 23 57 symbol \$5, f 11;
#X connect 1 0 2 0;
#X connect 2 0 0 0;
#X restore 240 122 pd clearer;
#X obj 69 99 t b b b, f 29;
#X obj 69 121 f 0;
#N canvas 245 372 450 300 get.ptr 0;
#X obj 4 72 pointer;
#X msg 4 48 traverse pd-\$1 \, bang;
#X obj 4 3 inlet;
#X obj 4 94 outlet;
#X obj 4 23 symbol \$5;
#X connect 0 0 3 0;
#X connect 1 0 0 0;
#X connect 2 0 4 0;
#X connect 4 0 1 0;
#X restore 154 122 pd get.ptr;
#X obj 69 143 append \$0-t-meter x;
#X obj 69 165 t b p;
#N canvas 258 187 763 666 resize.ls 0;
#X obj 73 25 inlet;
#X obj 73 115 t f f;
#N canvas 0 22 450 300 counter 0;
#X obj 35 17 inlet;
#X obj 35 39 t f b, f 7;
#X obj 35 61 until;
#X obj 74 61 f 0;
#X obj 35 83 f, f 7;
#X obj 85 83 + 1;
#X obj 35 105 outlet;
#X connect 0 0 1 0;
#X connect 1 0 2 0;
#X connect 1 1 3 0;
#X connect 2 0 4 0;
#X connect 3 0 4 1;
#X connect 4 0 5 0;
#X connect 4 0 6 0;
#X connect 5 0 4 1;
#X restore 73 208 pd counter;
#X obj 73 230 t f f, f 38;
#X obj 154 68 outlet;
#X obj 73 45 t b p, f 21;
#X obj 100 138 setsize \$0-t-meter ls, f 17;
#X obj 298 258 element \$0-t-meter ls;
#X obj 383 416 r \$0-c3;
#X obj 418 437 r \$0-c4;
#X obj 314 416 r \$0-c1;
#X obj 349 437 r \$0-c2;
#X obj 280 437 r \$0-c0;
#X obj 176 416 r \$0-s2;
#X obj 211 437 r \$0-s3;
#X obj 245 416 r \$0-s4;
#X obj 142 437 r \$0-s1;
#X obj 73 177 t f b, f 19;
#X obj 73 302 list split;
#X obj 73 252 t b f, f 10;
#X obj 73 274 list;
#X obj 73 487 set \$0-t-meter-value x1 y1 s1 s2 s3 s4 c0 c1 c2 c3 c4
v1 v2 v3 v4, f 38;
#X obj 73 461 pack f f 8 16 24 32 555 90 990 950 900 0 0 0 0, f 81
;
#X obj 73 67 f \$3;
#N canvas 432 65 584 342 get.angles 0;
#X obj 12 3 inlet;
#X obj 12 116 list split 1;
#X obj 46 147 outlet;
#X obj 12 72 text search \$6;
#X obj 12 94 text get \$6;
#X obj 12 48 symbol angles;
#X connect 0 0 5 0;
#X connect 1 1 2 0;
#X connect 3 0 4 0;
#X connect 4 0 1 0;
#X connect 5 0 3 0;
#X restore 184 207 pd get.angles;
#X obj 73 324 unpack f;
#X obj 73 390 t f f, f 6;
#X obj 107 412 cos;
#X obj 73 412 sin;
#X obj 107 434 * 0.7;
#X obj 73 434 * 0.7;
#X obj 73 347 / 180;
#X obj 73 369 * -3.14159;
#X connect 0 0 5 0;
#X connect 1 0 17 0;
#X connect 1 1 6 0;
#X connect 2 0 3 0;
#X connect 3 0 19 0;
#X connect 3 1 7 0;
#X connect 5 0 23 0;
#X connect 5 1 4 0;
#X connect 5 1 6 1;
#X connect 5 1 7 1;
#X connect 7 0 21 15;
#X connect 8 0 22 9;
#X connect 9 0 22 10;
#X connect 10 0 22 7;
#X connect 11 0 22 8;
#X connect 12 0 22 6;
#X connect 13 0 22 3;
#X connect 14 0 22 4;
#X connect 15 0 22 5;
#X connect 16 0 22 2;
#X connect 17 0 2 0;
#X connect 17 1 24 0;
#X connect 18 1 25 0;
#X connect 19 0 20 0;
#X connect 19 1 18 1;
#X connect 20 0 18 0;
#X connect 22 0 21 0;
#X connect 23 0 1 0;
#X connect 24 0 20 1;
#X connect 25 0 31 0;
#X connect 26 0 28 0;
#X connect 26 1 27 0;
#X connect 27 0 29 0;
#X connect 28 0 30 0;
#X connect 29 0 22 1;
#X connect 30 0 22 0;
#X connect 31 0 32 0;
#X connect 32 0 26 0;
#X restore 96 188 pd resize.ls;
#N canvas 263 228 389 338 split_y 0;
#X obj 13 180 spigot, f 8;
#X obj 70 180 spigot;
#X obj 13 13 inlet;
#X obj 13 202 outlet;
#X obj 70 202 outlet;
#X obj 103 103 loadbang;
#X obj 103 147 != 0;
#X obj 113 13 inlet;
#X obj 13 35 t b f, f 10;
#X obj 103 125 f \$3;
#X connect 0 0 3 0;
#X connect 1 0 4 0;
#X connect 2 0 8 0;
#X connect 5 0 9 0;
#X connect 6 0 1 1;
#X connect 7 0 0 1;
#X connect 8 0 0 0;
#X connect 8 1 1 0;
#X connect 9 0 6 0;
#X restore 12 213 pd split_y;
#N canvas 0 22 265 152 others 0;
#X obj 35 28 inlet;
#X obj 35 50 t f b, f 11;
#X obj 98 74 f \$4;
#X obj 35 96 array set \$5-buffer-0, f 22;
#X connect 0 0 1 0;
#X connect 1 0 3 0;
#X connect 1 1 2 0;
#X connect 2 0 3 1;
#X restore 69 237 pd others;
#X obj 69 187 f 1;
#X obj 12 429 pack f f f f;
#X obj 201 421 element \$0-t-meter ls;
#N canvas 0 22 450 300 counter 0;
#X obj 35 17 inlet;
#X obj 35 39 t f b, f 7;
#X obj 35 61 until;
#X obj 74 61 f 0;
#X obj 35 83 f, f 7;
#X obj 85 83 + 1;
#X obj 35 105 outlet;
#X connect 0 0 1 0;
#X connect 1 0 2 0;
#X connect 1 1 3 0;
#X connect 2 0 4 0;
#X connect 3 0 4 1;
#X connect 4 0 5 0;
#X connect 4 0 6 0;
#X connect 5 0 4 1;
#X restore 12 260 pd counter;
#X obj 76 304 loadbang;
#X obj 76 326 f 1;
#X obj 12 282 t f f, f 32;
#X obj 12 450 set \$0-t-meter-value v4 v3 v2 v1;
#N canvas 88 457 450 300 \$0-t-meter 0;
#X obj 27 18 struct \$0-t-meter float x array ls \$0-t-meter-value
;
#X obj 27 39 plot ls 0 0 0 0 0;
#X restore 476 10 pd \$0-t-meter;
#N canvas 276 145 450 300 \$0-t-meter-value 0;
#X obj 9 17 struct \$0-t-meter-value float x1 float y1 float s1 float
s2 float s3 float s4 float c0 float c1 float c2 float c3 float c4 float
v1 float v2 float v3 float v4, f 35;
#X obj 9 95 filledpolygon c0 c0 s1 x1 y1 x1 y1;
#X obj 8 179 filledpolygon -v v4 c4 c4 s4 x1 y1 x1 y1;
#X obj 8 157 filledpolygon -v v3 c3 c3 s3 x1 y1 x1 y1;
#X obj 8 137 filledpolygon -v v2 c2 c2 s2 x1 y1 x1 y1;
#X obj 8 116 filledpolygon -v v1 c1 c1 s1 x1 y1 x1 y1;
#X restore 477 30 pd \$0-t-meter-value;
#X obj 12 346 array get \$5-buffer-0, f 22;
#X obj 12 235 f \$3;
#X obj 12 16 hoa.in~;
#X connect 0 0 16 0;
#X connect 1 0 2 0;
#X connect 1 1 3 0;
#X connect 1 2 4 0;
#X connect 1 3 5 0;
#X connect 2 0 19 0;
#X connect 3 0 19 1;
#X connect 4 0 19 2;
#X connect 5 0 19 3;
#X connect 6 0 0 0;
#X connect 7 0 6 1;
#X connect 8 0 10 0;
#X connect 10 0 11 0;
#X connect 10 1 12 0;
#X connect 10 2 9 0;
#X connect 11 0 13 0;
#X connect 12 0 13 1;
#X connect 13 0 14 0;
#X connect 14 0 18 0;
#X connect 14 1 15 0;
#X connect 15 0 20 1;
#X connect 16 0 29 0;
#X connect 16 1 17 0;
#X connect 18 0 16 1;
#X connect 19 0 25 0;
#X connect 20 0 25 4;
#X connect 21 0 24 0;
#X connect 22 0 23 0;
#X connect 23 0 28 1;
#X connect 24 0 28 0;
#X connect 24 1 20 0;
#X connect 28 0 1 0;
#X connect 29 0 21 0;
#X connect 30 0 6 0;
