#N canvas 716 156 456 343 10;
#X obj 15 138 c.prepend set;
#X obj 126 138 c.prepend set;
#X msg 15 165 1 0 0;
#X obj 286 15 hoa.in extra 1;
#X text 143 116 Hoa mode output;
#X text 20 116 Hoa args output;
#X obj 15 10 c.loadmess;
#X msg 126 165 3d harmonics;
#X obj 15 91 hoa.thisprocess~, f 56;
#X obj 15 194 hoa.process.display.args;
#X connect 0 0 2 0;
#X connect 1 0 7 0;
#X connect 6 0 8 0;
#X connect 8 0 0 0;
#X connect 8 1 1 0;
