#N canvas 552 301 648 312 10;
#X obj 45 1 cnv 15 354 40 empty \$0-hoa.header Spherical_harmonics
3 12 0 18 -212212 -1 0;
#X obj 3 3 c.blackboard @size 40 37 @fontname Helvetica @fontweight
normal @fontslant roman @fontsize 11 @receive (null) @send (null) @chalkmode
0 @bgcolor 0.802322 0.802322 0.802322 1 @bdcolor 0.802322 0.802322
0.802322 1;
#X msg 25 131 clear \, image 2 1 logo.gif;
#X msg 229 77 1;
#X obj 220 149 f 0;
#X obj 252 152 + 1;
#X obj 220 113 metro 100;
#X obj 212 186 <= 1000;
#X obj 215 222 sel 1;
#X msg 228 256 0;
#X obj 232 47 loadbang;
#X connect 2 0 1 0;
#X connect 3 0 6 0;
#X connect 4 0 5 0;
#X connect 4 0 7 0;
#X connect 5 0 4 1;
#X connect 6 0 4 0;
#X connect 6 0 2 0;
#X connect 7 0 8 0;
#X connect 8 0 9 0;
#X connect 9 0 6 0;
#X connect 10 0 3 0;
#X coords 0 -1 1 1 400 42 2 0 0;
