#N canvas 410 84 806 473 10;
#X obj 103 199 c.prepend 0;
#X obj 103 37 hoa.thisprocess~;
#X obj 103 8 loadbang;
#X obj 134 170 c.prepend set;
#X obj 134 60 unpack s s, f 16;
#X obj 168 130 f 1;
#X obj 134 156 +;
#X obj 225 130 f 0;
#X obj 134 130 f 0;
#X obj 103 403 c.blackboard @size 295 57 @fontname Helvetica @fontweight
normal @fontslant roman @fontsize 11 @receive (null) @send (null) @chalkmode
1 @bgcolor 0.75 0.75 0.75 1 @bdcolor 0.5 0.5 0.5 1;
#X msg 103 257 clear \, text 10 10 This patcher is used in the circular
harmonics domain. \, text 10 20 The order of decompostion is \$1. \,
text 10 30 The degree is \$2. \, text 10 40 The order is \$3., f 90
;
#X msg 170 297 clear \, text 10 10 This patcher is used in the spherical
harmonics domain. \, text 10 20 The order of decompostion is \$1. \,
text 10 30 The degree is \$2. \, text 10 40 The order is \$3., f 90
;
#X obj 295 130 f 2;
#X obj 134 82 sel 2d 3d, f 12;
#X obj 225 82 sel harmonics planewaves;
#X obj 103 225 route 0 1 2 3, f 45;
#X msg 237 337 clear \, text 10 10 This patcher is used in the 2D plane
waves domain. \, text 10 20 The number of planewaves is \$1. \, text
10 30 The index of the planewave is \$2., f 83;
#X msg 237 368 clear \, text 10 10 This patcher is used in the 3D plane
waves domain. \, text 10 20 The number of planewaves is \$1. \, text
10 30 The index of the planewave is \$2., f 83;
#X connect 0 0 15 0;
#X connect 1 0 0 0;
#X connect 1 1 4 0;
#X connect 2 0 1 0;
#X connect 3 0 0 0;
#X connect 4 0 13 0;
#X connect 4 1 14 0;
#X connect 5 0 6 0;
#X connect 6 0 3 0;
#X connect 7 0 6 1;
#X connect 8 0 6 0;
#X connect 10 0 9 0;
#X connect 11 0 9 0;
#X connect 12 0 6 1;
#X connect 13 0 8 0;
#X connect 13 1 5 0;
#X connect 14 0 7 0;
#X connect 14 1 12 0;
#X connect 15 0 10 0;
#X connect 15 1 11 0;
#X connect 15 2 16 0;
#X connect 15 3 17 0;
#X connect 16 0 9 0;
#X connect 17 0 9 0;
#X coords 0 -1 1 1 300 62 1 100 400;
