#N canvas 673 107 774 595 10;
#X obj 453 196 hoa.in~ extra 1;
#X obj 271 539 hoa.out~;
#X obj 441 35 hoa.thisprocess~;
#X obj 441 59 unpack, f 13;
#X obj 261 107 s~ h\$0;
#N canvas 121 324 450 300 sin~ 0;
#X obj 183 41 inlet~;
#X obj 183 128 cos~;
#X obj 183 175 outlet~;
#X obj 183 108 +~;
#X obj 198 67 c.loadmess -0.25;
#X connect 0 0 3 0;
#X connect 1 0 2 0;
#X connect 3 0 1 0;
#X connect 4 0 3 1;
#X restore 493 338 pd sin~;
#X obj 453 338 cos~;
#X obj 453 306 *~, f 11;
#X obj 336 114 < 0;
#X obj 336 275 c.prepend set;
#X obj 376 202 f;
#X obj 351 160 c.loadmess \$0;
#X obj 336 202 f;
#X obj 336 251 makefilename h%d;
#X obj 336 135 sel 1, f 6;
#X obj 376 114 > 0;
#X obj 376 135 sel 1, f 6;
#X obj 271 369 *~;
#X obj 336 370 *~;
#X obj 271 421 +~;
#X obj 321 421 -~;
#X obj 271 504 *~;
#X obj 321 504 *~;
#X obj 261 62 hoa.in~;
#X obj 271 308 r~ h\$0;
#X obj 336 225 + 1;
#X obj 376 225 - 1;
#X obj 336 308 r~ dummy\$0;
#X obj 179 62 s~ dummy\$0;
#X obj 441 116 ==;
#X obj 441 135 sel 1;
#X obj 441 10 c.loadmess;
#X obj 336 90 f;
#X obj 441 159 s hrloaded;
#X obj 336 64 r hrloaded;
#X obj 361 408 hoa.thisprocess~;
#X obj 361 432 unpack;
#X obj 361 383 c.loadmess;
#X obj 286 476 >= 0;
#X obj 336 476 < 0;
#X obj 468 250 hoa.pi 2;
#X obj 453 277 /~;
#X obj 468 222 c.loadmess;
#X connect 0 0 41 0;
#X connect 2 0 3 0;
#X connect 3 0 29 0;
#X connect 3 1 29 1;
#X connect 3 1 32 1;
#X connect 3 1 7 1;
#X connect 5 0 18 1;
#X connect 6 0 17 1;
#X connect 7 0 6 0;
#X connect 7 0 5 0;
#X connect 8 0 14 0;
#X connect 9 0 27 0;
#X connect 10 0 26 0;
#X connect 11 0 12 1;
#X connect 11 0 10 1;
#X connect 12 0 25 0;
#X connect 13 0 9 0;
#X connect 14 0 12 0;
#X connect 15 0 16 0;
#X connect 16 0 10 0;
#X connect 17 0 19 0;
#X connect 17 0 20 0;
#X connect 18 0 19 1;
#X connect 18 0 20 1;
#X connect 19 0 21 0;
#X connect 20 0 22 0;
#X connect 21 0 1 0;
#X connect 22 0 1 0;
#X connect 23 0 4 0;
#X connect 24 0 17 0;
#X connect 25 0 13 0;
#X connect 26 0 13 0;
#X connect 27 0 18 0;
#X connect 29 0 30 0;
#X connect 30 0 33 0;
#X connect 31 0 2 0;
#X connect 32 0 8 0;
#X connect 32 0 15 0;
#X connect 34 0 32 0;
#X connect 35 0 36 0;
#X connect 36 1 38 0;
#X connect 36 1 39 0;
#X connect 37 0 35 0;
#X connect 38 0 21 1;
#X connect 39 0 22 1;
#X connect 40 0 41 1;
#X connect 41 0 7 0;
#X connect 42 0 40 0;
