#N canvas 65 219 612 383 10;
#X obj 94 321 hoa.out~;
#X obj 12 5 c.loadmess;
#X text 68 213 Receive the signal;
#X text 70 343 Output the signal;
#X obj 94 279 *~;
#X obj 205 239 line~;
#X msg 205 217 \$1 20;
#X obj 94 235 hoa.in~ extra 1;
#X obj 12 52 hoa.thisprocess~;
#N canvas 0 50 450 300 print.domain.error 0;
#X obj 6 54 hoa.mode.sel;
#X obj 6 133 sel 0;
#X obj 7 214 print hoa.syn.encoder~;
#X msg 7 163 only valid in the circular harmonics domain.;
#X obj 6 24 inlet;
#X connect 0 0 1 0;
#X connect 1 1 3 0;
#X connect 3 0 2 0;
#X connect 4 0 0 0;
#X restore 43 88 pd print.domain.error;
#X text 239 15 This hoa.processing shows what performs the encoding
of a signal in the circular harmonics domain.;
#X obj 205 111 hoa.in extra 2;
#X obj 12 110 unpack 0 0 0;
#N canvas 821 80 450 300 exp_img 0;
#X obj 139 109 spigot;
#X obj 216 109 spigot;
#X obj 172 82 >= 0;
#X obj 139 181 *;
#X obj 179 245 outlet;
#X obj 154 161 abs;
#X obj 139 203 cos;
#X obj 249 82 < 0;
#X obj 216 181 *;
#X obj 231 161 abs;
#X obj 216 203 sin;
#X obj 186 9 inlet;
#X text 12 196 e^i|m|θ = cos(|m|θ);
#X text 252 186 else if m < 0;
#X text 262 196 e^i|m|θ = sin(|m|θ);
#X text 2 186 if m >= 0, f 10;
#X obj 249 61 r \$0-order;
#X obj 231 141 r \$0-order;
#X obj 154 141 r \$0-order;
#X obj 172 61 r \$0-order;
#X connect 0 0 3 0;
#X connect 1 0 8 0;
#X connect 2 0 0 1;
#X connect 3 0 6 0;
#X connect 5 0 3 1;
#X connect 6 0 4 0;
#X connect 7 0 1 1;
#X connect 8 0 10 0;
#X connect 9 0 8 1;
#X connect 10 0 4 0;
#X connect 11 0 1 0;
#X connect 11 0 0 0;
#X connect 16 0 7 0;
#X connect 17 0 9 0;
#X connect 18 0 5 0;
#X connect 19 0 2 0;
#X restore 205 186 pd exp_img;
#X text 210 169 e^i|m|θ;
#X obj 46 162 s \$0-degree;
#X obj 81 139 s \$0-order;
#X text 118 163 l;
#X text 148 140 m;
#X text 193 81 Extra 2 Receive the azimuth (in radian).;
#X obj 167 136 f 0;
#X obj 167 113 bang;
#X connect 1 0 8 0;
#X connect 4 0 0 0;
#X connect 5 0 4 1;
#X connect 6 0 5 0;
#X connect 7 0 4 0;
#X connect 8 0 12 0;
#X connect 8 1 9 0;
#X connect 8 3 21 0;
#X connect 11 0 13 0;
#X connect 12 1 15 0;
#X connect 12 2 16 0;
#X connect 13 0 6 0;
#X connect 20 0 13 0;
#X connect 21 0 20 0;
