#N canvas 314 82 771 461 10;
#X obj 88 414 hoa.out~;
#X obj 6 8 c.loadmess;
#X text 62 306 Receive the signal;
#X text 64 436 Output the signal;
#X text 318 109 Input messages selector;
#X obj 43 78 hoa.mode.sel;
#X obj 6 104 hoa.args.map;
#X obj 88 372 *~;
#X obj 189 354 osc~ 1;
#X obj 189 332 line~;
#X msg 189 310 \$1 20;
#X obj 75 128 + 1;
#X obj 75 163 / 1;
#X text 317 64 Extra 1 Receive the inlet messages.;
#X text 240 354 Simple ring modulation;
#X obj 235 214 list split;
#X obj 263 238 unpack;
#X obj 189 229 *;
#X text 78 213 factor;
#X text 74 203 instance;
#X obj 75 183 nbx 5 14 -1e+37 1e+37 0 0 empty empty empty 0 -8 0 10
-262144 -1 -1 0 256;
#X text 324 226 float : The value \, that control the frequency of
the ring modulation \, is multiplied by a factor depending on the intance.
The factor is 1 for the highest harmonic and decreases toward 0 for
the lower harmonics.;
#X obj 282 137 sel done;
#X obj 88 328 hoa.in~ extra 1;
#X obj 6 55 hoa.thisprocess~ 20;
#X obj 189 110 route float list;
#X obj 188 79 f 20;
#X text 17 34 Default arguments;
#X text 327 167 list : The item corresponding to the instance is selected
and control the frequency of the ring modulation (mostly used in the
plane waves domain).;
#X text 233 18 This hoa.processing synthesizes a sound field with ring
modulation.;
#X obj 256 310 random 1000;
#X obj 256 286 c.loadmess;
#X obj 256 333 / 1000;
#X obj 224 64 hoa.in extra 2;
#X connect 1 0 24 0;
#X connect 5 0 6 1;
#X connect 6 0 12 1;
#X connect 6 1 11 0;
#X connect 6 1 15 1;
#X connect 7 0 0 0;
#X connect 8 0 7 1;
#X connect 9 0 8 0;
#X connect 10 0 9 0;
#X connect 11 0 12 0;
#X connect 12 0 17 1;
#X connect 12 0 20 0;
#X connect 15 1 16 0;
#X connect 16 0 10 0;
#X connect 17 0 10 0;
#X connect 22 0 26 0;
#X connect 23 0 7 0;
#X connect 24 0 6 0;
#X connect 24 1 5 0;
#X connect 24 2 26 0;
#X connect 24 3 25 0;
#X connect 25 0 17 0;
#X connect 25 1 15 0;
#X connect 25 2 22 0;
#X connect 26 0 25 0;
#X connect 30 0 32 0;
#X connect 31 0 30 0;
#X connect 32 0 8 1;
#X connect 33 0 25 0;
