#N canvas 302 187 833 474 10;
#X obj 218 426 c.canvasmess;
#X obj 218 210 until;
#X obj 218 287 * 20;
#X obj 249 238 + 1;
#X obj 218 238 f 0;
#X obj 257 288 + 1;
#X obj 218 20 c.loadmess;
#X obj 218 65 unpack f f f, f 13;
#X obj 337 322 makefilename \$0-%d;
#X obj 218 189 f;
#X obj 544 382 send, f 5;
#X obj 544 291 /;
#X obj 631 339 makefilename \$0-%d;
#X obj 544 214 t f f, f 15;
#X obj 571 338 hoa.pi 2;
#X obj 544 359 *, f 5;
#X obj 544 314 t f b;
#X obj 544 160 until;
#X obj 575 188 + 1;
#X obj 544 188 f 0;
#X obj 544 132 f;
#X obj 218 262 t f f, f 6;
#X obj 631 318 + 1;
#X obj 218 350 pack f f f s f, f 27;
#X obj 377 214 + 1;
#X obj 377 242 t b f;
#X obj 377 264 f 1;
#X obj 377 286 /, f 5;
#X obj 412 35 hoa.in;
#X msg 218 396 obj 0 \$1 hoa.pw.2d.dec~ \$2 \$3 \$4 \$5;
#X obj 412 77 route done angles;
#X obj 218 40 hoa.thisprocess~ -1 @angles;
#X obj 233 167 r \$0-nls;
#X obj 559 109 r \$0-nls;
#X obj 559 268 r \$0-nls;
#X obj 218 97 t b f f;
#N canvas 0 22 450 300 nls 0;
#X obj 95 142 f;
#X obj 95 175 s \$0-nls;
#X obj 77 49 == -1;
#X obj 110 14 inlet;
#X obj 28 14 inlet;
#X obj 28 42 t b f;
#X obj 55 93 * 2;
#X obj 55 116 + 2;
#X obj 55 72 spigot;
#X connect 0 0 1 0;
#X connect 2 0 8 1;
#X connect 3 0 0 1;
#X connect 3 0 2 0;
#X connect 4 0 5 0;
#X connect 5 0 0 0;
#X connect 5 1 8 0;
#X connect 6 0 7 0;
#X connect 7 0 0 1;
#X connect 8 0 6 0;
#X restore 257 125 pd nls;
#X connect 1 0 4 0;
#X connect 2 0 23 0;
#X connect 3 0 4 1;
#X connect 4 0 3 0;
#X connect 4 0 21 0;
#X connect 5 0 8 0;
#X connect 5 0 23 1;
#X connect 6 0 31 0;
#X connect 7 0 35 0;
#X connect 7 2 23 2;
#X connect 8 0 23 3;
#X connect 9 0 1 0;
#X connect 11 0 16 0;
#X connect 12 0 10 1;
#X connect 13 0 11 0;
#X connect 13 1 22 0;
#X connect 14 0 15 1;
#X connect 15 0 10 0;
#X connect 16 0 15 0;
#X connect 16 1 14 0;
#X connect 17 0 19 0;
#X connect 18 0 19 1;
#X connect 19 0 18 0;
#X connect 19 0 13 0;
#X connect 20 0 17 0;
#X connect 21 0 2 0;
#X connect 21 1 5 0;
#X connect 22 0 12 0;
#X connect 23 0 29 0;
#X connect 24 0 25 0;
#X connect 25 0 26 0;
#X connect 25 1 27 1;
#X connect 26 0 27 0;
#X connect 27 0 23 4;
#X connect 28 0 30 0;
#X connect 29 0 0 0;
#X connect 30 1 20 0;
#X connect 31 0 7 0;
#X connect 31 2 36 1;
#X connect 31 3 30 0;
#X connect 32 0 9 1;
#X connect 33 0 20 1;
#X connect 34 0 11 1;
#X connect 35 0 9 0;
#X connect 35 1 24 0;
#X connect 35 2 36 0;
