#N canvas 65 209 737 482 10;
#X obj 109 44 c.loadmess;
#X obj 182 247 *~ 1;
#X obj 181 221 hoa.in~;
#X obj 181 271 hoa.out~;
#X obj 237 90 hoa.in extra 1;
#X text 326 90 Optimization type.;
#X text 45 221 signal of the harmonic;
#X text 21 271 new signal of the harmonic;
#X text 384 174 Algorithms of optimization.;
#N canvas 877 270 450 300 maxRe 0;
#X obj 74 275 outlet;
#X obj 89 210 cos;
#X obj 120 161 abs;
#X obj 75 97 hoa.pi 1;
#X obj 75 161 /;
#X obj 63 75 t b f;
#X obj 89 186 *;
#X obj 63 53 unpack 0 0;
#X obj 90 118 * 2;
#X obj 90 139 + 2;
#X obj 74 253 f;
#X obj 74 232 inlet;
#X obj 63 9 c.loadmess;
#X obj 63 31 hoa.thisprocess~;
#X connect 1 0 10 1;
#X connect 2 0 6 1;
#X connect 3 0 4 0;
#X connect 4 0 6 0;
#X connect 5 0 3 0;
#X connect 5 1 8 0;
#X connect 6 0 1 0;
#X connect 7 0 5 0;
#X connect 7 1 2 0;
#X connect 8 0 9 0;
#X connect 9 0 4 1;
#X connect 10 0 0 0;
#X connect 11 0 10 0;
#X connect 12 0 13 0;
#X connect 13 0 7 0;
#X restore 260 173 pd maxRe;
#N canvas 393 312 441 394 inPhase 0;
#X obj 82 346 outlet;
#N canvas 406 448 450 300 ! 0;
#X obj 47 8 inlet;
#X obj 59 206 outlet;
#X obj 47 78 until;
#X obj 47 99 f;
#X obj 47 120 + 1;
#X obj 47 140 t f f;
#X obj 98 125 mod 10;
#X obj 47 50 t f f;
#X obj 150 110 sel 0;
#X obj 111 161 f;
#X obj 59 185 f;
#X obj 74 162 * 1;
#X msg 150 132 1;
#X obj 47 29 max 1;
#X connect 0 0 13 0;
#X connect 2 0 3 0;
#X connect 3 0 4 0;
#X connect 4 0 5 0;
#X connect 5 0 6 0;
#X connect 5 1 11 0;
#X connect 6 0 3 1;
#X connect 6 0 8 0;
#X connect 7 0 2 0;
#X connect 7 1 6 1;
#X connect 8 0 2 1;
#X connect 8 0 12 0;
#X connect 8 0 10 0;
#X connect 9 0 11 1;
#X connect 10 0 1 0;
#X connect 11 0 9 0;
#X connect 11 0 10 1;
#X connect 12 0 9 0;
#X connect 13 0 7 0;
#X restore 93 96 pd !;
#X obj 127 204 +;
#X obj 112 160 -;
#X obj 93 72 t f f f;
#X obj 93 118 t f f;
#X obj 97 141 *;
#X obj 97 269 /;
#X obj 177 289 spigot 0;
#X obj 97 291 spigot 0;
#X obj 222 266 == 0;
#X obj 142 268 != 0;
#X obj 195 245 t b f;
#X msg 177 268 1;
#X obj 93 48 unpack 0 0;
#X obj 112 247 *;
#N canvas 406 448 450 300 ! 0;
#X obj 47 8 inlet;
#X obj 59 206 outlet;
#X obj 47 78 until;
#X obj 47 99 f;
#X obj 47 120 + 1;
#X obj 47 140 t f f;
#X obj 98 125 mod 10;
#X obj 47 50 t f f;
#X obj 150 110 sel 0;
#X obj 111 161 f;
#X obj 59 185 f;
#X obj 74 162 * 1;
#X msg 150 132 1;
#X obj 47 29 max 1;
#X connect 0 0 13 0;
#X connect 2 0 3 0;
#X connect 3 0 4 0;
#X connect 4 0 5 0;
#X connect 5 0 6 0;
#X connect 5 1 11 0;
#X connect 6 0 3 1;
#X connect 6 0 8 0;
#X connect 7 0 2 0;
#X connect 7 1 6 1;
#X connect 8 0 2 1;
#X connect 8 0 12 0;
#X connect 8 0 10 0;
#X connect 9 0 11 1;
#X connect 10 0 1 0;
#X connect 11 0 9 0;
#X connect 11 0 10 1;
#X connect 12 0 9 0;
#X connect 13 0 7 0;
#X restore 127 225 pd !;
#N canvas 406 448 450 300 ! 0;
#X obj 47 8 inlet;
#X obj 59 206 outlet;
#X obj 47 78 until;
#X obj 47 99 f;
#X obj 47 120 + 1;
#X obj 47 140 t f f;
#X obj 98 125 mod 10;
#X obj 47 50 t f f;
#X obj 150 110 sel 0;
#X obj 111 161 f;
#X obj 59 185 f;
#X obj 74 162 * 1;
#X msg 150 132 1;
#X obj 47 29 max 1;
#X connect 0 0 13 0;
#X connect 2 0 3 0;
#X connect 3 0 4 0;
#X connect 4 0 5 0;
#X connect 5 0 6 0;
#X connect 5 1 11 0;
#X connect 6 0 3 1;
#X connect 6 0 8 0;
#X connect 7 0 2 0;
#X connect 7 1 6 1;
#X connect 8 0 2 1;
#X connect 8 0 12 0;
#X connect 8 0 10 0;
#X connect 9 0 11 1;
#X connect 10 0 1 0;
#X connect 11 0 9 0;
#X connect 11 0 10 1;
#X connect 12 0 9 0;
#X connect 13 0 7 0;
#X restore 112 182 pd !;
#X obj 82 223 inlet;
#X obj 82 325 f;
#X obj 93 5 c.loadmess;
#X obj 93 27 hoa.thisprocess~ inPhase;
#X connect 1 0 5 0;
#X connect 2 0 16 0;
#X connect 3 0 17 0;
#X connect 4 0 1 0;
#X connect 4 1 3 0;
#X connect 4 2 2 0;
#X connect 5 0 6 0;
#X connect 5 1 6 1;
#X connect 6 0 7 0;
#X connect 7 0 9 0;
#X connect 8 0 19 1;
#X connect 9 0 19 1;
#X connect 10 0 8 1;
#X connect 11 0 9 1;
#X connect 12 0 13 0;
#X connect 12 1 10 0;
#X connect 13 0 8 0;
#X connect 14 0 4 0;
#X connect 14 1 3 1;
#X connect 14 1 2 1;
#X connect 14 1 11 0;
#X connect 14 1 12 0;
#X connect 15 0 7 1;
#X connect 16 0 15 1;
#X connect 17 0 15 0;
#X connect 18 0 19 0;
#X connect 19 0 0 0;
#X connect 20 0 21 0;
#X connect 21 0 14 0;
#X restore 317 173 pd inPhase;
#N canvas 65 82 450 300 basic 0;
#X obj 166 130 inlet;
#X obj 166 174 outlet;
#X msg 166 152 1;
#X connect 0 0 2 0;
#X connect 2 0 1 0;
#X restore 203 173 pd basic;
#X obj 109 66 hoa.thisprocess~ inPhase;
#X msg 203 90 \$1;
#X obj 203 151 route basic maxRe inPhase, f 29;
#X obj 237 113 route symbol;
#X connect 0 0 12 0;
#X connect 1 0 3 0;
#X connect 2 0 1 0;
#X connect 4 0 15 0;
#X connect 9 0 1 1;
#X connect 10 0 1 1;
#X connect 11 0 1 1;
#X connect 12 2 13 0;
#X connect 13 0 14 0;
#X connect 14 0 11 0;
#X connect 14 1 9 0;
#X connect 14 2 10 0;
#X connect 15 0 13 0;
#X connect 15 1 14 0;
