#N canvas 302 187 833 474 10;
#X obj 219 406 c.canvasmess;
#X obj 219 170 until;
#X obj 219 247 * 20;
#X obj 250 198 + 1;
#X obj 219 198 f 0;
#X obj 268 246 + 1;
#X obj 218 20 c.loadmess;
#X obj 218 40 hoa.thisprocess~, f 19;
#X obj 292 63 max 1;
#X obj 218 85 unpack f f f, f 17;
#X obj 365 302 makefilename \$0-%d;
#X obj 219 143 f;
#X obj 544 382 send, f 5;
#X obj 544 291 /;
#X obj 631 339 makefilename \$0-%d;
#X obj 544 264 t f f;
#X obj 571 338 hoa.pi 2;
#X obj 544 359 *, f 5;
#X obj 544 314 t f b;
#X obj 544 160 until;
#X obj 575 188 + 1;
#X obj 544 188 f 0;
#X obj 544 132 f;
#X obj 329 63 t b b;
#X obj 219 222 t f f, f 9;
#X obj 604 298 + 1;
#X msg 219 376 obj 0 \$1 hoa.planewave.dec~ \$2 \$3 \$4 \$5;
#X obj 219 330 pack f f f s f, f 33;
#X obj 414 194 + 1;
#X obj 414 222 t b f;
#X obj 414 244 f 1;
#X obj 414 266 /, f 5;
#X connect 1 0 4 0;
#X connect 2 0 27 0;
#X connect 3 0 4 1;
#X connect 4 0 3 0;
#X connect 4 0 24 0;
#X connect 5 0 10 0;
#X connect 5 0 27 1;
#X connect 6 0 7 0;
#X connect 7 0 9 0;
#X connect 7 2 8 0;
#X connect 7 3 23 0;
#X connect 8 0 11 1;
#X connect 8 0 13 1;
#X connect 8 0 22 1;
#X connect 9 0 28 0;
#X connect 9 2 27 2;
#X connect 10 0 27 3;
#X connect 11 0 1 0;
#X connect 13 0 18 0;
#X connect 14 0 12 1;
#X connect 15 0 13 0;
#X connect 15 1 25 0;
#X connect 16 0 17 1;
#X connect 17 0 12 0;
#X connect 18 0 17 0;
#X connect 18 1 16 0;
#X connect 19 0 21 0;
#X connect 20 0 21 1;
#X connect 21 0 20 0;
#X connect 21 0 15 0;
#X connect 22 0 19 0;
#X connect 23 0 22 0;
#X connect 23 1 11 0;
#X connect 24 0 2 0;
#X connect 24 1 5 0;
#X connect 25 0 14 0;
#X connect 26 0 0 0;
#X connect 27 0 26 0;
#X connect 28 0 29 0;
#X connect 29 0 30 0;
#X connect 29 1 31 1;
#X connect 30 0 31 0;
#X connect 31 0 27 4;
