#N canvas 599 186 737 482 10;
#X obj 109 44 c.loadmess;
#X obj 182 247 *~ 1;
#X obj 181 221 hoa.in~;
#X obj 181 271 hoa.out~;
#X obj 237 90 hoa.in extra 1;
#X text 326 90 Optimization type.;
#X text 45 221 signal of the harmonic;
#X text 21 271 new signal of the harmonic;
#X text 384 174 Algorithms of optimization.;
#N canvas 877 270 452 414 maxRe 0;
#X obj 48 285 outlet;
#X obj 63 53 unpack 0 0;
#X obj 48 263 f;
#X obj 48 242 inlet;
#X obj 63 9 c.loadmess;
#X obj 63 31 hoa.thisprocess~;
#X obj 63 167 /, f 5;
#X obj 63 199 *, f 4;
#X obj 120 150 abs;
#X obj 90 124 * 2;
#X obj 90 145 + 2;
#X obj 120 171 t b f;
#X obj 63 81 t b f;
#X obj 63 103 hoa.pi 1;
#X obj 63 221 cos;
#X connect 1 0 12 0;
#X connect 1 1 8 0;
#X connect 2 0 0 0;
#X connect 3 0 2 0;
#X connect 4 0 5 0;
#X connect 5 0 1 0;
#X connect 6 0 7 0;
#X connect 7 0 14 0;
#X connect 8 0 11 0;
#X connect 9 0 10 0;
#X connect 10 0 6 1;
#X connect 11 0 7 0;
#X connect 11 1 7 1;
#X connect 12 0 13 0;
#X connect 12 1 9 0;
#X connect 13 0 6 0;
#X connect 14 0 2 1;
#X restore 260 173 pd maxRe;
#N canvas 393 312 441 394 inPhase 0;
#X obj 82 346 outlet;
#X obj 128 48 unpack 0 0;
#X obj 82 223 inlet;
#X obj 82 325 f;
#X obj 128 5 c.loadmess;
#X obj 128 27 hoa.thisprocess~ inPhase;
#N canvas 0 22 450 300 factorial 0;
#X obj 163 81 until;
#X obj 163 103 f 1;
#X obj 188 103 + 1;
#X obj 188 123 f 1;
#X obj 163 123 * 1;
#X obj 163 19 inlet, f 11;
#X obj 163 61 t f b, f 9;
#X obj 214 81 f 1;
#X obj 163 40 max 1;
#X obj 163 145 outlet;
#X connect 0 0 1 0;
#X connect 1 0 2 0;
#X connect 1 0 4 0;
#X connect 2 0 1 1;
#X connect 3 0 4 1;
#X connect 4 0 3 0;
#X connect 4 0 9 0;
#X connect 5 0 8 0;
#X connect 6 0 0 0;
#X connect 6 1 7 0;
#X connect 7 0 1 1;
#X connect 7 0 4 1;
#X connect 8 0 6 0;
#X restore 128 122 pd factorial;
#N canvas 0 22 450 300 factorial 0;
#X obj 163 81 until;
#X obj 163 103 f 1;
#X obj 188 103 + 1;
#X obj 188 123 f 1;
#X obj 163 123 * 1;
#X obj 163 19 inlet, f 11;
#X obj 163 61 t f b, f 9;
#X obj 214 81 f 1;
#X obj 163 40 max 1;
#X obj 163 145 outlet;
#X connect 0 0 1 0;
#X connect 1 0 2 0;
#X connect 1 0 4 0;
#X connect 2 0 1 1;
#X connect 3 0 4 1;
#X connect 4 0 3 0;
#X connect 4 0 9 0;
#X connect 5 0 8 0;
#X connect 6 0 0 0;
#X connect 6 1 7 0;
#X connect 7 0 1 1;
#X connect 7 0 4 1;
#X connect 8 0 6 0;
#X restore 208 122 pd factorial;
#X obj 208 100 +, f 5;
#X obj 208 80 t b f;
#N canvas 0 22 450 300 factorial 0;
#X obj 163 81 until;
#X obj 163 103 f 1;
#X obj 188 103 + 1;
#X obj 188 123 f 1;
#X obj 163 123 * 1;
#X obj 163 19 inlet, f 11;
#X obj 163 61 t f b, f 9;
#X obj 214 81 f 1;
#X obj 163 40 max 1;
#X obj 163 145 outlet;
#X connect 0 0 1 0;
#X connect 1 0 2 0;
#X connect 1 0 4 0;
#X connect 2 0 1 1;
#X connect 3 0 4 1;
#X connect 4 0 3 0;
#X connect 4 0 9 0;
#X connect 5 0 8 0;
#X connect 6 0 0 0;
#X connect 6 1 7 0;
#X connect 7 0 1 1;
#X connect 7 0 4 1;
#X connect 8 0 6 0;
#X restore 288 122 pd factorial;
#X obj 288 80 t b f;
#X obj 288 100 -, f 5;
#X obj 128 171 /, f 5;
#X obj 208 142 t b f;
#X obj 238 171 /, f 5;
#X obj 288 142 t b f;
#X obj 128 224 *, f 5;
#X obj 238 191 t b f;
#X connect 1 0 6 0;
#X connect 1 0 8 0;
#X connect 1 0 12 0;
#X connect 1 1 9 0;
#X connect 1 1 11 0;
#X connect 2 0 3 0;
#X connect 3 0 0 0;
#X connect 4 0 5 0;
#X connect 5 0 1 0;
#X connect 6 0 13 0;
#X connect 6 0 15 0;
#X connect 7 0 14 0;
#X connect 8 0 7 0;
#X connect 9 0 8 0;
#X connect 9 1 8 1;
#X connect 10 0 16 0;
#X connect 11 0 12 0;
#X connect 11 1 12 1;
#X connect 12 0 10 0;
#X connect 13 0 17 0;
#X connect 14 0 13 0;
#X connect 14 1 13 1;
#X connect 15 0 18 0;
#X connect 16 0 15 0;
#X connect 16 1 15 1;
#X connect 17 0 3 1;
#X connect 18 0 17 0;
#X connect 18 1 17 1;
#X restore 317 173 pd inPhase;
#N canvas 65 82 450 300 basic 0;
#X obj 166 130 inlet;
#X obj 166 174 outlet;
#X obj 166 152 f 1;
#X connect 0 0 2 0;
#X connect 2 0 1 0;
#X restore 203 173 pd basic;
#X obj 109 66 hoa.thisprocess~ inPhase;
#X msg 203 90 \$1;
#X obj 203 151 route basic maxRe inPhase, f 29;
#X obj 237 113 route symbol;
#X connect 0 0 12 0;
#X connect 1 0 3 0;
#X connect 2 0 1 0;
#X connect 4 0 15 0;
#X connect 9 0 1 1;
#X connect 10 0 1 1;
#X connect 11 0 1 1;
#X connect 12 2 13 0;
#X connect 13 0 14 0;
#X connect 14 0 11 0;
#X connect 14 1 9 0;
#X connect 14 2 10 0;
#X connect 15 0 13 0;
#X connect 15 1 14 0;
