#N canvas 65 402 573 360 10;
#X obj 15 9 c.loadmess;
#X obj 15 56 hoa.thisprocess~;
#N canvas 0 50 450 300 print.domain.error 0;
#X obj 27 324 print hoa.syn.encoder~;
#X msg 27 273 only valid in the circular harmonics domain.;
#X obj 6 24 inlet;
#X obj 26 243 sel 1;
#X obj 85 62 unpack s s;
#X obj 185 90 sel harmonics planewaves;
#X obj 85 90 sel 2d 3d, f 14;
#X obj 125 142 f 1;
#X obj 85 178 +;
#X text 217 182 Harmonics 2d : mode 0;
#X text 217 202 Harmonics 3d : mode 1;
#X obj 185 142 f 0;
#X obj 255 142 f 2;
#X obj 85 142 f 0;
#X text 217 222 Planewaves 2d : mode 2;
#X text 217 243 Planewaves 3d : mode 3;
#X connect 1 0 0 0;
#X connect 2 0 4 0;
#X connect 3 1 1 0;
#X connect 4 0 6 0;
#X connect 4 1 5 0;
#X connect 5 0 11 0;
#X connect 5 1 12 0;
#X connect 6 0 13 0;
#X connect 6 1 7 0;
#X connect 7 0 8 0;
#X connect 8 0 3 0;
#X connect 11 0 8 1;
#X connect 12 0 8 1;
#X connect 13 0 8 0;
#X restore 46 92 pd print.domain.error;
#X obj 15 114 unpack 0 0 0;
#X obj 277 222 line~;
#N canvas 65 87 450 300 exp_img 0;
#X obj 139 109 spigot;
#X obj 216 109 spigot;
#X obj 172 82 >= 0;
#X obj 139 181 *;
#X obj 179 245 outlet;
#X obj 154 161 abs;
#X obj 139 203 cos;
#X obj 249 82 < 0;
#X obj 216 181 *;
#X obj 231 161 abs;
#X obj 216 203 sin;
#X obj 186 9 inlet;
#X text 12 196 e^i|m|θ = cos(|m|θ);
#X text 252 186 else if m < 0;
#X text 262 196 e^i|m|θ = sin(|m|θ);
#X text 2 186 if m >= 0, f 10;
#X obj 249 61 r \$0-order;
#X obj 231 141 r \$0-order;
#X obj 154 141 r \$0-order;
#X obj 172 61 r \$0-order;
#X connect 0 0 3 0;
#X connect 1 0 8 0;
#X connect 2 0 0 1;
#X connect 3 0 6 0;
#X connect 5 0 3 1;
#X connect 6 0 4 0;
#X connect 7 0 1 1;
#X connect 8 0 10 0;
#X connect 9 0 8 1;
#X connect 10 0 4 0;
#X connect 11 0 1 0;
#X connect 11 0 0 0;
#X connect 16 0 7 0;
#X connect 17 0 9 0;
#X connect 18 0 5 0;
#X connect 19 0 2 0;
#X restore 218 88 pd exp_img;
#X obj 218 9 hoa.in extra 2;
#X text 223 71 e^i|m|θ;
#N canvas 65 87 1301 686 alegp 0;
#X obj 240 168 spigot;
#X obj 540 541 f;
#X obj 562 11 inlet;
#X obj 69 342 f 1;
#X obj 69 321 bang;
#X text 92 343 P[0 \, 0](cos(φ)) = 1;
#X obj 69 168 spigot;
#X obj 102 146 == 0;
#X obj 294 256 * 2;
#X obj 294 300 * -1;
#X obj 294 278 + 1;
#X obj 240 189 cos;
#X obj 279 321 *;
#X obj 240 211 t f f;
#X obj 240 233 *, f 5;
#X obj 240 255 t b f;
#X obj 240 277 f 1;
#X obj 240 299 -, f 5;
#X obj 240 321 sqrt;
#X obj 240 343 *, f 7;
#X obj 273 101 != 0;
#X obj 306 101 ==;
#X obj 273 48 t f f, f 6;
#X obj 273 123 +, f 6;
#X obj 273 145 == 2;
#X text 332 191 <- P[l-1 \, l-1](cos(φ));
#X obj 694 276 * 2;
#X obj 694 298 + 1;
#X obj 640 319 cos;
#X obj 679 321 *;
#X obj 640 343 *, f 7;
#X obj 640 168 spigot;
#X obj 673 146 ==;
#X obj 688 123 + 1;
#X text 733 190 <- P[l-1 \, l-1](cos(φ));
#X obj 1020 168 spigot;
#X obj 1068 123 + 1;
#X obj 540 577 outlet;
#X obj 1053 146 >;
#X obj 1110 182 * 2;
#X obj 1110 246 + 1;
#X obj 1059 267 *, f 9;
#X obj 1020 265 cos;
#X obj 1020 289 *, f 7;
#X obj 1020 311 -, f 20;
#X obj 1194 184 +;
#X obj 1137 227 *, f 10;
#X obj 1155 320 -;
#X obj 1020 343 /, f 23;
#X obj 694 232 r \$0-degree;
#X obj 294 211 r \$0-degree;
#X obj 1110 139 r \$0-degree;
#X obj 1170 277 r \$0-order;
#X obj 1209 142 r \$0-order;
#X obj 1194 121 r \$0-degree;
#X obj 1155 256 r \$0-degree;
#X text 690 344 P[l \, l-1](cos(φ)) = cos(φ)(2l+1)P[l \, l](cos(φ))
;
#X text 290 344 P[l \, l](cos(φ)) = −(2l+1)√(1−cos(φ)^2)P[l
\, l](cos(φ));
#X obj 1059 226 r \$0-l1m;
#X obj 1137 206 r \$0-l2m;
#X text 837 401 P[l \, m](cos(φ)) = (cos(φ)(2l+1)P[l-1 \, m](cos(φ))−(l+m)P[l−2
\, m](cos(φ)))/(l−m+1), f 80;
#X text 928 227 P[l-1 \, m](cos(φ)) ->;
#X text 978 207 P[l-2 \, m](cos(φ)) ------->;
#X obj 102 122 r \$0-degree;
#X obj 273 24 r \$0-degree;
#X obj 673 57 r \$0-degree;
#X obj 1053 57 r \$0-degree;
#X obj 1068 80 r \$0-order;
#X obj 688 80 r \$0-order;
#X obj 321 50 r \$0-order;
#X obj 321 79 abs;
#X obj 688 102 abs;
#X obj 1068 102 abs;
#X obj 735 523 r \$0-degree;
#X obj 735 567 * 2, f 5;
#X obj 735 589 + 2;
#X obj 679 190 r \$0-l1m;
#X obj 279 190 r \$0-ll;
#X obj 735 763 makefilename %d-l1m;
#X obj 912 589 * 2;
#X obj 912 611 + 2;
#X obj 912 569 + 1;
#X obj 735 545 t f f, f 30;
#X obj 897 633 +;
#X obj 937 694 +;
#X obj 735 655 + \$0;
#X obj 897 655 + \$0;
#X obj 720 784 s;
#X obj 952 629 r \$0-order;
#X obj 952 651 abs;
#X obj 952 672 * 2;
#X obj 922 738 s;
#X obj 882 784 s;
#X obj 767 694 +;
#X obj 767 716 makefilename %d-l1m;
#X obj 782 629 r \$0-order;
#X obj 782 651 abs;
#X obj 782 672 * 2;
#X obj 752 738 s;
#X obj 624 551 r \$0-order;
#X obj 624 573 <= 0;
#X obj 591 595 spigot;
#X obj 937 716 makefilename %d-l2m;
#X obj 897 763 makefilename %d-l2m;
#X text 947 739 h[l+2 \, m];
#X text 775 738 h[l+1 \, m];
#X text 744 786 h[l+1 \, |m|];
#X text 813 523 Send result to h[l+1 \, m] \, h[l+1 \, |m|] \, h[l+2
\, m] and h[l+2 \, |m|], f 64;
#X text 906 785 h[l+2 \, |m|];
#X obj 103 503 r \$0-degree;
#X obj 148 547 + 1;
#X obj 148 569 * 2;
#X obj 88 699 s;
#X obj 121 429 r \$0-order;
#X obj 121 451 <= 0;
#X obj 88 473 spigot;
#X obj 103 547 * 2;
#X obj 103 569 + 1;
#X obj 103 525 t f f, f 8;
#X obj 133 614 +;
#X obj 118 657 s;
#X text 142 659 h[l+1 \, l+1];
#X text 112 701 h[l+1 \, -(l+1)];
#X obj 103 591 + \$0;
#X obj 133 636 makefilename %d-ll;
#X obj 103 678 makefilename %d-ll;
#X obj 294 233 - 1;
#X obj 694 254 - 1;
#X obj 1194 206 - 1;
#X obj 1110 161 - 1;
#X obj 1170 299 abs;
#X obj 1209 164 abs;
#X connect 0 0 11 0;
#X connect 1 0 37 0;
#X connect 1 0 101 0;
#X connect 2 0 6 0;
#X connect 2 0 0 0;
#X connect 2 0 31 0;
#X connect 2 0 35 0;
#X connect 3 0 1 0;
#X connect 3 0 115 0;
#X connect 4 0 3 0;
#X connect 6 0 4 0;
#X connect 7 0 6 1;
#X connect 8 0 10 0;
#X connect 9 0 12 1;
#X connect 10 0 9 0;
#X connect 11 0 13 0;
#X connect 12 0 19 1;
#X connect 13 0 14 0;
#X connect 13 1 14 1;
#X connect 14 0 15 0;
#X connect 15 0 16 0;
#X connect 15 1 17 1;
#X connect 16 0 17 0;
#X connect 17 0 18 0;
#X connect 18 0 19 0;
#X connect 19 0 1 0;
#X connect 19 0 115 0;
#X connect 20 0 23 0;
#X connect 21 0 23 1;
#X connect 22 0 20 0;
#X connect 22 1 21 0;
#X connect 23 0 24 0;
#X connect 24 0 0 1;
#X connect 26 0 27 0;
#X connect 27 0 29 1;
#X connect 28 0 30 0;
#X connect 29 0 30 1;
#X connect 30 0 1 0;
#X connect 31 0 28 0;
#X connect 32 0 31 1;
#X connect 33 0 32 1;
#X connect 35 0 42 0;
#X connect 36 0 38 1;
#X connect 38 0 35 1;
#X connect 39 0 40 0;
#X connect 40 0 41 1;
#X connect 41 0 43 1;
#X connect 42 0 43 0;
#X connect 43 0 44 0;
#X connect 44 0 48 0;
#X connect 45 0 128 0;
#X connect 46 0 44 1;
#X connect 47 0 48 1;
#X connect 48 0 1 0;
#X connect 49 0 127 0;
#X connect 50 0 126 0;
#X connect 51 0 129 0;
#X connect 52 0 130 0;
#X connect 53 0 131 0;
#X connect 54 0 45 0;
#X connect 55 0 47 0;
#X connect 58 0 41 0;
#X connect 59 0 46 0;
#X connect 63 0 7 0;
#X connect 64 0 22 0;
#X connect 65 0 32 0;
#X connect 66 0 38 0;
#X connect 67 0 72 0;
#X connect 68 0 71 0;
#X connect 69 0 70 0;
#X connect 70 0 21 1;
#X connect 71 0 33 0;
#X connect 72 0 36 0;
#X connect 73 0 82 0;
#X connect 74 0 75 0;
#X connect 75 0 83 0;
#X connect 75 0 85 0;
#X connect 76 0 29 0;
#X connect 77 0 12 0;
#X connect 78 0 87 1;
#X connect 79 0 80 0;
#X connect 80 0 83 1;
#X connect 81 0 79 0;
#X connect 82 0 74 0;
#X connect 82 1 81 0;
#X connect 83 0 86 0;
#X connect 84 0 102 0;
#X connect 85 0 78 0;
#X connect 85 0 93 0;
#X connect 86 0 84 0;
#X connect 86 0 103 0;
#X connect 88 0 89 0;
#X connect 89 0 90 0;
#X connect 90 0 84 1;
#X connect 93 0 94 0;
#X connect 94 0 98 1;
#X connect 95 0 96 0;
#X connect 96 0 97 0;
#X connect 97 0 93 1;
#X connect 99 0 100 0;
#X connect 100 0 101 1;
#X connect 101 0 91 0;
#X connect 101 0 92 0;
#X connect 101 0 98 0;
#X connect 101 0 87 0;
#X connect 102 0 91 1;
#X connect 103 0 92 1;
#X connect 109 0 118 0;
#X connect 110 0 111 0;
#X connect 111 0 119 1;
#X connect 113 0 114 0;
#X connect 114 0 115 1;
#X connect 115 0 112 0;
#X connect 115 0 120 0;
#X connect 116 0 117 0;
#X connect 117 0 123 0;
#X connect 118 0 116 0;
#X connect 118 1 110 0;
#X connect 119 0 124 0;
#X connect 123 0 119 0;
#X connect 123 0 125 0;
#X connect 124 0 120 1;
#X connect 125 0 112 1;
#X connect 126 0 8 0;
#X connect 127 0 26 0;
#X connect 128 0 46 1;
#X connect 129 0 39 0;
#X connect 130 0 47 1;
#X connect 131 0 45 1;
#X restore 311 88 pd alegp;
#X obj 311 9 hoa.in extra 3;
#X text 315 71 P[l \, m](cos(φ));
#X obj 277 132 t b f;
#X obj 49 192 s \$0-degree;
#X obj 84 169 s \$0-order;
#X text 121 193 l;
#X text 151 170 m;
#N canvas 65 119 650 483 norm 0;
#X obj 14 5 r \$0-degree;
#X obj 93 5 r \$0-order;
#X obj 101 180 +;
#X obj 14 180 -;
#N canvas 65 82 450 300 factorial 0;
#X obj 163 81 until;
#X obj 163 103 f 1;
#X obj 188 103 + 1;
#X obj 188 123 f 1;
#X obj 163 123 * 1;
#X obj 163 19 inlet, f 11;
#X obj 163 61 t f b, f 9;
#X obj 214 81 f 1;
#X obj 163 40 max 1;
#X obj 163 145 outlet;
#X connect 0 0 1 0;
#X connect 1 0 2 0;
#X connect 1 0 4 0;
#X connect 2 0 1 1;
#X connect 3 0 4 1;
#X connect 4 0 3 0;
#X connect 4 0 9 0;
#X connect 5 0 8 0;
#X connect 6 0 0 0;
#X connect 6 1 7 0;
#X connect 7 0 1 1;
#X connect 7 0 4 1;
#X connect 8 0 6 0;
#X restore 101 201 pd factorial;
#N canvas 65 82 450 300 factorial 0;
#X obj 163 81 until;
#X obj 163 103 f 1;
#X obj 188 103 + 1;
#X obj 188 123 f 1;
#X obj 163 123 * 1;
#X obj 163 19 inlet, f 11;
#X obj 163 61 t f b, f 9;
#X obj 214 81 f 1;
#X obj 163 40 max 1;
#X obj 163 145 outlet;
#X connect 0 0 1 0;
#X connect 1 0 2 0;
#X connect 1 0 4 0;
#X connect 2 0 1 1;
#X connect 3 0 4 1;
#X connect 4 0 3 0;
#X connect 4 0 9 0;
#X connect 5 0 8 0;
#X connect 6 0 0 0;
#X connect 6 1 7 0;
#X connect 7 0 1 1;
#X connect 7 0 4 1;
#X connect 8 0 6 0;
#X restore 14 201 pd factorial;
#X obj 14 227 /, f 15;
#X obj 14 249 sqrt;
#X obj 14 448 outlet;
#X obj 14 98 t f f;
#X obj 93 78 abs;
#X obj 185 250 /, f 6;
#X obj 218 228 hoa.pi 4;
#X obj 185 270 sqrt;
#X obj 14 313 * 1, f 5;
#X obj 93 98 t f f f, f 10;
#X msg 185 180 2;
#X obj 185 202 t f b;
#X obj 93 47 sel 0;
#X msg 24 382 1;
#X obj 93 25 t f f;
#X obj 29 337 != 0;
#X obj 14 359 * 1;
#X obj 14 427 +;
#X obj 24 403 t b f;
#X text 310 16 k(l \, m) = sqrt((l - |m|)! / (l + |m|)!) * sqrt(2/
4π);
#X text 294 2 if m != 0;
#X text 295 30 else;
#X text 310 43 k(l \, m) = 1;
#X obj 268 42 f;
#X obj 268 320 f;
#X obj 294 101 bng 15 250 50 0 empty empty empty 17 7 0 10 -262144
-1 -1;
#X obj 294 367 bng 15 250 50 0 empty empty empty 17 7 0 10 -262144
-1 -1;
#X connect 0 0 9 0;
#X connect 1 0 20 0;
#X connect 2 0 4 0;
#X connect 3 0 5 0;
#X connect 4 0 6 1;
#X connect 5 0 6 0;
#X connect 6 0 7 0;
#X connect 7 0 14 0;
#X connect 9 0 3 0;
#X connect 9 1 2 0;
#X connect 10 0 15 0;
#X connect 11 0 13 0;
#X connect 12 0 11 1;
#X connect 13 0 14 1;
#X connect 14 0 22 0;
#X connect 15 0 3 1;
#X connect 15 1 2 1;
#X connect 15 2 16 0;
#X connect 16 0 17 0;
#X connect 17 0 11 0;
#X connect 17 1 12 0;
#X connect 18 0 31 0;
#X connect 18 1 10 0;
#X connect 19 0 24 0;
#X connect 20 0 18 0;
#X connect 20 1 29 0;
#X connect 21 0 22 1;
#X connect 22 0 23 0;
#X connect 23 0 8 0;
#X connect 24 0 23 0;
#X connect 24 1 23 1;
#X connect 29 0 30 0;
#X connect 30 0 21 0;
#X connect 31 0 32 0;
#X connect 32 0 19 0;
#X restore 316 133 pd norm;
#X text 315 112 k(l \, m);
#X obj 163 258 *~;
#X obj 163 280 hoa.out~;
#X obj 163 222 hoa.in~ extra 1;
#N canvas 490 401 468 341 wrap_angles 0;
#X obj 82 39 inlet;
#X obj 195 49 inlet;
#X obj 195 71 /, f 7;
#X obj 234 47 hoa.pi 2;
#X obj 234 26 c.loadmess;
#X obj 195 137 *, f 7;
#X obj 195 93 + 0.25;
#X obj 196 116 wrap;
#X obj 105 193 >;
#X obj 104 264 t b f;
#X obj 81 290 +, f 4;
#X obj 120 128 hoa.pi 1;
#X obj 105 218 sel 1;
#X obj 105 240 hoa.pi 1;
#X obj 81 312 outlet;
#X obj 222 281 outlet, f 16;
#X obj 195 158 t f f;
#X connect 0 0 10 0;
#X connect 1 0 2 0;
#X connect 2 0 6 0;
#X connect 3 0 2 1;
#X connect 3 0 5 1;
#X connect 4 0 3 0;
#X connect 4 0 11 0;
#X connect 5 0 16 0;
#X connect 6 0 7 0;
#X connect 7 0 5 0;
#X connect 8 0 12 0;
#X connect 9 0 10 0;
#X connect 9 1 10 1;
#X connect 10 0 14 0;
#X connect 11 0 8 1;
#X connect 12 0 13 0;
#X connect 12 1 9 0;
#X connect 13 0 9 0;
#X connect 16 0 8 0;
#X connect 16 1 15 0;
#X restore 218 39 pd wrap_angles;
#X msg 277 200 \$1 5;
#X obj 277 174 * 1, f 7;
#X obj 277 152 * 1, f 5;
#X connect 0 0 1 0;
#X connect 1 0 3 0;
#X connect 1 1 2 0;
#X connect 3 1 12 0;
#X connect 3 2 13 0;
#X connect 4 0 18 1;
#X connect 5 0 24 0;
#X connect 6 0 21 0;
#X connect 8 0 11 0;
#X connect 9 0 21 1;
#X connect 11 0 24 0;
#X connect 11 1 24 1;
#X connect 16 0 23 1;
#X connect 18 0 19 0;
#X connect 20 0 18 0;
#X connect 21 0 5 0;
#X connect 21 1 8 0;
#X connect 22 0 4 0;
#X connect 23 0 22 0;
#X connect 24 0 23 0;
