#N canvas 119 122 946 548 10;
#X obj 355 482 hoa.out~;
#X obj 9 11 c.loadmess;
#X obj 312 65 hoa.in extra 1;
#X obj 471 267 f;
#X obj 289 332 *~ 513;
#X obj 736 363 table \$0-hoa_hann1 512;
#X obj 289 360 tabread4~ \$0-hoa_hann1;
#X obj 274 411 *~;
#X obj 470 411 *~;
#X obj 274 267 f;
#X obj 485 360 tabread4~ \$0-hoa_hann1;
#X obj 485 311 wrap~;
#X obj 485 290 +~ 0.5;
#X obj 485 332 *~ 513;
#X obj 471 391 delread~ \$0-hoa.delay 1;
#X obj 274 391 delread~ \$0-hoa.delay 1;
#X obj 289 232 phasor~ 0.5;
#N canvas 970 176 450 300 sel~ 0;
#X obj 73 20 c.loadmess 1;
#X obj 92 141 samphold~;
#X obj 92 165 snapshot~;
#X obj 92 187 change;
#X obj 92 209 < 126;
#X obj 92 233 sel 0 1;
#X obj 38 59 inlet~;
#X obj 108 49 inlet~;
#X obj 92 261 outlet;
#X obj 153 261 outlet;
#X obj 155 232 nbx 5 14 -1e+37 1e+37 0 0 empty empty empty 0 -8 0 10
-262144 -1 -1 0 256;
#X obj 73 109 metro 5;
#X connect 0 0 11 0;
#X connect 1 0 2 0;
#X connect 2 0 3 0;
#X connect 3 0 4 0;
#X connect 3 0 10 0;
#X connect 4 0 5 0;
#X connect 5 0 9 0;
#X connect 5 1 8 0;
#X connect 6 0 1 0;
#X connect 6 0 1 1;
#X connect 7 0 1 1;
#X connect 11 0 2 0;
#X restore 417 414 pd sel~;
#X obj 386 199 unpack;
#X obj 737 162 / 256;
#X obj 737 207 * 1;
#X obj 737 261 * 0.5;
#X obj 737 233 sin;
#X obj 737 285 + 0.5;
#X obj 738 22 c.loadmess;
#X obj 737 134 t f f;
#X obj 737 313 pack;
#X obj 773 180 hoa.pi 1;
#X obj 737 183 - 0.5;
#X obj 738 46 t b b;
#X obj 737 90 until;
#X obj 737 111 f;
#X obj 764 112 + 1;
#X msg 737 69 512;
#X obj 737 337 tabwrite \$0-hoa_hann1;
#X obj 76 61 hoa.mode.sel;
#X obj 9 87 hoa.args.map;
#X obj 78 111 + 1;
#X obj 78 146 / 1;
#X text 81 196 factor;
#X text 77 186 instance;
#X obj 78 166 nbx 5 14 -1e+37 1e+37 0 0 empty empty empty 0 -8 0 10
-262144 -1 -1 0 256;
#X obj 9 166 nbx 5 14 -1e+37 1e+37 0 0 empty empty empty 0 -8 0 10
-262144 -1 -1 0 256;
#X text 8 186 number of;
#X text 5 196 instances;
#X obj 490 129 delwrite~ \$0-hoa.delay 5000;
#X obj 9 38 hoa.thisprocess~ @delay 1000;
#X obj 174 148 route delay;
#X obj 358 166 list split;
#X obj 312 95 route float list;
#X obj 312 178 * 1;
#X obj 311 141 t b f;
#X text 531 430 list : The item is selected depending on the instance
and directly set the delay time of the instance (mostly used in the
plane waves domain).;
#X text 531 490 float : The delay time are mapped depending on the
intance and increase while the index and the band of the harmonics
increase.;
#X obj 412 65 hoa.in extra 2;
#X text 350 6 This hoa.processing synthesizes a sound field with delay
lines.;
#X obj 490 86 hoa.in~ extra 1;
#X connect 1 0 46 0;
#X connect 2 0 49 0;
#X connect 3 0 14 0;
#X connect 4 0 6 0;
#X connect 4 0 17 0;
#X connect 6 0 7 1;
#X connect 7 0 0 0;
#X connect 8 0 0 0;
#X connect 9 0 15 0;
#X connect 10 0 8 1;
#X connect 11 0 13 0;
#X connect 12 0 11 0;
#X connect 13 0 10 0;
#X connect 13 0 17 1;
#X connect 14 0 8 0;
#X connect 15 0 7 0;
#X connect 16 0 4 0;
#X connect 16 0 12 0;
#X connect 17 0 9 0;
#X connect 17 1 3 0;
#X connect 18 0 3 1;
#X connect 18 0 9 1;
#X connect 19 0 28 0;
#X connect 20 0 22 0;
#X connect 21 0 23 0;
#X connect 22 0 21 0;
#X connect 23 0 26 0;
#X connect 24 0 29 0;
#X connect 25 0 19 0;
#X connect 25 1 26 1;
#X connect 26 0 34 0;
#X connect 27 0 20 1;
#X connect 28 0 20 0;
#X connect 29 0 33 0;
#X connect 29 1 27 0;
#X connect 30 0 31 0;
#X connect 31 0 32 0;
#X connect 31 0 25 0;
#X connect 32 0 31 1;
#X connect 33 0 30 0;
#X connect 35 0 36 1;
#X connect 36 0 42 0;
#X connect 36 0 38 1;
#X connect 36 1 37 0;
#X connect 36 1 48 1;
#X connect 37 0 38 0;
#X connect 38 0 41 0;
#X connect 41 0 51 0;
#X connect 46 0 36 0;
#X connect 46 1 35 0;
#X connect 46 3 47 0;
#X connect 47 0 50 0;
#X connect 48 1 18 0;
#X connect 49 0 50 0;
#X connect 49 1 48 0;
#X connect 50 0 9 1;
#X connect 50 0 3 1;
#X connect 51 0 50 0;
#X connect 51 1 50 1;
#X connect 54 0 49 0;
#X connect 56 0 45 0;
