#N canvas 579 460 461 294 10;
#X obj 158 25 hoa.in~;
#X obj 159 216 hoa.out~;
#N canvas 182 122 521 551 hoa.fft.dephaser~ 0;
#X obj 78 381 +~;
#X obj 365 283 * 1, f 7;
#X obj 377 194 /;
#X obj 377 149 t b f;
#X obj 377 259 t b f;
#X obj 110 166 / 1, f 5;
#X obj 110 141 t b f;
#X obj 95 190 * 1;
#X msg 95 214 \$1 20;
#X obj 95 237 line~;
#X obj 94 300 *~;
#X obj 109 279 hoa.pi 2;
#X msg 328 260 \$1 20;
#X obj 328 283 line~;
#X obj 328 324 *~;
#X obj 344 303 *~ 1;
#X obj 94 340 +~;
#N canvas 659 208 450 339 rand~ 0;
#X obj 140 20 inlet;
#X obj 140 269 outlet~;
#X obj 140 84 /;
#X obj 140 42 t b f;
#X obj 140 105 * 1000;
#X obj 140 148 metro;
#X obj 140 188 - 10000;
#X obj 140 168 random 20001;
#X obj 140 208 / 10000;
#X obj 140 249 line~;
#X obj 140 229 pack f f;
#X obj 140 126 t b f f, f 8;
#X obj 140 63 f 1;
#X connect 0 0 3 0;
#X connect 2 0 4 0;
#X connect 3 0 12 0;
#X connect 3 1 2 1;
#X connect 4 0 11 0;
#X connect 5 0 7 0;
#X connect 6 0 8 0;
#X connect 7 0 6 0;
#X connect 8 0 10 0;
#X connect 9 0 1 0;
#X connect 10 0 9 0;
#X connect 11 0 5 0;
#X connect 11 1 5 1;
#X connect 11 2 10 1;
#X connect 12 0 2 0;
#X restore 344 118 pd rand~;
#X obj 9 59 inlet~;
#X obj 8 507 outlet~;
#X obj 95 59 inlet;
#X obj 227 59 inlet;
#X obj 164 59 inlet;
#X obj 8 486 /~ 256;
#X obj 344 9 c.loadmess 256;
#X obj 344 96 /;
#X obj 344 54 t b f;
#X obj 365 238 hoa.pi 1;
#X obj 365 217 c.loadmess 1;
#X obj 109 258 c.loadmess 2;
#X obj 8 465 rifft~;
#N canvas 351 388 450 300 sampstoms 0;
#X obj 165 13 inlet;
#X obj 192 83 samplerate~;
#X obj 165 60 * 1000;
#X obj 165 105 /, f 5;
#X obj 165 37 t f b;
#X obj 165 127 outlet;
#X connect 0 0 4 0;
#X connect 1 0 3 1;
#X connect 2 0 3 0;
#X connect 3 0 5 0;
#X connect 4 0 2 0;
#X connect 4 1 1 0;
#X restore 344 31 pd sampstoms;
#X obj 344 75 f 1000;
#X obj 377 171 f 1;
#X obj 9 81 rfft~;
#X obj 253 457 block~ 256 2;
#N canvas 65 306 450 300 poltocar~ 0;
#X obj 122 43 inlet~;
#X obj 122 182 outlet~;
#X obj 227 182 outlet~;
#X obj 217 43 inlet~;
#X obj 138 140 cos~;
#X obj 122 161 *~;
#X obj 227 161 *~;
#X obj 218 110 /~;
#X obj 233 69 c.loadmess;
#X obj 242 140 c.sin~;
#X obj 233 90 hoa.pi 2;
#X connect 0 0 5 0;
#X connect 0 0 6 0;
#X connect 3 0 7 0;
#X connect 3 0 9 0;
#X connect 4 0 5 1;
#X connect 5 0 1 0;
#X connect 6 0 2 0;
#X connect 7 0 4 0;
#X connect 8 0 10 0;
#X connect 9 0 6 1;
#X connect 10 0 7 1;
#X restore 8 425 pd poltocar~;
#N canvas 878 227 450 349 cartopol~ 0;
#X obj 112 63 inlet~;
#X obj 125 192 outlet~;
#X obj 249 192 outlet~;
#X obj 167 63 inlet~;
#X obj 125 171 sqrt~;
#X obj 160 123 *~;
#X obj 105 122 *~;
#X obj 125 150 +~;
#X obj 249 123 c.atan2~;
#X connect 0 0 6 0;
#X connect 0 0 6 1;
#X connect 0 0 8 1;
#X connect 3 0 5 0;
#X connect 3 0 5 1;
#X connect 3 0 8 0;
#X connect 4 0 1 0;
#X connect 5 0 7 1;
#X connect 6 0 7 0;
#X connect 7 0 4 0;
#X connect 8 0 2 0;
#X restore 9 114 pd cartopol~;
#N canvas 65 97 450 300 %~ 0;
#X obj 31 25 inlet~;
#X obj 352 25 inlet;
#X obj 31 91 outlet~;
#X obj 31 58 expr~ if($v1<=$f2 && $v1 >= -$f2 \, $v1 \, fmod($v1 \,
$f2));
#X connect 0 0 3 0;
#X connect 1 0 3 1;
#X connect 3 0 2 0;
#X restore 78 403 pd %~;
#X obj 105 381 hoa.pi 1;
#X obj 105 360 c.loadmess 1;
#X connect 0 0 38 0;
#X connect 1 0 15 1;
#X connect 2 0 4 0;
#X connect 3 0 33 0;
#X connect 3 1 2 1;
#X connect 4 0 1 0;
#X connect 4 1 1 1;
#X connect 5 0 7 1;
#X connect 6 0 5 0;
#X connect 6 1 5 1;
#X connect 7 0 8 0;
#X connect 8 0 9 0;
#X connect 9 0 10 0;
#X connect 10 0 16 0;
#X connect 11 0 10 1;
#X connect 12 0 13 0;
#X connect 13 0 14 0;
#X connect 14 0 16 1;
#X connect 15 0 14 1;
#X connect 16 0 0 1;
#X connect 17 0 15 0;
#X connect 18 0 34 0;
#X connect 20 0 12 0;
#X connect 20 0 7 0;
#X connect 21 0 5 0;
#X connect 22 0 3 0;
#X connect 22 0 6 0;
#X connect 23 0 19 0;
#X connect 24 0 31 0;
#X connect 25 0 17 0;
#X connect 26 0 32 0;
#X connect 26 1 25 1;
#X connect 27 0 1 0;
#X connect 28 0 27 0;
#X connect 29 0 11 0;
#X connect 30 0 23 0;
#X connect 31 0 26 0;
#X connect 32 0 25 0;
#X connect 33 0 2 0;
#X connect 34 0 37 0;
#X connect 34 1 37 1;
#X connect 36 0 30 0;
#X connect 36 1 30 1;
#X connect 37 0 36 0;
#X connect 37 1 0 0;
#X connect 38 0 36 1;
#X connect 39 0 38 1;
#X connect 40 0 39 0;
#X restore 159 180 pd hoa.fft.dephaser~;
#X obj 198 47 hoa.in extra 1;
#X obj 198 68 clip 0 1;
#X obj 237 92 c.loadmess;
#X obj 268 136 hoa.mode.sel;
#X obj 237 158 hoa.args.map;
#X obj 237 113 hoa.thisprocess~;
#X connect 0 0 2 0;
#X connect 2 0 1 0;
#X connect 3 0 4 0;
#X connect 4 0 2 1;
#X connect 5 0 8 0;
#X connect 6 0 7 1;
#X connect 7 0 2 2;
#X connect 7 1 2 3;
#X connect 8 0 7 0;
#X connect 8 1 6 0;
