#N canvas 386 267 499 330 10;
#X obj 89 47 hoa.in extra 1;
#X obj 291 197 spigot 0;
#X obj 89 197 spigot 0;
#X obj 279 83 unpack s s;
#X obj 89 278 hoa.out extra 1;
#X obj 134 175 f 1;
#X obj 134 143 sel harmonics;
#X obj 336 143 sel planewaves;
#X obj 336 175 f 1;
#X obj 248 33 loadbang;
#X connect 0 0 1 0;
#X connect 0 0 2 0;
#X connect 3 1 7 0;
#X connect 3 1 6 0;
#X connect 5 0 2 1;
#X connect 6 0 5 0;
#X connect 7 0 8 0;
#X connect 8 0 1 1;
