#N canvas 105 57 1197 687 10;
#X text 4 82 1st argument is the order.;
#X text 4 138 3rd argument is the number of loudspeakers (minmum 2
* order + 1 for ambisonic mode).;
#X obj 458 417 c.meter~ @size 9 71 @fontname "Helvetica" @fontweight
"normal" @fontslant "roman" @fontsize 11 @receive "(null)" @send "(null)"
@interval 50 @bgcolor 0.7 0.7 0.7 1 @bdcolor 0.5 0.5 0.5 1 @coldcolor
0 0.6 0 0.8 @tepidcolor 0.6 0.73 0 0.8 @warmcolor 0.85 0.85 0 0.8 @hotcolor
1 0.6 0 0.8 @overcolor 1 0 0 0.8;
#X obj 707 417 c.meter~ @size 9 71 @fontname "Helvetica" @fontweight
"normal" @fontslant "roman" @fontsize 11 @receive "(null)" @send "(null)"
@interval 50 @bgcolor 0.7 0.7 0.7 1 @bdcolor 0.5 0.5 0.5 1 @coldcolor
0 0.6 0 0.8 @tepidcolor 0.6 0.73 0 0.8 @warmcolor 0.85 0.85 0 0.8 @hotcolor
1 0.6 0 0.8 @overcolor 1 0 0 0.8;
#X obj 458 205 c.gain~ @size 131 10 @fontname "Helvetica" @fontweight
"normal" @fontslant "roman" @fontsize 11 @receive "(null)" @send "(null)"
@presetname "(null)" @mode 0 @ramp 20 @bgcolor 0.75 0.75 0.75 1 @bdcolor
0.5 0.5 0.5 1 @kncolor 0.5 0.5 0.5 1;
#X msg 558 421 \; pd dsp 1;
#X msg 558 456 \; pd dsp 0;
#X text 3 47 hoa.2d.decoder~ decodes an ambisonic sound field for several
loudspeakers configurations or for headphones.;
#X msg 16 311 offset \$1;
#X obj 16 278 c.number @size 53 17 @fontname "Helvetica" @fontweight
"normal" @fontslant "roman" @fontsize 11 @receive "(null)" @send "(null)"
@presetname "(null)" @min "(null)" @max "(null)" @minmax "(null)" "(null)"
@decimal 6 @bgcolor 0.75 0.75 0.75 1 @bdcolor 0.5 0.5 0.5 1 @textcolor
0 0 0 1;
#X text 13 257 Offset of the loudspeakers in degrees;
#X msg 917 250 offset \$1;
#X obj 917 217 c.number @size 53 17 @fontname "Helvetica" @fontweight
"normal" @fontslant "roman" @fontsize 11 @receive "(null)" @send "(null)"
@presetname "(null)" @min "(null)" @max "(null)" @minmax "(null)" "(null)"
@decimal 6 @bgcolor 0.75 0.75 0.75 1 @bdcolor 0.5 0.5 0.5 1 @textcolor
0 0 0 1;
#X text 914 196 Offset of the loudspeakers in degrees;
#X obj 97 318 hoa.2d.optim~ 7 maxRe ---------------------;
#X obj 839 328 hoa.2d.optim~ 7 inPhase -------------------;
#X obj 97 404 hoa.2d.meter~ @size 261 261 @fontname "Helvetica" @fontweight
"normal" @fontslant "roman" @fontsize 11 @receive "(null)" @send "(null)"
@channels 16 @angles 0 22.5 45 67.5 90 112.5 135 157.5 180 202.5 225
247.5 270 292.5 315 337.5 @offset 0 @rotation "anti-clockwise" @vectors
"energy" @interval 50 @bgcolor 0.76 0.76 0.76 1 @bdcolor 0.7 0.7 0.7
1 @coldcolor 0 0.6 0 0.8 @tepidcolor 0.6 0.73 0 0.8 @warmcolor 0.85
0.85 0 0.8 @hotcolor 1 0.6 0 0.8 @overcolor 1 0 0 0.8 @energycolor
0 0 1 0.8 @velocitycolor 1 0 0 0.8;
#X obj 839 403 hoa.2d.meter~ @size 261 261 @fontname "Helvetica" @fontweight
"normal" @fontslant "roman" @fontsize 11 @receive "(null)" @send "(null)"
@channels 5 @angles 0 30 110 250 330 @offset 0 @rotation "anti-clockwise"
@vectors "energy" @interval 50 @bgcolor 0.76 0.76 0.76 1 @bdcolor 0.7
0.7 0.7 1 @coldcolor 0 0.6 0 0.8 @tepidcolor 0.6 0.73 0 0.8 @warmcolor
0.85 0.85 0 0.8 @hotcolor 1 0.6 0 0.8 @overcolor 1 0 0 0.8 @energycolor
0 0 1 0.8 @velocitycolor 1 0 0 0.8;
#X obj 561 25 hoa.connect;
#X obj 561 5 bng 15 250 50 0 empty empty empty 17 7 0 10 -262144 -1
-1;
#X text 14 187 Ambisonic decoding is used for a perfect circle of loudspeakers
where all of them are to equal distance. The minimum number of loudspeakers
is 2 * order + 1 (default : 2 * order + 2). The fourth argument is
the offset of loudpeakers in degrees.;
#X text 3 97 2nd argument is the decoding mode : ambisonic or 0 \,
binaural or 1 (for headphones) \, irregular or 2 (for an irregular
loudpspeakers array).;
#X obj 707 196 hoa.pi~ 2;
#X obj 458 226 hoa.2d.encoder~ 7 ------------------------;
#X obj 13 20 c.patcherinfos;
#X obj 18 3 loadbang;
#X obj 3 3 hoa.help.header;
#X obj 420 628 hoa.help.pub;
#X text 448 90 Important : Unlike the GUI \, the argument are not saved
with the object. You have to write it in the box or to send a message.
;
#X obj 420 3 hoa.help.also;
#X obj 458 506 hoa.dac~ 1 2 -----------------------------;
#X obj 707 174 phasor~ 0.3;
#X obj 458 164 hoa.soundrone;
#X obj 97 351 hoa.2d.decoder~ 7 regular 16 --------------;
#X obj 839 356 hoa.2d.decoder~ 7 irregular 5 @angles 0 30 110 250 330
, f 43;
#X text 834 99 Irregular mode is used for standard configurations :
mono (1) \, stereo (2) \, 3.1 (3) \, quadriphonie (4) \, 5.1 (5) \,
6.1 \, 7.1. The fourth argument is the irregular decoding mode : panning
(default) or projection. You should use "inPhase" optimization to avoid
artefact.;
#X msg 730 354 crop \$1;
#X obj 730 327 c.number @size 53 17 @fontname "Helvetica" @fontweight
"normal" @fontslant "roman" @fontsize 11 @receive "(null)" @send "(null)"
@presetname "(null)" @min 0 @max 512 @minmax 0 512 @decimal 6 @bgcolor
0.75 0.75 0.75 1 @bdcolor 0.5 0.5 0.5 1 @textcolor 0 0 0 1;
#X text 425 540 Binaural mode is used for headphones. If the process
cost too much CPU \, you can crop the responses (the max length is
512 samples).;
#X obj 458 387 hoa.2d.decoder~ 7 binaural 2 @crop 256, f 42;
#X connect 4 0 23 0;
#X connect 8 0 33 0;
#X connect 8 0 16 0;
#X connect 9 0 8 0;
#X connect 11 0 34 0;
#X connect 11 0 17 0;
#X connect 12 0 11 0;
#X connect 14 0 33 0;
#X connect 14 1 33 1;
#X connect 14 2 33 2;
#X connect 14 3 33 3;
#X connect 14 4 33 4;
#X connect 14 5 33 5;
#X connect 14 6 33 6;
#X connect 14 7 33 7;
#X connect 14 8 33 8;
#X connect 14 9 33 9;
#X connect 14 10 33 10;
#X connect 14 11 33 11;
#X connect 14 12 33 12;
#X connect 14 13 33 13;
#X connect 14 14 33 14;
#X connect 15 0 34 0;
#X connect 15 1 34 1;
#X connect 15 2 34 2;
#X connect 15 3 34 3;
#X connect 15 4 34 4;
#X connect 15 5 34 5;
#X connect 15 6 34 6;
#X connect 15 7 34 7;
#X connect 15 8 34 8;
#X connect 15 9 34 9;
#X connect 15 10 34 10;
#X connect 15 11 34 11;
#X connect 15 12 34 12;
#X connect 15 13 34 13;
#X connect 15 14 34 14;
#X connect 19 0 18 0;
#X connect 22 0 23 1;
#X connect 23 0 14 0;
#X connect 23 0 15 0;
#X connect 23 0 39 0;
#X connect 23 1 14 1;
#X connect 23 1 15 1;
#X connect 23 1 39 1;
#X connect 23 2 14 2;
#X connect 23 2 15 2;
#X connect 23 2 39 2;
#X connect 23 3 14 3;
#X connect 23 3 15 3;
#X connect 23 3 39 3;
#X connect 23 4 14 4;
#X connect 23 4 15 4;
#X connect 23 4 39 4;
#X connect 23 5 14 5;
#X connect 23 5 15 5;
#X connect 23 5 39 5;
#X connect 23 6 14 6;
#X connect 23 6 15 6;
#X connect 23 6 39 6;
#X connect 23 7 14 7;
#X connect 23 7 15 7;
#X connect 23 7 39 7;
#X connect 23 8 14 8;
#X connect 23 8 15 8;
#X connect 23 8 39 8;
#X connect 23 9 14 9;
#X connect 23 9 15 9;
#X connect 23 9 39 9;
#X connect 23 10 14 10;
#X connect 23 10 15 10;
#X connect 23 10 39 10;
#X connect 23 11 14 11;
#X connect 23 11 15 11;
#X connect 23 11 39 11;
#X connect 23 12 14 12;
#X connect 23 12 15 12;
#X connect 23 12 39 12;
#X connect 23 13 14 13;
#X connect 23 13 15 13;
#X connect 23 13 39 13;
#X connect 23 14 14 14;
#X connect 23 14 15 14;
#X connect 23 14 39 14;
#X connect 24 0 26 0;
#X connect 25 0 24 0;
#X connect 31 0 22 1;
#X connect 32 0 4 0;
#X connect 33 0 16 0;
#X connect 33 1 16 1;
#X connect 33 2 16 2;
#X connect 33 3 16 3;
#X connect 33 4 16 4;
#X connect 33 5 16 5;
#X connect 33 6 16 6;
#X connect 33 7 16 7;
#X connect 33 8 16 8;
#X connect 33 9 16 9;
#X connect 33 10 16 10;
#X connect 33 11 16 11;
#X connect 33 12 16 12;
#X connect 33 13 16 13;
#X connect 33 14 16 14;
#X connect 33 15 16 15;
#X connect 34 0 17 0;
#X connect 34 1 17 1;
#X connect 34 2 17 2;
#X connect 34 3 17 3;
#X connect 34 4 17 4;
#X connect 36 0 39 14;
#X connect 37 0 36 0;
#X connect 39 0 30 0;
#X connect 39 0 2 0;
#X connect 39 1 3 0;
#X connect 39 1 30 1;
#X coords 0 687 1 686 100 60 0;
