#N canvas 550 310 388 106 10;
#X text 14 26 2012-2013 : by P. Guillot \, E. Paris & J. Colafrancesco
;
#X text 14 13 HOA Library - CICM | Universite Paris 8 | Labex Arts
H2H;
#X text 14 62 2015-2016 : by P. Guillot & E. Paris;
#X text 14 74 http://www.mshparisnord.fr/hoalibrary/;
#X text 14 49 2014-2015 : by P. Guillot \, E. Paris & T. Le Meur;
#X text 14 37 2013-2014 : by P. Guillot & E. Paris;
