#N canvas 550 310 388 93 10;
#X text 14 26 2012-2013 : by P. Guillot \, E. Paris & J. Colafrancesco
;
#X text 14 39 2012-2015 : by P. Guillot \, E. Paris & T. Le Meur;
#X text 14 13 HOA Library - CICM | Universite Paris 8 | Labex Arts
H2H;
#X text 14 52 2015-2016 : by P. Guillot & E. Paris;
#X text 14 64 http://www.mshparisnord.fr/hoalibrary/;
