#N canvas 117 38 901 661 10;
#X declare -path ..;
#X obj 817 38 hoa.connect;
#X obj 827 9 bng 15 250 50 0 empty empty empty 17 7 0 10 -262144 -1
-1;
#X text 15 152 2nd argument is the name of the patcher to instantiate.
;
#X text 15 102 1st argument is the order if you use hoa.process~ in
the circular harmonics domain or the number of channels if you use
it in the plane waves domain.;
#X text 15 272 Extra arguments and attributes are sent to object hoa.this.process~
if there is one inside the patcher. You should look at the help.;
#X text 15 322 The number of inlets and outlets depends on the inlet
and outlet configuration of the patcher. You should look at the help.
;
#X text 15 372 Important: If you edit the patcher \, you have recreate
hoa.process~ to reflect the changes.;
#X text 12 47 hoa.process~ helps the creation of processing in the
circular or spherical harmonics and plane waves domains by instantiating
several instances of a patcher.;
#X text 15 172 3rd argument is the domain \, harmonics (default) or
planewaves. Note that if you use hoa.process~ in the harmonics domain
\, it instantiates 2 * order + 1 times (the number of harmonics in
2D) or (order + 1) * (order + 1) (the number of harmonics in 3D) the
partcher and if you use it in the plane waves domain \, it instanctiates
the patcher as many times as the number of channels.;
#X text 435 50 Open;
#X text 435 70 Use open message to open a specific instance :;
#X msg 436 94 open 1;
#X msg 497 94 open all;
#X obj 12 424 declare -path ..;
#X obj 12 447 hoa.credits;
#X obj 92 447 hoa-help;
#X obj 487 31 sig~ 1;
#X obj 436 123 hoa.2d.process~ 4 ../misc/hoa.proc.ex2 planewaves;
#X obj 436 155 ../misc/hoa.number~;
#X obj 508 155 ../misc/hoa.number~;
#X obj 581 155 ../misc/hoa.number~;
#X obj 654 155 ../misc/hoa.number~;
#X obj 727 155 ../misc/hoa.number~;
#X obj 547 31 sig~ 2;
#X obj 607 31 sig~ 3;
#X obj 657 31 sig~ 4;
#X obj 707 31 sig~ 5;
#X obj 767 31 sig~ 0.25;
#X connect 1 0 0 0;
#X connect 11 0 17 0;
#X connect 12 0 17 0;
#X connect 16 0 17 0;
#X connect 17 0 18 0;
#X connect 17 1 19 0;
#X connect 17 2 20 0;
#X connect 17 3 21 0;
#X connect 17 4 22 0;
#X connect 23 0 17 1;
#X connect 24 0 17 2;
#X connect 25 0 17 3;
#X connect 26 0 17 4;
#X connect 27 0 17 5;
