#N canvas 1 23 1427 663 10;
#X obj 40 229 hoa.in;
#X text 5 48 The inlet and outlet to use in the hoa.process~'s patchers
;
#X obj 187 229 hoa.in~;
#X obj 110 229 hoa.in;
#X obj 110 328 hoa.out;
#X obj 40 328 hoa.out;
#X obj 187 329 hoa.out~;
#X obj 221 273 c.number~ @size 53 17 @fontname "Helvetica" @fontweight
"normal" @fontslant "roman" @fontsize 11 @receive "(null)" @send "(null)"
@interval 50 @decimal 6 @bgcolor 0.75 0.75 0.75 1 @bdcolor 0.5 0.5
0.5 1 @textcolor 0 0 0 1;
#X obj 287 229 hoa.in~;
#X obj 287 329 hoa.out~;
#X obj 321 273 c.number~ @size 53 17 @fontname "Helvetica" @fontweight
"normal" @fontslant "roman" @fontsize 11 @receive "(null)" @send "(null)"
@interval 50 @decimal 6 @bgcolor 0.75 0.75 0.75 1 @bdcolor 0.5 0.5
0.5 1 @textcolor 0 0 0 1;
#X obj 681 273 c.number~ @size 53 17 @fontname "Helvetica" @fontweight
"normal" @fontslant "roman" @fontsize 11 @receive "(null)" @send "(null)"
@interval 50 @decimal 6 @bgcolor 0.75 0.75 0.75 1 @bdcolor 0.5 0.5
0.5 1 @textcolor 0 0 0 1;
#X obj 801 273 c.number~ @size 53 17 @fontname "Helvetica" @fontweight
"normal" @fontslant "roman" @fontsize 11 @receive "(null)" @send "(null)"
@interval 50 @decimal 6 @bgcolor 0.75 0.75 0.75 1 @bdcolor 0.5 0.5
0.5 1 @textcolor 0 0 0 1;
#X obj 430 229 hoa.in extra 1;
#X obj 430 329 hoa.out extra 1;
#X obj 647 229 hoa.in~ extra 1;
#X obj 540 229 hoa.in extra 3;
#X obj 540 329 hoa.out extra 4;
#X obj 647 329 hoa.out~ extra 1;
#X obj 767 229 hoa.in~ extra 2;
#X obj 767 329 hoa.out~ extra 2;
#X text 39 165 hoa.in~ and hoa.in share the same parent inlet but the
signal is routed to the hoa.in~ and the other messages are routed to
hoa.in.;
#X text 8 425 With the above hoa.io configuration \, the hoa.process~
have one inlet per instance \, that send messages to the two hoa.in
and the signal to the two hoa.in~ \, and two outlet per instance \,
the first one outputs the sum of the signal received by the hoa.out~
and the second one outputs the message received by the hoa.out.;
#X text 459 165 hoa.in~ and hoa.in with the same extra argument share
the same parent inlet but the signal is routed to the hoa.in~ and the
other messages are routed to hoa.in.;
#X obj 462 273 c.number @size 53 17 @fontname "Helvetica" @fontweight
"normal" @fontslant "roman" @fontsize 11 @receive "(null)" @send "(null)"
@presetname "(null)" @min "(null)" @max "(null)" @minmax "(null)" "(null)"
@decimal 6 @bgcolor 0.75 0.75 0.75 1 @bdcolor 0.5 0.5 0.5 1 @textcolor
0 0 0 1;
#X obj 52 273 c.number @size 53 17 @fontname "Helvetica" @fontweight
"normal" @fontslant "roman" @fontsize 11 @receive "(null)" @send "(null)"
@presetname "(null)" @min "(null)" @max "(null)" @minmax "(null)" "(null)"
@decimal 6 @bgcolor 0.75 0.75 0.75 1 @bdcolor 0.5 0.5 0.5 1 @textcolor
0 0 0 1;
#X obj 122 273 c.number @size 53 17 @fontname "Helvetica" @fontweight
"normal" @fontslant "roman" @fontsize 11 @receive "(null)" @send "(null)"
@presetname "(null)" @min "(null)" @max "(null)" @minmax "(null)" "(null)"
@decimal 6 @bgcolor 0.75 0.75 0.75 1 @bdcolor 0.5 0.5 0.5 1 @textcolor
0 0 0 1;
#X obj 899 292 c.number @size 53 17 @fontname "Helvetica" @fontweight
"normal" @fontslant "roman" @fontsize 11 @receive "(null)" @send "(null)"
@presetname "(null)" @min "(null)" @max "(null)" @minmax "(null)" "(null)"
@decimal 6 @bgcolor 0.75 0.75 0.75 1 @bdcolor 0.5 0.5 0.5 1 @textcolor
0 0 0 1;
#X obj 964 268 c.number @size 53 17 @fontname "Helvetica" @fontweight
"normal" @fontslant "roman" @fontsize 11 @receive "(null)" @send "(null)"
@presetname "(null)" @min "(null)" @max "(null)" @minmax "(null)" "(null)"
@decimal 6 @bgcolor 0.75 0.75 0.75 1 @bdcolor 0.5 0.5 0.5 1 @textcolor
0 0 0 1;
#X obj 940 314 sig~ 1;
#X obj 1011 294 sig~ 2;
#X obj 1082 264 sig~ 3;
#X obj 1036 238 c.number @size 53 17 @fontname "Helvetica" @fontweight
"normal" @fontslant "roman" @fontsize 11 @receive "(null)" @send "(null)"
@presetname "(null)" @min "(null)" @max "(null)" @minmax "(null)" "(null)"
@decimal 6 @bgcolor 0.75 0.75 0.75 1 @bdcolor 0.5 0.5 0.5 1 @textcolor
0 0 0 1;
#X obj 940 384 c.number~ @size 53 17 @fontname "Helvetica" @fontweight
"normal" @fontslant "roman" @fontsize 11 @receive "(null)" @send "(null)"
@interval 50 @decimal 6 @bgcolor 0.75 0.75 0.75 1 @bdcolor 0.5 0.5
0.5 1 @textcolor 0 0 0 1;
#X obj 972 414 c.number~ @size 53 17 @fontname "Helvetica" @fontweight
"normal" @fontslant "roman" @fontsize 11 @receive "(null)" @send "(null)"
@interval 50 @decimal 6 @bgcolor 0.75 0.75 0.75 1 @bdcolor 0.5 0.5
0.5 1 @textcolor 0 0 0 1;
#X obj 1004 444 c.number~ @size 53 17 @fontname "Helvetica" @fontweight
"normal" @fontslant "roman" @fontsize 11 @receive "(null)" @send "(null)"
@interval 50 @decimal 6 @bgcolor 0.75 0.75 0.75 1 @bdcolor 0.5 0.5
0.5 1 @textcolor 0 0 0 1;
#X text 916 498 instance.;
#X obj 1225 284 sig~ 1.5;
#X obj 1037 384 c.number~ @size 53 17 @fontname "Helvetica" @fontweight
"normal" @fontslant "roman" @fontsize 11 @receive "(null)" @send "(null)"
@interval 50 @decimal 6 @bgcolor 0.75 0.75 0.75 1 @bdcolor 0.5 0.5
0.5 1 @textcolor 0 0 0 1;
#X obj 1069 414 c.number~ @size 53 17 @fontname "Helvetica" @fontweight
"normal" @fontslant "roman" @fontsize 11 @receive "(null)" @send "(null)"
@interval 50 @decimal 6 @bgcolor 0.75 0.75 0.75 1 @bdcolor 0.5 0.5
0.5 1 @textcolor 0 0 0 1;
#X obj 940 346 hoa.2d.process~ 3 hoa.ioexample~ planewaves ----------------
;
#X text 916 468 The 3 instance;
#X text 916 478 signal outlets \,;
#X text 916 488 one for each;
#X text 916 508 Each instance;
#X text 916 518 have two hoa.out~;
#X text 916 528 that sum the;
#X text 916 538 signals of the;
#X text 916 548 hoa.in~.;
#X text 1029 468 The 2 extra;
#X text 1029 478 signal outlets.;
#X text 1029 498 outputs the;
#X text 1029 508 sum of the;
#X text 1029 518 signals received;
#X text 1029 548 extra hoa.out~;
#X text 1029 488 Each one;
#X text 1029 528 by the;
#X text 1029 538 corresponding;
#X obj 1154 314 sig~ 0.333333;
#X obj 1102 384 c.number @size 53 17 @fontname "Helvetica" @fontweight
"normal" @fontslant "roman" @fontsize 11 @receive "(null)" @send "(null)"
@presetname "(null)" @min "(null)" @max "(null)" @minmax "(null)" "(null)"
@decimal 6 @bgcolor 0.75 0.75 0.75 1 @bdcolor 0.5 0.5 0.5 1 @textcolor
0 0 0 1;
#X obj 1134 414 c.number @size 53 17 @fontname "Helvetica" @fontweight
"normal" @fontslant "roman" @fontsize 11 @receive "(null)" @send "(null)"
@presetname "(null)" @min "(null)" @max "(null)" @minmax "(null)" "(null)"
@decimal 6 @bgcolor 0.75 0.75 0.75 1 @bdcolor 0.5 0.5 0.5 1 @textcolor
0 0 0 1;
#X obj 1167 444 c.number @size 53 17 @fontname "Helvetica" @fontweight
"normal" @fontslant "roman" @fontsize 11 @receive "(null)" @send "(null)"
@presetname "(null)" @min "(null)" @max "(null)" @minmax "(null)" "(null)"
@decimal 6 @bgcolor 0.75 0.75 0.75 1 @bdcolor 0.5 0.5 0.5 1 @textcolor
0 0 0 1;
#X text 1136 498 instance.;
#X text 1136 468 The 3 instance;
#X text 1136 488 one for each;
#X text 1136 478 messages outlets \,;
#X text 1136 508 Each one outputs;
#X text 1136 518 the messages;
#X text 1136 528 received by the;
#X text 1136 538 hoa.out~ of;
#X text 1136 548 its instance.;
#X obj 899 267 c.loadmess 1;
#X obj 964 237 c.loadmess 2;
#X obj 1036 207 c.loadmess 3;
#X obj 1199 393 c.number @size 53 17 @fontname "Helvetica" @fontweight
"normal" @fontslant "roman" @fontsize 11 @receive "(null)" @send "(null)"
@presetname "(null)" @min "(null)" @max "(null)" @minmax "(null)" "(null)"
@decimal 6 @bgcolor 0.75 0.75 0.75 1 @bdcolor 0.5 0.5 0.5 1 @textcolor
0 0 0 1;
#X text 886 78 The hoa.io configuration of this patch inside a hoa.process~
in planewaves mode with 3 instance.;
#X text 8 75 hoa.io without arguments create an inlet for each instance
of the process. You can have several hoa.io without arguments in a
patcher but they will share the same parent inlet and outlet.;
#X text 459 376 hoa.out~ and hoa.out with the same extra argument have
separated parent outlets for signal or other messages.;
#X text 39 376 hoa.out~ and hoa.out have separated parent outlets for
signal or other messages.;
#X text 448 75 hoa.io with the argument extra and a number (or default
1) create an extra inlet or outlet that will be shared by all the instances.
You can have several hoa.io with the same extra argument in a patcher
but they will share the same parent inlet and outlet.;
#X text 448 425 With the above hoa.io configuration \, the hoa.process~
have 3 extra inlets and 6 extra outlets \, 2 for the signal and 4 for
the messages. The extra hoa.in~ receives the signals from the extra
inlets 1 and 2 of the hoa.process~ and the extra hoa.in receives the
messages from the extra inlets 1 and 3 (note that if you target the
hoa.process~ only the target instace receive the messages). The extra
signal outlets output the sum of the extra hoa.out~ of all the instances
that correspond to their index. The extra message outlet 1 outputs
the messages received by the hoa.out extra 1 of all the instance and
the extra message outlet 4 outputs the messages received by the hoa.out
extra 4 of all the instance. Note that the messages sent to the extra
inlet 2 are not received because there is no hoa.in extra 2 and the
extra messages outlets 2 and 3 are useless because there are no hoa.out
extra 2 and 3;
#X text 1249 498 outputs the;
#X text 1249 488 Each one;
#X text 1249 518 by the;
#X text 1249 528 corresponding;
#X text 1249 468 The 4 extra;
#X text 1249 478 messages outlets.;
#X text 1249 508 messages received;
#X text 1249 538 extra hoa.out.;
#X text 1249 548 Then \, extra messages;
#X text 1249 558 outlet 2 and 3 are;
#X text 1249 568 useless.;
#X obj 1134 292 c.number @size 53 17 @fontname "Helvetica" @fontweight
"normal" @fontslant "roman" @fontsize 11 @receive "(null)" @send "(null)"
@presetname "(null)" @min "(null)" @max "(null)" @minmax "(null)" "(null)"
@decimal 6 @bgcolor 0.75 0.75 0.75 1 @bdcolor 0.5 0.5 0.5 1 @textcolor
0 0 0 1;
#X obj 1134 240 c.loadmess 69;
#X msg 560 275;
#X msg 1297 277 set Année érotique;
#X msg 1297 392 Année érotique;
#X msg 1297 367 set \$1 \$2;
#X text 916 118 The 3 instance signal and messages;
#X text 916 128 inlets \, one for each instance.;
#X text 916 138 The messages are sent to the hoa.in.;
#X text 916 148 The signals are sent to the hoa.in~.;
#X text 1156 118 The 3 extra signal and messages;
#X text 1156 128 inlets.;
#X text 1156 138 The extra inlet 1 \, send the messages;
#X text 1156 148 to the hoa.in extra 1 and the signal;
#X text 1156 158 to the hoa.in~ extra 1;
#X text 1156 168 The extra inlet 2 \, send the signal;
#X text 1156 178 to the hoa.in~ extra 2;
#X text 1156 188 The extra inlet 3 \, send the messages;
#X text 1156 198 to the hoa.in extra 3;
#X msg 927 37 \; pd dsp 1;
#X msg 991 37 \; pd dsp 0;
#X text 905 593 The hoa.io configuration of this patch is an example
made to show all the behaviors of the hoa.io. You would prefer to look
at the real uses of hoa.process~.;
#X obj 13 22 c.patcherinfos;
#X obj 18 5 loadbang;
#X obj 3 5 hoa.help.header;
#X obj 16 551 hoa.help.pub;
#X obj 439 5 hoa.help.also;
#X connect 0 0 5 0;
#X connect 0 0 25 0;
#X connect 2 0 7 0;
#X connect 2 0 6 0;
#X connect 3 0 4 0;
#X connect 3 0 26 0;
#X connect 8 0 10 0;
#X connect 8 0 9 0;
#X connect 13 0 24 0;
#X connect 13 0 14 0;
#X connect 15 0 11 0;
#X connect 15 0 18 0;
#X connect 16 0 17 0;
#X connect 16 0 94 0;
#X connect 19 0 12 0;
#X connect 19 0 20 0;
#X connect 27 0 40 0;
#X connect 28 0 40 1;
#X connect 29 0 40 0;
#X connect 30 0 40 1;
#X connect 31 0 40 2;
#X connect 32 0 40 2;
#X connect 37 0 40 4;
#X connect 40 0 33 0;
#X connect 40 1 34 0;
#X connect 40 2 35 0;
#X connect 40 3 38 0;
#X connect 40 4 39 0;
#X connect 40 5 59 0;
#X connect 40 6 60 0;
#X connect 40 7 61 0;
#X connect 40 8 74 0;
#X connect 40 11 97 0;
#X connect 58 0 40 3;
#X connect 71 0 27 0;
#X connect 72 0 28 0;
#X connect 73 0 32 0;
#X connect 92 0 40 3;
#X connect 93 0 92 0;
#X connect 95 0 40 5;
#X connect 97 0 96 0;
#X connect 114 0 116 0;
#X connect 115 0 114 0;
