#N canvas 100 82 1101 686 10;
#X msg 69 164 channels \$1;
#X msg 69 539 0.876279 1 1 1 0.0306693 0.0306693 0.0137424 0 0 0.017797
0.0343521 0.0879706 0.0634424 0 0 0;
#X text 77 119 Number of channels;
#X text 203 130 Coefficients;
#X obj 195 105 loadbang;
#X msg 195 153 0.876279 1 1 1 0.0306693 0.0306693 0.0137424 0 0 0.017797
0.0343521 0.0879706 0.0634424;
#X obj 69 511 c.prepend set;
#X obj 69 141 c.number @size 53 17 @fontname "Helvetica" @fontweight
"normal" @fontslant "roman" @fontsize 11 @receive "(null)" @send "(null)"
@presetname "(null)" @min 1 @max 250 @minmax 1 250 @decimal 6 @bgcolor
0.76 0.76 0.76 1 @bdcolor 0.5 0.5 0.5 1 @textcolor 0 0 0 1;
#X obj 69 97 c.loadmess set 16;
#X obj 418 484 c.preset @size 121 41 @fontname "Helvetica" @fontweight
"normal" @fontslant "roman" @fontsize 11 @receive "(null)" @send "(null)"
@bgcolor 0.75 0.75 0.75 1 @bdcolor 0.5 0.5 0.5 1 @textcolor 0 0 0 1
@emcolor 0.85 0.85 0.85 1 @stcolor 0.5 0.5 0.5 1 @secolor 0.15 0.15
0.15 1 @preset [ @index 0 @spacepreset hoa.2d.space list 0.268812 0.308778
0.42228 0.568753 0.788201 0.80421 0.876024 0.907126 1 0.103335 0.134466
0.255546 0.394962 0.394665 0.397036 0.343979 @index 1 @spacepreset
hoa.2d.space list 0.532779 0.588845 0.684887 0 0 0 0.0445425 0.0978753
0.143325 0.0625148 0.030905 0.034628 0.0435662 0.501465 0.549832 0.479624
@index 2 @spacepreset hoa.2d.space list 0 0 0 0 0 0 1 0 0 0 0 0.0100281
0.00180078 0.451538 1 0 @index 3 @spacepreset hoa.2d.space list 0 0.00669422
1 0 0 0 1 0 0 0 1 0.0100281 0.00180078 0.451538 1 0 @index 4 @spacepreset
hoa.2d.space list 0.931365 0.0690971 0 0 0.930903 0.705041 0 0 0.930903
0.0784322 0.00236926 0.420463 0.962103 0.0690971 0 0.00623167 @index
5 @spacepreset hoa.2d.space list 1 0.714482 0.645385 0.645385 1 1 0.645385
0.692838 1 0.723817 0.647754 1 1 0.714482 0.645385 0.651617 ];
#X msg 418 444 inter \$1;
#X obj 418 416 c.number @size 53 17 @fontname "Helvetica" @fontweight
"normal" @fontslant "roman" @fontsize 11 @receive "(null)" @send "(null)"
@presetname "(null)" @min 1 @max "(null)" @minmax 1 "(null)" @decimal
6 @bgcolor 0.75 0.75 0.75 1 @bdcolor 0.5 0.5 0.5 1 @textcolor 0 0 0
1;
#X obj 418 390 line;
#X msg 418 359 1 \, 6 6000;
#X text 388 204 1 - Click and drag to;
#X text 388 214 set the coefficients.;
#X text 388 234 2 - Hold shift and click;
#X text 388 244 and drag to increase or;
#X text 388 264 coefficients together.;
#X text 388 254 decrease all the;
#X text 388 294 click and drag to compute;
#X text 388 304 a rotation of the coefficients;
#X text 416 332 Preset :;
#X obj 31 141 c.bang @size 17 17 @fontname "Helvetica" @fontweight
"normal" @fontslant "roman" @fontsize 11 @receive "(null)" @send "(null)"
@bgcolor 0.75 0.75 0.75 1 @bdcolor 0.5 0.5 0.5 1 @bacolor 0 0 0 1;
#X obj 69 222 hoa.2d.space @size 269 269 @fontname "Helvetica" @fontweight
"normal" @fontslant "roman" @fontsize 11 @receive "hoaspacer" @send
"hoaspaces" @presetname "spacepreset" @channels 16 @minmax 0 1 @bgcolor
0.76 0.76 0.76 1 @bdcolor 0.7 0.7 0.7 1 @spcolor 0.272711 0.434756
0.545421 0.25 @ptcolor 0 0 0 1;
#X text 388 284 3 - Hold alt and;
#X obj 590 30 hoa.connect;
#X obj 590 11 bng 15 250 50 0 empty empty empty 17 7 0 10 -262144 -1
-1;
#X obj 632 361 hoa.2d.projector~ 7 16 ---------;
#X obj 632 69 hoa.soundcoat;
#X obj 632 158 hoa.2d.scope~ @size 195 195 @fontname "Helvetica" @fontweight
"normal" @fontslant "roman" @fontsize 11 @receive "(null)" @send "(null)"
@order 7 @view 0 @gain 10 @interval 100 @bgcolor 0.76 0.76 0.76 1 @bdcolor
0.7 0.7 0.7 1 @phcolor 1 0 0 1 @nhcolor 0 0 1 1;
#X obj 632 445 hoa.2d.recomposer~ 7 16 --------;
#X obj 823 382 r hoaspaces;
#X obj 632 100 c.gain~ @size 150 10 @fontname "Helvetica" @fontweight
"normal" @fontslant "roman" @fontsize 11 @receive "(null)" @send "(null)"
@presetname "(null)" @mode 0 @ramp 20 @bgcolor 0.75 0.75 0.75 1 @bdcolor
0.5 0.5 0.5 1 @kncolor 0.5 0.5 0.5 1;
#X text 838 404 Spatial;
#X text 838 414 filetring;
#X msg 889 118 size \$1;
#X obj 821 92 r hoagrain;
#X obj 889 149 s hoagrain;
#X obj 889 91 c.number @size 53 17 @fontname "Helvetica" @fontweight
"normal" @fontslant "roman" @fontsize 11 @receive "(null)" @send "(null)"
@presetname "(null)" @min 0 @max "(null)" @minmax 0 "(null)" @decimal
6 @bgcolor 0.75 0.75 0.75 1 @bdcolor 0.5 0.5 0.5 1 @textcolor 0 0 0
1;
#X msg 895 521 \; pd dsp 1;
#X msg 895 556 \; pd dsp 0;
#X obj 979 91 c.number @size 53 17 @fontname "Helvetica" @fontweight
"normal" @fontslant "roman" @fontsize 11 @receive "(null)" @send "(null)"
@presetname "(null)" @min 0 @max 5000 @minmax 0 5000 @decimal 6 @bgcolor
0.75 0.75 0.75 1 @bdcolor 0.5 0.5 0.5 1 @textcolor 0 0 0 1;
#X msg 979 118 delay \$1;
#X obj 889 269 s hoagrain;
#X obj 889 211 c.number @size 53 17 @fontname "Helvetica" @fontweight
"normal" @fontslant "roman" @fontsize 11 @receive "(null)" @send "(null)"
@presetname "(null)" @min 0 @max 1 @minmax 0 1 @decimal 6 @bgcolor
0.75 0.75 0.75 1 @bdcolor 0.5 0.5 0.5 1 @textcolor 0 0 0 1;
#X obj 979 211 c.number @size 53 17 @fontname "Helvetica" @fontweight
"normal" @fontslant "roman" @fontsize 11 @receive "(null)" @send "(null)"
@presetname "(null)" @min 0 @max 1 @minmax 0 1 @decimal 6 @bgcolor
0.75 0.75 0.75 1 @bdcolor 0.5 0.5 0.5 1 @textcolor 0 0 0 1;
#X msg 889 238 feedback \$1;
#X msg 979 238 rarefaction \$1;
#X obj 889 63 c.loadmess 20;
#X obj 979 63 c.loadmess 5000;
#X obj 979 183 c.loadmess 0.4;
#X obj 889 183 c.loadmess 0.8;
#N canvas 237 132 503 391 hoa_grain_env 0;
#X obj 270 148 / 256;
#X obj 270 193 * 1;
#X obj 270 247 * 0.5;
#X obj 270 219 sin;
#X obj 270 271 + 0.5;
#X obj 271 8 c.loadmess;
#X obj 270 120 t f f;
#X obj 270 299 pack;
#X obj 306 166 hoa.pi 1;
#X obj 270 169 - 0.5;
#X obj 271 32 t b b;
#X obj 270 323 tabwrite \$0-hoa_grain_array;
#X obj 270 76 until;
#X obj 270 97 f;
#X obj 297 98 + 1;
#X msg 270 55 512;
#X connect 0 0 9 0;
#X connect 1 0 3 0;
#X connect 2 0 4 0;
#X connect 3 0 2 0;
#X connect 4 0 7 0;
#X connect 5 0 10 0;
#X connect 6 0 0 0;
#X connect 6 1 7 1;
#X connect 7 0 11 0;
#X connect 8 0 1 1;
#X connect 9 0 1 0;
#X connect 10 0 15 0;
#X connect 10 1 8 0;
#X connect 12 0 13 0;
#X connect 13 0 14 0;
#X connect 13 0 6 0;
#X connect 14 0 13 1;
#X connect 15 0 12 0;
#X restore 675 38 pd hoa_grain_env;
#X obj 674 18 table \$0-hoa_grain_array 512;
#X obj 632 699 hoa.dac~ 1:16 ------------------;
#X obj 632 672 hoa.decoder~ 7 ambisonic 16 ----;
#X obj 632 118 hoa.2d.process~ 7 hoa.syn.grain~ harmonics \$0-hoa_grain_array
, f 32;
#X text 6 49 hoa.2d.space is a graphical user interface that facilitates
the control of processing in the plane wave domain., f 80;
#X obj 632 403 hoa.2d.process~ 16 hoa.fx.gain~ planewaves, f 32;
#X obj 632 468 hoa.2d.scope~ @size 195 195 @fontname "Helvetica" @fontweight
"normal" @fontslant "roman" @fontsize 11 @receive "(null)" @send "(null)"
@order 7 @view 0 @gain 10 @interval 100 @bgcolor 0.76 0.76 0.76 1 @bdcolor
0.7 0.7 0.7 1 @phcolor 1 0 0 1 @nhcolor 0 0 1 1;
#X obj 13 22 c.patcherinfos;
#X obj 18 5 loadbang;
#X obj 3 5 hoa.help.header;
#X obj 104 626 hoa.help.pub;
#X obj 430 5 hoa.help.also;
#X connect 0 0 24 0;
#X connect 4 0 5 0;
#X connect 5 0 24 0;
#X connect 6 0 1 0;
#X connect 7 0 0 0;
#X connect 8 0 7 0;
#X connect 10 0 9 0;
#X connect 11 0 10 0;
#X connect 12 0 11 0;
#X connect 13 0 12 0;
#X connect 23 0 24 0;
#X connect 24 0 6 0;
#X connect 27 0 26 0;
#X connect 28 0 59 0;
#X connect 28 1 59 1;
#X connect 28 2 59 2;
#X connect 28 3 59 3;
#X connect 28 4 59 4;
#X connect 28 5 59 5;
#X connect 28 6 59 6;
#X connect 28 7 59 7;
#X connect 28 8 59 8;
#X connect 28 9 59 9;
#X connect 28 10 59 10;
#X connect 28 11 59 11;
#X connect 28 12 59 12;
#X connect 28 13 59 13;
#X connect 28 14 59 14;
#X connect 28 15 59 15;
#X connect 29 0 33 0;
#X connect 31 0 56 0;
#X connect 31 0 60 0;
#X connect 31 1 56 1;
#X connect 31 1 60 1;
#X connect 31 2 56 2;
#X connect 31 2 60 2;
#X connect 31 3 56 3;
#X connect 31 3 60 3;
#X connect 31 4 56 4;
#X connect 31 4 60 4;
#X connect 31 5 56 5;
#X connect 31 5 60 5;
#X connect 31 6 56 6;
#X connect 31 6 60 6;
#X connect 31 7 56 7;
#X connect 31 7 60 7;
#X connect 31 8 56 8;
#X connect 31 8 60 8;
#X connect 31 9 56 9;
#X connect 31 9 60 9;
#X connect 31 10 56 10;
#X connect 31 10 60 10;
#X connect 31 11 56 11;
#X connect 31 11 60 11;
#X connect 31 12 56 12;
#X connect 31 12 60 12;
#X connect 31 13 56 13;
#X connect 31 13 60 13;
#X connect 31 14 56 14;
#X connect 31 14 60 14;
#X connect 32 0 59 16;
#X connect 33 0 57 0;
#X connect 36 0 38 0;
#X connect 37 0 57 1;
#X connect 39 0 36 0;
#X connect 42 0 43 0;
#X connect 43 0 38 0;
#X connect 45 0 47 0;
#X connect 46 0 48 0;
#X connect 47 0 44 0;
#X connect 48 0 44 0;
#X connect 49 0 39 0;
#X connect 50 0 42 0;
#X connect 51 0 46 0;
#X connect 52 0 45 0;
#X connect 56 0 55 0;
#X connect 56 1 55 1;
#X connect 56 2 55 2;
#X connect 56 3 55 3;
#X connect 56 4 55 4;
#X connect 56 5 55 5;
#X connect 56 6 55 6;
#X connect 56 7 55 7;
#X connect 56 8 55 8;
#X connect 56 9 55 9;
#X connect 56 10 55 10;
#X connect 56 11 55 11;
#X connect 56 12 55 12;
#X connect 56 13 55 13;
#X connect 56 14 55 14;
#X connect 56 15 55 15;
#X connect 57 0 30 0;
#X connect 57 0 28 0;
#X connect 57 1 30 1;
#X connect 57 1 28 1;
#X connect 57 2 30 2;
#X connect 57 2 28 2;
#X connect 57 3 30 3;
#X connect 57 3 28 3;
#X connect 57 4 30 4;
#X connect 57 4 28 4;
#X connect 57 5 30 5;
#X connect 57 5 28 5;
#X connect 57 6 30 6;
#X connect 57 6 28 6;
#X connect 57 7 30 7;
#X connect 57 7 28 7;
#X connect 57 8 30 8;
#X connect 57 8 28 8;
#X connect 57 9 30 9;
#X connect 57 9 28 9;
#X connect 57 10 30 10;
#X connect 57 10 28 10;
#X connect 57 11 30 11;
#X connect 57 11 28 11;
#X connect 57 12 30 12;
#X connect 57 12 28 12;
#X connect 57 13 30 13;
#X connect 57 13 28 13;
#X connect 57 14 30 14;
#X connect 57 14 28 14;
#X connect 59 0 31 0;
#X connect 59 1 31 1;
#X connect 59 2 31 2;
#X connect 59 3 31 3;
#X connect 59 4 31 4;
#X connect 59 5 31 5;
#X connect 59 6 31 6;
#X connect 59 7 31 7;
#X connect 59 8 31 8;
#X connect 59 9 31 9;
#X connect 59 10 31 10;
#X connect 59 11 31 11;
#X connect 59 12 31 12;
#X connect 59 13 31 13;
#X connect 59 14 31 14;
#X connect 59 15 31 15;
#X connect 61 0 63 0;
#X connect 62 0 61 0;
