#N canvas 119 182 927 585 10;
#X text 12 140 The 2nd outlet outputs the hoa.process~ mode.;
#X msg 18 182 open all;
#X msg 18 252 open all;
#X text 83 266 Mode : 2d - planewaves;
#X text 83 196 Mode : 2d - harmonics;
#X msg 18 332 open all;
#X msg 18 402 open all;
#X text 83 346 Mode : 3d - harmonics;
#X text 83 416 Mode : 3d - planewaves;
#X text 483 140 The 4th outlet outputs the patcher attributes.;
#X msg 488 182 open 1;
#X obj 488 222 hoa.2d.process~ 1 hoa.thisprocexample2~ planewaves This
is a rock example @artist Jimi Hendrix @album Electric Ladyland @song
Voodoo Chile;
#X msg 488 322 open 1;
#X obj 488 362 hoa.2d.process~ 1 hoa.thisprocexample2~ planewaves;
#X text 543 184 After the mode \, add arguments and after arguments
\, add the attributes that are defined by a key "@attr".;
#X text 543 324 Without arguments or attributes typed in hoa.process~
\, this.process~ use the default ones if there are defined.;
#X text 473 460 The hoa.thisprocess~ uses of this patch are examples
made to show how it works. You would prefer to look at the real uses
of hoa.process~.;
#X obj 18 442 hoa.3d.process~ 3 hoa.thisprocexample~ planewaves;
#X obj 18 372 hoa.3d.process~ 1 hoa.thisprocexample~ harmonics;
#X obj 15 21 c.patcherinfos;
#X obj 20 4 loadbang;
#X obj 5 4 hoa.help.header;
#X obj 244 516 hoa.help.pub;
#X obj 433 4 hoa.help.also;
#X text 83 184 Args : decomposition order - harmonic degree - harmonics
order, f 62;
#X text 83 334 Args : decomposition order - harmonic degree - harmonic
order, f 61;
#X text 9 47 hoa.thisprocess~ retreives the configuration used by hoa.process~
\, the arguments and the attributes of the patcher.;
#X text 12 120 The 1st outlet outputs the hoa.process~ instance arguments.
;
#X obj 18 222 hoa.2d.process~ 1 hoa.thisprocexample~ harmonics;
#X obj 18 292 hoa.2d.process~ 3 hoa.thisprocexample~ planewaves;
#X text 83 404 Args : number of channels - channel index - channel
index;
#X text 83 254 Args : number of channels - channel index - channel
index;
#X text 483 120 The 3rd outlet outputs the patcher arguments.;
#X connect 1 0 28 0;
#X connect 2 0 29 0;
#X connect 5 0 18 0;
#X connect 6 0 17 0;
#X connect 10 0 11 0;
#X connect 12 0 13 0;
#X connect 19 0 21 0;
#X connect 20 0 19 0;
