#N canvas 479 82 582 686 10;
#X msg 18 366 \; pd dsp 1;
#X msg 18 410 \; pd dsp 0;
#X obj 406 186 line~;
#X msg 406 166 \$1 20;
#X text 467 149 between 0 and 1;
#X text 467 137 Widen value;
#X obj 406 143 c.number @size 53 17 @fontname "Helvetica" @fontweight
"normal" @fontslant "roman" @fontsize 11 @receive "(null)" @send "(null)"
@presetname "(null)" @min 0 @max 1 @minmax 0 1 @decimal 6 @bgcolor
0.7 0.7 0.7 1 @bdcolor 0.5 0.5 0.5 1 @textcolor 0 0 0 1;
#X obj 406 120 c.loadmess 0.175;
#X obj 125 154 hoa.soundrone;
#X obj 12 20 c.patcherinfos;
#X obj 17 3 loadbang;
#X obj 2 3 hoa.help.header;
#X obj 73 744 hoa.help.pub;
#X obj 409 3 hoa.help.also;
#X text 7 47 hoa.3d.wider~ can be used to wide the diffusion of a localised
sound. The degrees depending signals are weighted and appear in a logarithmic
way to have linear changes.;
#X obj 125 264 hoa.3d.scope~ @size 225 225 @fontname "Helvetica" @fontweight
"normal" @fontslant "roman" @fontsize 11 @receive "(null)" @send "(null)"
@order 3 @view 0 0 0 @gain 10 @interval 100 @bgcolor 0.76 0.76 0.76
1 @bdcolor 0.7 0.7 0.7 1 @phcolor 1 0 0 1 @nhcolor 0 0 1 1;
#X obj 44 173 hoa.connect;
#X obj 44 139 bng 15 250 50 0 empty empty empty 17 7 0 10 -262144 -1
-1;
#X obj 125 575 hoa.3d.meter~ @size 225 112.5 @fontname "Helvetica"
@fontweight "normal" @fontslant "roman" @fontsize 11 @receive "(null)"
@send "(null)" @channels 20 @angles 180 69.1 159.1 0 90 20.9 135 35.3
135 -35.3 180 -69.1 20.9 0 90 -20.9 45 35.3 45 -35.3 0 69.1 200.9 0
270 20.9 225 35.3 225 -35.3 0 -69.1 339.1 0 270 -20.9 315 35.3 315
-35.3 @offset 0 0 0 @rotation "anti-clockwise" @view "top-bottom" @vectors
"none" @interval 50 @bgcolor 0.76 0.76 0.76 1 @bdcolor 0.7 0.7 0.7
1 @coldcolor 0 0.6 0 0.8 @tepidcolor 0.6 0.73 0 0.8 @warmcolor 0.85
0.85 0 0.8 @hotcolor 1 0.6 0 0.8 @overcolor 1 0 0 0.8 @energycolor
0 0 1 0.8 @velocitycolor 1 0 0 0.8;
#X obj 125 529 hoa.3d.decoder~ 3 ambisonic 20 ------;
#X obj 125 714 hoa.dac~ 1:20 -----------------------;
#X obj 125 227 hoa.3d.wider~ 3 ---------------------;
#X obj 125 201 hoa.3d.encoder~ 3 ----------------;
#X obj 225 153 c.number @size 53 17 @fontname "Helvetica" @fontweight
"normal" @fontslant "roman" @fontsize 11 @receive "(null)" @send "(null)"
@presetname "(null)" @min "(null)" @max "(null)" @minmax "(null)" "(null)"
@decimal 6 @bgcolor 0.7 0.7 0.7 1 @bdcolor 0.5 0.5 0.5 1 @textcolor
0 0 0 1;
#X obj 225 175 hoa.pi 0;
#X obj 225 130 c.loadmess 0;
#X obj 326 153 c.number @size 53 17 @fontname "Helvetica" @fontweight
"normal" @fontslant "roman" @fontsize 11 @receive "(null)" @send "(null)"
@presetname "(null)" @min "(null)" @max "(null)" @minmax "(null)" "(null)"
@decimal 6 @bgcolor 0.7 0.7 0.7 1 @bdcolor 0.5 0.5 0.5 1 @textcolor
0 0 0 1;
#X obj 326 175 hoa.pi 0;
#X obj 326 130 c.loadmess 0;
#X connect 2 0 21 16;
#X connect 3 0 2 0;
#X connect 6 0 3 0;
#X connect 7 0 6 0;
#X connect 8 0 22 0;
#X connect 9 0 11 0;
#X connect 10 0 9 0;
#X connect 17 0 16 0;
#X connect 19 0 18 0;
#X connect 19 0 20 0;
#X connect 19 1 18 1;
#X connect 19 1 20 1;
#X connect 19 2 18 2;
#X connect 19 2 20 2;
#X connect 19 3 18 3;
#X connect 19 3 20 3;
#X connect 19 4 18 4;
#X connect 19 4 20 4;
#X connect 19 5 18 5;
#X connect 19 5 20 5;
#X connect 19 6 18 6;
#X connect 19 6 20 6;
#X connect 19 7 18 7;
#X connect 19 7 20 7;
#X connect 19 8 18 8;
#X connect 19 8 20 8;
#X connect 19 9 18 9;
#X connect 19 9 20 9;
#X connect 19 10 18 10;
#X connect 19 10 20 10;
#X connect 19 11 18 11;
#X connect 19 11 20 11;
#X connect 19 12 18 12;
#X connect 19 12 20 12;
#X connect 19 13 18 13;
#X connect 19 13 20 13;
#X connect 19 14 18 14;
#X connect 19 14 20 14;
#X connect 19 15 18 15;
#X connect 19 15 20 15;
#X connect 19 16 18 16;
#X connect 19 16 20 16;
#X connect 19 17 18 17;
#X connect 19 17 20 17;
#X connect 19 18 18 18;
#X connect 19 18 20 18;
#X connect 19 19 18 19;
#X connect 19 19 20 19;
#X connect 21 0 15 0;
#X connect 21 0 19 0;
#X connect 21 1 15 1;
#X connect 21 1 19 1;
#X connect 21 2 15 2;
#X connect 21 2 19 2;
#X connect 21 3 15 3;
#X connect 21 3 19 3;
#X connect 21 4 15 4;
#X connect 21 4 19 4;
#X connect 21 5 15 5;
#X connect 21 5 19 5;
#X connect 21 6 15 6;
#X connect 21 6 19 6;
#X connect 21 7 15 7;
#X connect 21 7 19 7;
#X connect 21 8 15 8;
#X connect 21 8 19 8;
#X connect 21 9 15 9;
#X connect 21 9 19 9;
#X connect 21 10 15 10;
#X connect 21 10 19 10;
#X connect 21 11 15 11;
#X connect 21 11 19 11;
#X connect 21 12 15 12;
#X connect 21 12 19 12;
#X connect 21 13 15 13;
#X connect 21 13 19 13;
#X connect 21 14 15 14;
#X connect 21 14 19 14;
#X connect 21 15 15 15;
#X connect 21 15 19 15;
#X connect 22 0 21 0;
#X connect 22 1 21 1;
#X connect 22 2 21 2;
#X connect 22 3 21 3;
#X connect 22 4 21 4;
#X connect 22 5 21 5;
#X connect 22 6 21 6;
#X connect 22 7 21 7;
#X connect 22 8 21 8;
#X connect 22 9 21 9;
#X connect 22 10 21 10;
#X connect 22 11 21 11;
#X connect 22 12 21 12;
#X connect 22 13 21 13;
#X connect 22 14 21 14;
#X connect 22 15 21 15;
#X connect 23 0 24 0;
#X connect 24 0 22 1;
#X connect 25 0 23 0;
#X connect 26 0 27 0;
#X connect 27 0 22 2;
#X connect 28 0 26 0;
#X coords 0 686 1 685 100 60 0;
