#N canvas 120 107 987 685 10;
#X msg 363 389 \; pd dsp 1;
#X msg 363 424 \; pd dsp 0;
#X obj 293 85 hoa.soundgrain;
#X obj 293 114 c.gain~ @size 131 10 @fontname "Helvetica" @fontweight
"normal" @fontslant "roman" @fontsize 11 @receive "(null)" @send "(null)"
@presetname "(null)" @mode 0 @ramp 20 @bgcolor 0.75 0.75 0.75 1 @bdcolor
0.5 0.5 0.5 1 @kncolor 0.5 0.5 0.5 1;
#X obj 578 32 hoa.connect;
#X obj 578 12 bng 15 250 50 0 empty empty empty 17 7 0 10 -262144 -1
-1;
#X obj 470 101 hoa.pi~ 2;
#X obj 6 21 c.patcherinfos;
#X obj 6 4 loadbang;
#X obj 6 4 hoa.help.header;
#X obj 136 632 hoa.help.pub;
#X obj 422 4 hoa.help.also;
#X obj 293 182 hoa.2d.scope~ @size 183 183 @fontname "Helvetica" @fontweight
"normal" @fontslant "roman" @fontsize 11 @receive "(null)" @send "(null)"
@order 7 @view 0 @gain 10 @interval 100 @bgcolor 0.76 0.76 0.76 1 @bdcolor
0.7 0.7 0.7 1 @phcolor 1 0 0 1 @nhcolor 0 0 1 1;
#X obj 287 573 hoa.2d.decoder~ 7 ambisonics 16;
#X obj 287 605 hoa.dac~ 1:16 -----------------;
#X obj 293 132 hoa.2d.encoder~ 7 ------------;
#X obj 23 362 hoa.2d.scope~ @size 189 189 @fontname "Helvetica" @fontweight
"normal" @fontslant "roman" @fontsize 11 @receive "(null)" @send "(null)"
@order 7 @view 0 @gain 10 @interval 100 @bgcolor 0.76 0.76 0.76 1 @bdcolor
0.7 0.7 0.7 1 @phcolor 1 0 0 1 @nhcolor 0 0 1 1;
#X obj 33 190 c.number @size 53 17 @fontname "Helvetica" @fontweight
"normal" @fontslant "roman" @fontsize 11 @receive "(null)" @send "(null)"
@presetname "(null)" @min 0 @max "(null)" @minmax 0 "(null)" @decimal
6 @bgcolor 0.75 0.75 0.75 1 @bdcolor 0.5 0.5 0.5 1 @textcolor 0 0 0
1;
#X obj 533 244 hoa.2d.projector~ 7 16, f 29;
#X obj 533 422 hoa.2d.scope~ @size 189 189 @fontname "Helvetica" @fontweight
"normal" @fontslant "roman" @fontsize 11 @receive "(null)" @send "(null)"
@order 7 @view 0 @gain 10 @interval 100 @bgcolor 0.76 0.76 0.76 1 @bdcolor
0.7 0.7 0.7 1 @phcolor 1 0 0 1 @nhcolor 0 0 1 1;
#X obj 533 378 hoa.2d.recomposer~ 7 16 fixe, f 31;
#X obj 716 72 hoa.2d.space @size 189 189 @fontname "Helvetica" @fontweight
"normal" @fontslant "roman" @fontsize 11 @receive "(null)" @send "(null)"
@presetname "(null)" @channels 16 @minmax 0 5000 @bgcolor 0.76 0.76
0.76 1 @bdcolor 0.7 0.7 0.7 1 @spcolor 0.27 0.43 0.54 0.25 @ptcolor
0 0 0 1;
#X obj 469 76 phasor~ 1;
#X obj 23 309 hoa.2d.process~ 7 hoa.fx.delay~ harmonics, f 31;
#X obj 533 309 hoa.2d.process~ 16 hoa.fx.delay~ planewaves, f 31;
#X text 725 267 Control the delay time of each channel with a list
or the hoa.2d.space GUI., f 31;
#X text 11 48 hoa.fx.delay~ uses delay lines without flanging effect
to diffuse a sound field.;
#X text 35 120 Control the global delay time., f 12;
#X obj 32 169 c.loadmess 1000;
#X connect 2 0 3 0;
#X connect 3 0 15 0;
#X connect 5 0 4 0;
#X connect 6 0 15 1;
#X connect 7 0 9 0;
#X connect 8 0 7 0;
#X connect 13 0 14 0;
#X connect 13 1 14 1;
#X connect 13 2 14 2;
#X connect 13 3 14 3;
#X connect 13 4 14 4;
#X connect 13 5 14 5;
#X connect 13 6 14 6;
#X connect 13 7 14 7;
#X connect 13 8 14 8;
#X connect 13 9 14 9;
#X connect 13 10 14 10;
#X connect 13 11 14 11;
#X connect 13 12 14 12;
#X connect 13 13 14 13;
#X connect 13 14 14 14;
#X connect 13 15 14 15;
#X connect 15 0 12 0;
#X connect 15 0 18 0;
#X connect 15 0 23 0;
#X connect 15 1 12 1;
#X connect 15 1 18 1;
#X connect 15 1 23 1;
#X connect 15 2 12 2;
#X connect 15 2 18 2;
#X connect 15 2 23 2;
#X connect 15 3 12 3;
#X connect 15 3 18 3;
#X connect 15 3 23 3;
#X connect 15 4 12 4;
#X connect 15 4 18 4;
#X connect 15 4 23 4;
#X connect 15 5 12 5;
#X connect 15 5 18 5;
#X connect 15 5 23 5;
#X connect 15 6 12 6;
#X connect 15 6 18 6;
#X connect 15 6 23 6;
#X connect 15 7 12 7;
#X connect 15 7 18 7;
#X connect 15 7 23 7;
#X connect 15 8 12 8;
#X connect 15 8 18 8;
#X connect 15 8 23 8;
#X connect 15 9 12 9;
#X connect 15 9 18 9;
#X connect 15 9 23 9;
#X connect 15 10 12 10;
#X connect 15 10 18 10;
#X connect 15 10 23 10;
#X connect 15 11 12 11;
#X connect 15 11 18 11;
#X connect 15 11 23 11;
#X connect 15 12 12 12;
#X connect 15 12 18 12;
#X connect 15 12 23 12;
#X connect 15 13 12 13;
#X connect 15 13 18 13;
#X connect 15 13 23 13;
#X connect 15 14 12 14;
#X connect 15 14 18 14;
#X connect 15 14 23 14;
#X connect 17 0 23 15;
#X connect 18 0 24 0;
#X connect 18 1 24 1;
#X connect 18 2 24 2;
#X connect 18 3 24 3;
#X connect 18 4 24 4;
#X connect 18 5 24 5;
#X connect 18 6 24 6;
#X connect 18 7 24 7;
#X connect 18 8 24 8;
#X connect 18 9 24 9;
#X connect 18 10 24 10;
#X connect 18 11 24 11;
#X connect 18 12 24 12;
#X connect 18 13 24 13;
#X connect 18 14 24 14;
#X connect 18 15 24 15;
#X connect 20 0 19 0;
#X connect 20 0 13 0;
#X connect 20 1 19 1;
#X connect 20 1 13 1;
#X connect 20 2 19 2;
#X connect 20 2 13 2;
#X connect 20 3 19 3;
#X connect 20 3 13 3;
#X connect 20 4 19 4;
#X connect 20 4 13 4;
#X connect 20 5 19 5;
#X connect 20 5 13 5;
#X connect 20 6 19 6;
#X connect 20 6 13 6;
#X connect 20 7 19 7;
#X connect 20 7 13 7;
#X connect 20 8 19 8;
#X connect 20 8 13 8;
#X connect 20 9 19 9;
#X connect 20 9 13 9;
#X connect 20 10 19 10;
#X connect 20 10 13 10;
#X connect 20 11 19 11;
#X connect 20 11 13 11;
#X connect 20 12 19 12;
#X connect 20 12 13 12;
#X connect 20 13 19 13;
#X connect 20 13 13 13;
#X connect 20 14 19 14;
#X connect 20 14 13 14;
#X connect 21 0 24 16;
#X connect 22 0 6 1;
#X connect 23 0 13 0;
#X connect 23 0 16 0;
#X connect 23 1 13 1;
#X connect 23 1 16 1;
#X connect 23 2 13 2;
#X connect 23 2 16 2;
#X connect 23 3 13 3;
#X connect 23 3 16 3;
#X connect 23 4 13 4;
#X connect 23 4 16 4;
#X connect 23 5 13 5;
#X connect 23 5 16 5;
#X connect 23 6 13 6;
#X connect 23 6 16 6;
#X connect 23 7 13 7;
#X connect 23 7 16 7;
#X connect 23 8 13 8;
#X connect 23 8 16 8;
#X connect 23 9 13 9;
#X connect 23 9 16 9;
#X connect 23 10 13 10;
#X connect 23 10 16 10;
#X connect 23 11 13 11;
#X connect 23 11 16 11;
#X connect 23 12 13 12;
#X connect 23 12 16 12;
#X connect 23 13 13 13;
#X connect 23 13 16 13;
#X connect 23 14 13 14;
#X connect 23 14 16 14;
#X connect 24 0 20 0;
#X connect 24 1 20 1;
#X connect 24 2 20 2;
#X connect 24 3 20 3;
#X connect 24 4 20 4;
#X connect 24 5 20 5;
#X connect 24 6 20 6;
#X connect 24 7 20 7;
#X connect 24 8 20 8;
#X connect 24 9 20 9;
#X connect 24 10 20 10;
#X connect 24 11 20 11;
#X connect 24 12 20 12;
#X connect 24 13 20 13;
#X connect 24 14 20 14;
#X connect 24 15 20 15;
#X connect 28 0 17 0;
#X coords 0 685 1 684 100 60 0;
