#N canvas 476 114 686 323 10;
#X obj 434 208 hoa.connect;
#X obj 434 189 bng 15 250 50 0 empty empty empty 17 7 0 10 -262144
-1 -1;
#X obj 434 150 key;
#X obj 434 169 sel 32;
#X text 5 49 hoa.connect hepls to connect the hoa objects together.
;
#X obj 31 95 hoa.2d.encoder~ 7 ---------------------------;
#X obj 31 146 hoa.2d.decoder~ 7 ambisonic 16 --------------;
#X obj 31 199 hoa.dac~ 1:16 -------------------------------;
#X text 386 86 Select the objects you want to connect;
#X text 386 96 then bang hoa.connect. In this example \,;
#X text 386 106 we use the space key to generate the bang.;
#X obj 13 23 c.patcherinfos;
#X obj 18 6 loadbang;
#X obj 3 6 hoa.help.header;
#X obj 49 242 hoa.help.pub;
#X obj 425 6 hoa.help.also;
#X connect 1 0 0 0;
#X connect 2 0 3 0;
#X connect 3 0 1 0;
#X connect 11 0 13 0;
#X connect 12 0 11 0;
#X coords 0 323 1 322 100 60 0;
