#N canvas 619 271 450 300 10;
#X obj 85 77 inlet~;
#X obj 103 100 hsl 128 15 0 127 0 0 empty empty empty -2 -8 0 10 -262144
-1 -1 10000 1;
#X obj 193 50 loadbang;
#X obj 193 72 f 100;
#X obj 100 120 dbtorms;
#X obj 100 142 line~;
#X obj 85 165 *~;
#X obj 85 187 outlet~;
#X connect 0 0 6 0;
#X connect 1 0 4 0;
#X connect 2 0 3 0;
#X connect 3 0 1 0;
#X connect 4 0 5 0;
#X connect 5 0 6 1;
#X connect 6 0 7 0;
#X coords 0 -1 1 1 133 15 2 100 100;
