#N canvas 619 271 450 300 10;
#X obj 100 55 inlet~;
#X obj 101 152 vu 12 80 empty empty 0 0 0 4 -262144 -262144 1 0;
#X obj 100 81 snapshot~;
#X obj 164 14 bang~;
#X obj 164 37 f 0;
#X obj 197 37 + 1;
#X obj 164 81 f 0;
#X obj 164 59 sel 30;
#X obj 100 103 rmstodb;
#X obj 100 125 - 100;
#X connect 0 0 2 0;
#X connect 2 0 8 0;
#X connect 3 0 4 0;
#X connect 4 0 7 0;
#X connect 5 0 4 1;
#X connect 6 0 4 1;
#X connect 7 0 6 0;
#X connect 7 0 2 0;
#X connect 7 1 5 0;
#X connect 8 0 9 0;
#X connect 9 0 1 0;
#X coords 0 -1 1 1 14 84 2 100 150;
