#N canvas 552 235 404 523 10;
#X obj 89 340 hoa.out~;
#X obj 192 83 hoa.in extra 1;
#X obj 229 196 list split;
#X obj 182 196 * 1, f 5;
#X obj 142 161 t b f;
#X text 31 390 list : The item is selected depending on the instance
and directly set the delay time of the instance (mostly used in the
plane waves domain).;
#X text 31 450 float : The delay time are mapped depending on the intance
and increase while the index and the band of the harmonics increase.
;
#X text 7 2 This hoa.processing synthesizes a sound field with delay
lines.;
#X obj 89 272 hoa.in~ extra 1;
#X obj 182 113 route float list delay, f 24;
#N canvas 679 142 591 444 delaynoflange 0;
#X obj 353 155 f;
#X obj 171 220 *~ 513;
#X obj 171 248 tabread4~ \$0-hoa_hann1;
#X obj 156 299 *~;
#X obj 352 299 *~;
#X obj 156 155 f;
#X obj 367 248 tabread4~ \$0-hoa_hann1;
#X obj 367 199 wrap~;
#X obj 367 178 +~ 0.5;
#X obj 367 220 *~ 513;
#X obj 353 279 delread~ \$0-hoa.delay 1;
#X obj 156 279 delread~ \$0-hoa.delay 1;
#X obj 171 120 phasor~ 0.5;
#N canvas 970 176 450 300 sel~ 0;
#X obj 73 20 c.loadmess 1;
#X obj 92 141 samphold~;
#X obj 92 165 snapshot~;
#X obj 92 187 change;
#X obj 92 209 < 126;
#X obj 92 233 sel 0 1;
#X obj 38 59 inlet~;
#X obj 108 49 inlet~;
#X obj 92 261 outlet;
#X obj 153 261 outlet;
#X obj 155 232 nbx 5 14 -1e+37 1e+37 0 0 empty empty empty 0 -8 0 10
-262144 -1 -1 256.505 256;
#X obj 73 109 metro 5;
#X connect 0 0 11 0;
#X connect 1 0 2 0;
#X connect 2 0 3 0;
#X connect 3 0 4 0;
#X connect 3 0 10 0;
#X connect 4 0 5 0;
#X connect 5 0 9 0;
#X connect 5 1 8 0;
#X connect 6 0 1 0;
#X connect 6 0 1 1;
#X connect 7 0 1 1;
#X connect 11 0 2 0;
#X restore 299 302 pd sel~;
#X obj 176 75 inlet;
#X obj 219 375 outlet~;
#X obj 108 44 delwrite~ \$0-hoa.delay 5000;
#X obj 108 18 inlet~;
#N canvas 0 22 172 392 table_hanning 0;
#X obj 12 353 table \$0-hoa_hann1 512;
#X obj 13 152 / 256;
#X obj 13 197 * 1;
#X obj 13 251 * 0.5;
#X obj 13 223 sin;
#X obj 13 275 + 0.5;
#X obj 13 124 t f f;
#X obj 13 303 pack;
#X obj 49 170 hoa.pi 1;
#X obj 13 173 - 0.5;
#X obj 14 36 t b b;
#X obj 13 80 until;
#X obj 13 101 f;
#X obj 40 102 + 1;
#X msg 13 59 512;
#X obj 13 327 tabwrite \$0-hoa_hann1;
#X obj 14 12 loadbang;
#X connect 1 0 9 0;
#X connect 2 0 4 0;
#X connect 3 0 5 0;
#X connect 4 0 3 0;
#X connect 5 0 7 0;
#X connect 6 0 1 0;
#X connect 6 1 7 1;
#X connect 7 0 15 0;
#X connect 8 0 2 1;
#X connect 9 0 2 0;
#X connect 10 0 14 0;
#X connect 10 1 8 0;
#X connect 11 0 12 0;
#X connect 12 0 13 0;
#X connect 12 0 6 0;
#X connect 13 0 12 1;
#X connect 14 0 11 0;
#X connect 16 0 10 0;
#X restore 341 49 pd table_hanning;
#X connect 0 0 10 0;
#X connect 1 0 2 0;
#X connect 1 0 13 0;
#X connect 2 0 3 1;
#X connect 3 0 15 0;
#X connect 4 0 15 0;
#X connect 5 0 11 0;
#X connect 6 0 4 1;
#X connect 7 0 9 0;
#X connect 8 0 7 0;
#X connect 9 0 6 0;
#X connect 9 0 13 1;
#X connect 10 0 4 0;
#X connect 11 0 3 0;
#X connect 12 0 1 0;
#X connect 12 0 8 0;
#X connect 13 0 5 0;
#X connect 13 1 0 0;
#X connect 14 0 0 1;
#X connect 14 0 5 1;
#X connect 17 0 16 0;
#X restore 89 301 pd delaynoflange;
#X obj 11 31 hoa.process.args, f 29;
#X obj 68 80 + 1;
#X text 68 168 factor;
#X obj 11 50 t b f;
#X obj 68 110 / 1, f 5;
#X obj 68 136 c.number @size 53 17 @fontname Helvetica @fontweight
normal @fontslant roman @fontsize 11 @receive (null) @send (null) @presetname
(null) @min (null) @max (null) @minmax (null) (null) @decimal 6 @bgcolor
0.75 0.75 0.75 1 @bdcolor 0.5 0.5 0.5 1 @textcolor 0 0 0 1;
#X text 65 154 Instance;
#X obj 276 133 route float list, f 6;
#X obj 257 228 unpack;
#X connect 1 0 9 0;
#X connect 2 1 19 0;
#X connect 3 0 10 1;
#X connect 4 0 3 0;
#X connect 4 1 3 1;
#X connect 8 0 10 0;
#X connect 9 0 3 0;
#X connect 9 1 2 0;
#X connect 9 2 18 0;
#X connect 10 0 0 0;
#X connect 11 0 14 0;
#X connect 11 1 12 0;
#X connect 11 1 2 1;
#X connect 11 2 9 0;
#X connect 11 3 9 0;
#X connect 12 0 15 0;
#X connect 14 0 15 0;
#X connect 14 1 15 1;
#X connect 15 0 16 0;
#X connect 15 0 4 0;
#X connect 18 0 3 0;
#X connect 18 1 2 0;
#X connect 19 0 10 1;
