#N canvas 47 87 571 611 10;
#X obj 30 112 c.gain~ @size 131 10 @fontname Helvetica @fontweight
normal @fontslant roman @fontsize 11 @receive (null) @send (null) @presetname
(null) @mode 0 @ramp 20 @bgcolor 0.75 0.75 0.75 1 @bdcolor 0.5 0.5
0.5 1 @kncolor 0.5 0.5 0.5 1;
#X obj 183 129 c.number @size 53 17 @fontname Helvetica @fontweight
normal @fontslant roman @fontsize 11 @receive (null) @send (null) @presetname
(null) @min 0 @max 5000 @minmax 0 5000 @decimal 6 @bgcolor 0.75 0.75
0.75 1 @bdcolor 0.5 0.5 0.5 1 @textcolor 0 0 0 1;
#X text 244 130 ms;
#X text 181 96 The global delay time., f 12;
#X text 225 193 The delay time is mapped depending on the orders of
the harmonics., f 36;
#X obj 30 193 hoa.3d.process~ 3 hoa.syn.delay~ harmonics 5000, f 31
;
#X obj 30 237 hoa.3d.scope~ @size 189 189 @fontname Helvetica @fontweight
normal @fontslant roman @fontsize 11 @receive (null) @send (null) @order
3 @gain 10 @interval 100 @bgcolor 0.76 0.76 0.76 1 @bdcolor 0.7 0.7
0.7 1 @phcolor 1 0 0 1 @nhcolor 0 0 1 1;
#X obj 30 523 hoa.dac~ 1:20, f 31;
#X obj 30 491 hoa.3d.decoder~ 3 ambisonics 20;
#X obj 30 83 hoa.soundgrain;
#X obj 3 3 hoa.help.header.harmo3d;
#X text 8 47 hoa.syn.delay~ uses delay lines without flanging effect
to synthesize a diffuse a sound field.;
#X obj 36 555 hoa.help.pub;
#X obj 419 3 hoa.help.also;
#X msg 340 375 \; pd dsp 1;
#X msg 340 410 \; pd dsp 0;
#X connect 0 0 5 0;
#X connect 1 0 5 0;
#X connect 5 0 6 0;
#X connect 5 0 8 0;
#X connect 5 1 6 1;
#X connect 5 1 8 1;
#X connect 5 2 6 2;
#X connect 5 2 8 2;
#X connect 5 3 6 3;
#X connect 5 3 8 3;
#X connect 5 4 6 4;
#X connect 5 4 8 4;
#X connect 5 5 6 5;
#X connect 5 5 8 5;
#X connect 5 6 6 6;
#X connect 5 6 8 6;
#X connect 5 7 6 7;
#X connect 5 7 8 7;
#X connect 5 8 6 8;
#X connect 5 8 8 8;
#X connect 5 9 6 9;
#X connect 5 9 8 9;
#X connect 5 10 6 10;
#X connect 5 10 8 10;
#X connect 5 11 6 11;
#X connect 5 11 8 11;
#X connect 5 12 6 12;
#X connect 5 12 8 12;
#X connect 5 13 6 13;
#X connect 5 13 8 13;
#X connect 5 14 6 14;
#X connect 5 14 8 14;
#X connect 5 15 6 15;
#X connect 5 15 8 15;
#X connect 8 0 7 0;
#X connect 8 1 7 1;
#X connect 8 2 7 2;
#X connect 8 3 7 3;
#X connect 8 4 7 4;
#X connect 8 5 7 5;
#X connect 8 6 7 6;
#X connect 8 7 7 7;
#X connect 8 8 7 8;
#X connect 8 9 7 9;
#X connect 8 10 7 10;
#X connect 8 11 7 11;
#X connect 8 12 7 12;
#X connect 8 13 7 13;
#X connect 8 14 7 14;
#X connect 8 15 7 15;
#X connect 8 16 7 16;
#X connect 8 17 7 17;
#X connect 8 18 7 18;
#X connect 8 19 7 19;
#X connect 9 0 0 0;
