#N canvas 578 63 570 619 10;
#X obj 10 20 c.patcherinfos;
#X obj 10 3 loadbang;
#X obj 10 3 hoa.help.header;
#X obj 426 3 hoa.help.also;
#X text 15 47 hoa.syn.delay~ uses delay lines without flanging effect
to synthesize a diffuse a sound field.;
#X obj 55 463 c.tab @size 358 60 @fontname Monaco @fontweight normal
@fontslant roman @fontsize 11 @receive (null) @send (null) @presetname
(null) @orientation 1 @toggle 0 @items 'Circular Harmonics' 'Spherical Harmonics'
'Planewaves 2D' @bgcolor 0.75 0.75 0.75 1 @bdcolor 0.5 0.5 0.5 1 @textcolor
0 0 0 1 @hocolor 0.5 0.5 0.5 1 @secolor 0.505898 0.505898 0.505898
1;
#X obj 53 545 hoa.help.pub;
#X obj 89 413 hoa.out~;
#X obj 192 156 hoa.in extra 1;
#X obj 229 289 list split;
#X obj 182 289 * 1, f 5;
#X obj 182 254 t b f;
#X obj 89 345 hoa.in~ extra 1;
#X obj 182 186 route float list delay, f 24;
#N canvas 679 142 591 444 delaynoflange 0;
#X obj 353 155 f;
#X obj 171 220 *~ 513;
#X obj 171 248 tabread4~ \$0-hoa_hann1;
#X obj 156 299 *~;
#X obj 352 299 *~;
#X obj 156 155 f;
#X obj 367 248 tabread4~ \$0-hoa_hann1;
#X obj 367 199 wrap~;
#X obj 367 178 +~ 0.5;
#X obj 367 220 *~ 513;
#X obj 353 279 delread~ \$0-hoa.delay 1;
#X obj 156 279 delread~ \$0-hoa.delay 1;
#X obj 171 120 phasor~ 0.5;
#N canvas 970 176 450 300 sel~ 0;
#X obj 73 20 c.loadmess 1;
#X obj 92 141 samphold~;
#X obj 92 165 snapshot~;
#X obj 92 187 change;
#X obj 92 209 < 126;
#X obj 92 233 sel 0 1;
#X obj 38 59 inlet~;
#X obj 108 49 inlet~;
#X obj 92 261 outlet;
#X obj 153 261 outlet;
#X obj 155 232 nbx 5 14 -1e+37 1e+37 0 0 empty empty empty 0 -8 0 10
-262144 -1 -1 0.00312461 256;
#X obj 73 109 metro 5;
#X connect 0 0 11 0;
#X connect 1 0 2 0;
#X connect 2 0 3 0;
#X connect 3 0 4 0;
#X connect 3 0 10 0;
#X connect 4 0 5 0;
#X connect 5 0 9 0;
#X connect 5 1 8 0;
#X connect 6 0 1 0;
#X connect 6 0 1 1;
#X connect 7 0 1 1;
#X connect 11 0 2 0;
#X restore 299 302 pd sel~;
#X obj 176 75 inlet;
#X obj 219 375 outlet~;
#X obj 108 44 delwrite~ \$0-hoa.delay 5000;
#X obj 108 18 inlet~;
#N canvas 0 22 172 392 table_hanning 0;
#X obj 12 353 table \$0-hoa_hann1 512;
#X obj 13 152 / 256;
#X obj 13 197 * 1;
#X obj 13 251 * 0.5;
#X obj 13 223 sin;
#X obj 13 275 + 0.5;
#X obj 13 124 t f f;
#X obj 13 303 pack;
#X obj 49 170 hoa.pi 1;
#X obj 13 173 - 0.5;
#X obj 14 36 t b b;
#X obj 13 80 until;
#X obj 13 101 f;
#X obj 40 102 + 1;
#X msg 13 59 512;
#X obj 13 327 tabwrite \$0-hoa_hann1;
#X obj 14 12 loadbang;
#X connect 1 0 9 0;
#X connect 2 0 4 0;
#X connect 3 0 5 0;
#X connect 4 0 3 0;
#X connect 5 0 7 0;
#X connect 6 0 1 0;
#X connect 6 1 7 1;
#X connect 7 0 15 0;
#X connect 8 0 2 1;
#X connect 9 0 2 0;
#X connect 10 0 14 0;
#X connect 10 1 8 0;
#X connect 11 0 12 0;
#X connect 12 0 13 0;
#X connect 12 0 6 0;
#X connect 13 0 12 1;
#X connect 14 0 11 0;
#X connect 16 0 10 0;
#X restore 341 49 pd table_hanning;
#X connect 0 0 10 0;
#X connect 1 0 2 0;
#X connect 1 0 13 0;
#X connect 2 0 3 1;
#X connect 3 0 15 0;
#X connect 4 0 15 0;
#X connect 5 0 11 0;
#X connect 6 0 4 1;
#X connect 7 0 9 0;
#X connect 8 0 7 0;
#X connect 9 0 6 0;
#X connect 9 0 13 1;
#X connect 10 0 4 0;
#X connect 11 0 3 0;
#X connect 12 0 1 0;
#X connect 12 0 8 0;
#X connect 13 0 5 0;
#X connect 13 1 0 0;
#X connect 14 0 0 1;
#X connect 14 0 5 1;
#X connect 17 0 16 0;
#X restore 89 374 pd delaynoflange;
#X obj 11 104 hoa.process.args, f 29;
#X obj 68 126 + 1;
#X obj 11 126 t b f;
#X obj 68 157 / 1, f 5;
#X obj 12 209 c.number @size 53 17 @fontname Helvetica @fontweight
normal @fontslant roman @fontsize 11 @receive (null) @send (null) @presetname
(null) @min (null) @max (null) @minmax (null) (null) @decimal 6 @bgcolor
0.75 0.75 0.75 1 @bdcolor 0.5 0.5 0.5 1 @textcolor 0 0 0 1;
#X obj 276 206 route float list, f 6;
#X text 195 380 flanging artefact.;
#X text 25 293 depending on the instance;
#X text 25 303 factor.;
#X text 190 137 Receives float or list.;
#X text 308 293 depending on the instance;
#X text 308 283 Split the list;
#X text 308 303 index.;
#X text 5 227 The instance factor is;
#X text 5 247 the number of instances.;
#X text 5 237 the intance index divide by;
#X text 190 99 Compute the number of instances;
#X text 190 109 and the instance index.;
#X text 25 283 Scale the delay time;
#X text 195 370 Apply a delay without;
#X text 190 346 Receive the signal.;
#X text 143 413 Output the delayed signal.;
#N canvas 0 22 450 300 open_subcnv 0;
#X obj 138 51 c.patcherinfos;
#X msg 133 228 \; pd open \$1 \$2;
#X obj 133 202 pack s s;
#X obj 139 29 loadbang;
#X msg 51 177 hoa.syn.delay.help.harmo2d.pd;
#X obj 51 50 sel 0 1 2;
#X msg 68 147 hoa.syn.delay.help.harmo3d.pd;
#X msg 85 122 hoa.syn.delay.help.plane2d.pd;
#X obj 178 81 makefilename %s;
#X obj 58 16 inlet;
#X connect 0 1 8 0;
#X connect 2 0 1 0;
#X connect 3 0 0 0;
#X connect 4 0 2 0;
#X connect 5 0 4 0;
#X connect 5 1 6 0;
#X connect 5 2 7 0;
#X connect 6 0 2 0;
#X connect 7 0 2 0;
#X connect 8 0 2 1;
#X connect 9 0 5 0;
#X restore 55 507 pd open_subcnv;
#X connect 0 0 2 0;
#X connect 1 0 0 0;
#X connect 5 0 37 0;
#X connect 8 0 13 0;
#X connect 9 1 14 1;
#X connect 10 0 14 1;
#X connect 11 0 10 0;
#X connect 11 1 10 1;
#X connect 12 0 14 0;
#X connect 13 0 10 0;
#X connect 13 1 9 0;
#X connect 13 2 20 0;
#X connect 14 0 7 0;
#X connect 15 0 17 0;
#X connect 15 1 16 0;
#X connect 15 1 9 1;
#X connect 15 2 13 0;
#X connect 15 3 13 0;
#X connect 16 0 18 0;
#X connect 17 0 18 0;
#X connect 17 1 18 1;
#X connect 18 0 19 0;
#X connect 18 0 11 0;
#X connect 20 0 10 0;
#X connect 20 1 9 0;
#X coords 0 619 1 618 100 60 0;
