#N canvas 133 52 562 616 10;
#X obj 23 115 c.gain~ @size 131 10 @fontname Helvetica @fontweight
normal @fontslant roman @fontsize 11 @receive (null) @send (null) @presetname
(null) @mode 0 @ramp 20 @bgcolor 0.75 0.75 0.75 1 @bdcolor 0.5 0.5
0.5 1 @kncolor 0.5 0.5 0.5 1;
#X obj 23 494 hoa.2d.decoder~ 7 ambisonics 16;
#X obj 23 239 hoa.2d.scope~ @size 189 189 @fontname Helvetica @fontweight
normal @fontslant roman @fontsize 11 @receive (null) @send (null) @order
7 @gain 10 @interval 100 @bgcolor 0.758847 0.758847 0.758847 1 @bdcolor
0.7 0.7 0.7 1 @phcolor 1 0 0 1 @nhcolor 0 0 1 1;
#X obj 176 132 c.number @size 53 17 @fontname Helvetica @fontweight
normal @fontslant roman @fontsize 11 @receive (null) @send (null) @presetname
(null) @min 0 @max 5000 @minmax 0 5000 @decimal 6 @bgcolor 0.75 0.75
0.75 1 @bdcolor 0.5 0.5 0.5 1 @textcolor 0 0 0 1;
#X text 237 133 ms;
#X obj 23 196 hoa.2d.process~ 7 hoa.syn.delay~ harmonics 5000, f 31
;
#X text 174 99 The global delay time., f 12;
#X text 218 196 The delay time is mapped depending on the orders of
the harmonics., f 36;
#X obj 23 526 hoa.dac~ 1:16, f 31;
#X obj 23 86 hoa.soundgrain;
#X obj 3 3 hoa.help.header.harmo2d;
#X text 8 47 hoa.syn.delay~ uses delay lines without flanging effect
to synthesize a diffuse a sound field.;
#X obj 36 555 hoa.help.pub;
#X obj 419 3 hoa.help.also;
#X msg 340 375 \; pd dsp 1;
#X msg 340 410 \; pd dsp 0;
#X connect 0 0 5 0;
#X connect 1 0 8 0;
#X connect 1 1 8 1;
#X connect 1 2 8 2;
#X connect 1 3 8 3;
#X connect 1 4 8 4;
#X connect 1 5 8 5;
#X connect 1 6 8 6;
#X connect 1 7 8 7;
#X connect 1 8 8 8;
#X connect 1 9 8 9;
#X connect 1 10 8 10;
#X connect 1 11 8 11;
#X connect 1 12 8 12;
#X connect 1 13 8 13;
#X connect 1 14 8 14;
#X connect 1 15 8 15;
#X connect 3 0 5 0;
#X connect 5 0 1 0;
#X connect 5 0 2 0;
#X connect 5 1 1 1;
#X connect 5 1 2 1;
#X connect 5 2 1 2;
#X connect 5 2 2 2;
#X connect 5 3 1 3;
#X connect 5 3 2 3;
#X connect 5 4 1 4;
#X connect 5 4 2 4;
#X connect 5 5 1 5;
#X connect 5 5 2 5;
#X connect 5 6 1 6;
#X connect 5 6 2 6;
#X connect 5 7 1 7;
#X connect 5 7 2 7;
#X connect 5 8 1 8;
#X connect 5 8 2 8;
#X connect 5 9 1 9;
#X connect 5 9 2 9;
#X connect 5 10 1 10;
#X connect 5 10 2 10;
#X connect 5 11 1 11;
#X connect 5 11 2 11;
#X connect 5 12 1 12;
#X connect 5 12 2 12;
#X connect 5 13 1 13;
#X connect 5 13 2 13;
#X connect 5 14 1 14;
#X connect 5 14 2 14;
#X connect 9 0 0 0;
#X coords 0 616 1 615 500 500 0;
