#N canvas 249 87 571 611 10;
#X obj 30 112 c.gain~ @size 131 10 @fontname Helvetica @fontweight
normal @fontslant roman @fontsize 11 @receive (null) @send (null) @presetname
(null) @mode 0 @ramp 20 @bgcolor 0.75 0.75 0.75 1 @bdcolor 0.5 0.5
0.5 1 @kncolor 0.5 0.5 0.5 1;
#X obj 30 83 hoa.soundgrain;
#X obj 3 3 hoa.help.header.plane2d;
#X text 8 47 hoa.syn.delay~ uses delay lines without flanging effect
to synthesize a diffuse a sound field.;
#X obj 36 555 hoa.help.pub;
#X msg 294 468 \; pd dsp 1;
#X msg 294 503 \; pd dsp 0;
#X obj 182 94 hoa.2d.space @size 126 126 @fontname Helvetica @fontweight
normal @fontslant roman @fontsize 11 @receive (null) @send (null) @presetname
space @channels 16 @minmax 0 5000 @bgcolor 0.76 0.76 0.76 1 @bdcolor
0.7 0.7 0.7 1 @spcolor 0.27 0.43 0.54 0.25 @ptcolor 0 0 0 1;
#X obj 30 271 hoa.2d.recomposer~ 7 16, f 31;
#X obj 30 491 hoa.2d.decoder~ 7 ambisonics 16;
#X obj 30 523 hoa.dac~ 1:16, f 31;
#X obj 30 296 hoa.2d.scope~ @size 189 189 @fontname Helvetica @fontweight
normal @fontslant roman @fontsize 11 @receive (null) @send (null) @order
7 @gain 1 @interval 100 @bgcolor 0.76 0.76 0.76 1 @bdcolor 0.7 0.7
0.7 1 @phcolor 1 0 0 1 @nhcolor 0 0 1 1;
#X obj 30 233 hoa.2d.process~ 16 hoa.syn.delay~ planewaves 5000, f
31;
#X obj 447 18 c.preset @size 15 15 @fontname Helvetica @fontweight
normal @fontslant roman @fontsize 10 @receive (null) @send (null) @bgcolor
0.75 0.75 0.75 1 @bdcolor 0.5 0.5 0.5 1 @textcolor 0 0 0 1 @emcolor
0.85 0.85 0.85 1 @stcolor 0.5 0.5 0.5 1 @secolor 0.15 0.15 0.15 1 @preset
[ @index 0 @space hoa.2d.space list 3730.76 1617.49 2885.42 1942.22
4145.55 2287.89 2049.73 4418.89 2738.66 3646.36 4398.33 2621.5 4007.23
3814.72 1865.38 0 ];
#X obj 428 26 c.loadmess 1;
#X obj 419 3 hoa.help.also;
#X text 314 141 Control the delay time of each planewave;
#X text 314 151 with the interface (0 - 5000 ms).;
#X connect 0 0 12 0;
#X connect 1 0 0 0;
#X connect 7 0 12 0;
#X connect 8 0 9 0;
#X connect 8 0 11 0;
#X connect 8 1 9 1;
#X connect 8 1 11 1;
#X connect 8 2 9 2;
#X connect 8 2 11 2;
#X connect 8 3 9 3;
#X connect 8 3 11 3;
#X connect 8 4 9 4;
#X connect 8 4 11 4;
#X connect 8 5 9 5;
#X connect 8 5 11 5;
#X connect 8 6 9 6;
#X connect 8 6 11 6;
#X connect 8 7 9 7;
#X connect 8 7 11 7;
#X connect 8 8 9 8;
#X connect 8 8 11 8;
#X connect 8 9 9 9;
#X connect 8 9 11 9;
#X connect 8 10 9 10;
#X connect 8 10 11 10;
#X connect 8 11 9 11;
#X connect 8 11 11 11;
#X connect 8 12 9 12;
#X connect 8 12 11 12;
#X connect 8 13 9 13;
#X connect 8 13 11 13;
#X connect 8 14 9 14;
#X connect 8 14 11 14;
#X connect 9 0 10 0;
#X connect 9 1 10 1;
#X connect 9 2 10 2;
#X connect 9 3 10 3;
#X connect 9 4 10 4;
#X connect 9 5 10 5;
#X connect 9 6 10 6;
#X connect 9 7 10 7;
#X connect 9 8 10 8;
#X connect 9 9 10 9;
#X connect 9 10 10 10;
#X connect 9 11 10 11;
#X connect 9 12 10 12;
#X connect 9 13 10 13;
#X connect 9 14 10 14;
#X connect 9 15 10 15;
#X connect 12 0 8 0;
#X connect 12 1 8 1;
#X connect 12 2 8 2;
#X connect 12 3 8 3;
#X connect 12 4 8 4;
#X connect 12 5 8 5;
#X connect 12 6 8 6;
#X connect 12 7 8 7;
#X connect 12 8 8 8;
#X connect 12 9 8 9;
#X connect 12 10 8 10;
#X connect 12 11 8 11;
#X connect 12 12 8 12;
#X connect 12 13 8 13;
#X connect 12 14 8 14;
#X connect 12 15 8 15;
#X connect 14 0 13 0;
