#N canvas 34 105 888 666 10;
#X declare -path ..;
#X text 14 296 Number of harmonics;
#X obj 19 217 * 2;
#X obj 19 243 + 1;
#X text 194 166 Number of harmonics;
#X obj 199 217 - 1;
#X obj 199 243 / 2;
#X msg 219 522 0 -1 1 -2 2 -3 3;
#N canvas 0 50 450 300 hoaNumbering 0;
#X obj 95 63 until;
#X obj 95 34 t f b, f 7;
#X obj 144 93 + 1;
#X obj 95 93 f 1, f 7;
#X obj 174 209 c.prepend set;
#X obj 95 209 c.prepend 0;
#X obj 134 63 f 1;
#X obj 174 63 f 0;
#X obj 95 144 * -1;
#X obj 95 165 pack 0 0;
#X obj 95 9 inlet;
#X obj 95 261 outlet;
#X obj 95 120 t f f, f 8;
#X connect 0 0 3 0;
#X connect 1 0 0 0;
#X connect 1 1 6 0;
#X connect 1 1 7 0;
#X connect 2 0 3 1;
#X connect 3 0 2 0;
#X connect 3 0 12 0;
#X connect 4 0 5 0;
#X connect 4 0 11 0;
#X connect 5 0 4 0;
#X connect 6 0 3 1;
#X connect 7 0 4 0;
#X connect 8 0 9 0;
#X connect 9 0 5 0;
#X connect 10 0 1 0;
#X connect 12 0 8 0;
#X connect 12 1 9 1;
#X restore 219 477 pd hoaNumbering;
#X msg 19 522 0 1 1 2 2 3 3;
#N canvas 0 50 450 300 hoaNumbering 0;
#X obj 95 63 until;
#X obj 95 34 t f b, f 7;
#X obj 144 93 + 1;
#X obj 95 93 f 1, f 7;
#X obj 174 209 c.prepend set;
#X obj 95 209 c.prepend 0;
#X obj 134 63 f 1;
#X obj 174 63 f 0;
#X obj 95 165 pack 0 0;
#X obj 95 9 inlet;
#X obj 95 261 outlet;
#X obj 95 120 t f f, f 8;
#X connect 0 0 3 0;
#X connect 1 0 0 0;
#X connect 1 1 6 0;
#X connect 1 1 7 0;
#X connect 2 0 3 1;
#X connect 3 0 2 0;
#X connect 3 0 11 0;
#X connect 4 0 5 0;
#X connect 4 0 10 0;
#X connect 5 0 4 0;
#X connect 6 0 3 1;
#X connect 7 0 4 0;
#X connect 8 0 5 0;
#X connect 9 0 1 0;
#X connect 11 0 8 0;
#X connect 11 1 8 1;
#X restore 19 477 pd hoaNumbering;
#X msg 497 270 0 1 2 3 4 5 6 7;
#N canvas 0 50 450 300 hoaNumbering 0;
#X obj 95 133 until;
#X obj 95 34 t f b, f 7;
#X obj 144 163 + 1;
#X obj 95 163 f 1, f 7;
#X obj 174 209 c.prepend set;
#X obj 95 209 c.prepend 0;
#X obj 134 133 f 1;
#X obj 174 133 f 0;
#X obj 95 9 inlet;
#X obj 95 261 outlet;
#X obj 95 65 * 2;
#X connect 0 0 3 0;
#X connect 1 0 10 0;
#X connect 1 1 6 0;
#X connect 1 1 7 0;
#X connect 2 0 3 1;
#X connect 3 0 2 0;
#X connect 3 0 5 0;
#X connect 4 0 5 0;
#X connect 4 0 9 0;
#X connect 5 0 4 0;
#X connect 6 0 3 1;
#X connect 7 0 4 0;
#X connect 8 0 1 0;
#X connect 10 0 0 0;
#X restore 497 225 pd hoaNumbering;
#X text 491 296 ACN of the harmonics;
#X msg 499 522 W Y X V U Q P;
#N canvas 0 50 449 312 hoaNumbering 0;
#X obj 95 133 until;
#X obj 95 34 t f b, f 7;
#X obj 144 158 + 1;
#X obj 95 158 f 1, f 7;
#X obj 174 249 c.prepend set;
#X obj 95 249 c.prepend 0;
#X obj 134 133 f 1;
#X obj 95 9 inlet;
#X obj 95 281 outlet;
#X obj 95 65 * 2;
#X obj 174 133 symbol W;
#X obj 95 213 symbol Y;
#X obj 126 213 symbol X;
#X obj 158 213 symbol V;
#X obj 190 213 symbol U;
#X obj 218 213 symbol Q;
#X obj 246 213 symbol P;
#X obj 95 185 sel 1 2 3 4 5 6, f 30;
#X obj 306 191 bng 15 250 50 0 empty empty empty 17 7 0 10 -262144
-1 -1;
#X obj 306 213 symbol ?;
#X connect 0 0 3 0;
#X connect 1 0 9 0;
#X connect 1 1 6 0;
#X connect 1 1 10 0;
#X connect 2 0 3 1;
#X connect 3 0 2 0;
#X connect 3 0 17 0;
#X connect 4 0 5 0;
#X connect 4 0 8 0;
#X connect 5 0 4 0;
#X connect 6 0 3 1;
#X connect 7 0 1 0;
#X connect 9 0 0 0;
#X connect 10 0 4 0;
#X connect 11 0 5 0;
#X connect 12 0 5 0;
#X connect 13 0 5 0;
#X connect 14 0 5 0;
#X connect 15 0 5 0;
#X connect 16 0 5 0;
#X connect 17 0 11 0;
#X connect 17 1 12 0;
#X connect 17 2 13 0;
#X connect 17 3 14 0;
#X connect 17 4 15 0;
#X connect 17 5 16 0;
#X connect 17 6 18 0;
#X connect 18 0 19 0;
#X connect 19 0 5 0;
#X restore 499 477 pd hoaNumbering;
#X text 8 53 A set of tools to understand the numbering of the harmonics
channels in 2d.;
#X text 493 548 Letter codes of the harmonics;
#X text 14 166 Order of decomposition N;
#X text 194 296 Order of decomposition N;
#X text 492 166 Order of decomposition N;
#X text 494 418 Order of decomposition N;
#X text 14 418 Order of decomposition N;
#X text 14 548 Degrees of the harmonics l;
#X text 214 418 Order of decomposition N;
#X text 214 548 Orders of the harmonics m;
#X text 15 109 The number of harmonics depends on the order of decomposition
N:;
#X text 18 359 An harmonic is defined by a degree l and an order m
thus it can be noted h[l \, m]. In 2d \, the degree l is rarely used
because it is equal to the absolute value of the order m:;
#X text 484 107 The numbering of the harmonics channels is similar
to the ACN even if the use of the degrees and the orders is preferred:
;
#X text 486 359 The letter codes of the harmonics are not in the alphabetic
order:;
#X obj 19 190 nbx 5 14 -1e+37 1e+37 0 0 empty \$0-order empty 0 -8
0 10 -262144 -1 -1 7 256;
#X obj 199 190 nbx 5 14 -1e+37 1e+37 0 0 empty \$0-nhamo empty 0 -8
0 10 -262144 -1 -1 15 256;
#X obj 497 190 nbx 5 14 -1e+37 1e+37 0 0 empty \$0-order empty 0 -8
0 10 -262144 -1 -1 7 256;
#X obj 19 270 nbx 5 14 -1e+37 1e+37 0 0 empty empty empty 0 -8 0 10
-262144 -1 -1 15 256;
#X obj 199 270 nbx 5 14 -1e+37 1e+37 0 0 empty empty empty 0 -8 0 10
-262144 -1 -1 7 256;
#X obj 19 442 nbx 5 14 -1e+37 1e+37 0 0 empty \$0-order empty 0 -8
0 10 -262144 -1 -1 7 256;
#X obj 219 442 nbx 5 14 -1e+37 1e+37 0 0 empty \$0-order empty 0 -8
0 10 -262144 -1 -1 7 256;
#X obj 499 442 nbx 5 14 -1e+37 1e+37 0 0 empty \$0-order empty 0 -8
0 10 -262144 -1 -1 7 256;
#X obj 379 49 s \$0-order;
#X obj 462 48 s \$0-nhamo;
#X obj 462 7 loadbang;
#X msg 462 29 15;
#X obj 379 8 loadbang;
#X msg 379 30 7;
#X obj 20 594 declare -path ..;
#X obj 20 617 hoa.credits;
#X obj 100 617 hoa-help;
#X obj 10 11 cnv 15 200 20 empty empty hoa.2d.tools 4 10 0 14 -233017
-66577 0;
#X connect 1 0 2 0;
#X connect 2 0 32 0;
#X connect 4 0 5 0;
#X connect 5 0 33 0;
#X connect 7 0 6 0;
#X connect 9 0 8 0;
#X connect 11 0 10 0;
#X connect 14 0 13 0;
#X connect 29 0 1 0;
#X connect 30 0 4 0;
#X connect 31 0 11 0;
#X connect 34 0 9 0;
#X connect 35 0 7 0;
#X connect 36 0 14 0;
#X connect 39 0 40 0;
#X connect 40 0 38 0;
#X connect 41 0 42 0;
#X connect 42 0 37 0;
