#N canvas 379 86 888 663 10;
#X declare -path ..;
#X text 11 293 Number of harmonics;
#X text 191 163 Number of harmonics;
#X msg 216 519 0 -1 0 1 -2 -1 0 1 2 -3 -2 -1 0 1 2 3;
#N canvas 0 50 463 390 hoaNumbering 0;
#X obj 95 63 until;
#X obj 95 34 t f b, f 7;
#X obj 144 93 + 1;
#X obj 95 93 f 1, f 7;
#X obj 174 239 c.prepend set;
#X obj 95 239 c.prepend 0;
#X obj 134 63 f 1;
#X obj 174 63 f 0;
#X obj 95 9 inlet;
#X obj 95 291 outlet;
#X obj 95 193 until;
#X obj 95 144 * 2;
#X obj 95 168 + 1;
#X obj 95 216 f, f 7;
#X obj 95 121 t f f, f 7;
#X obj 146 216 + 1;
#X obj 134 162 * -1;
#X connect 0 0 3 0;
#X connect 1 0 0 0;
#X connect 1 1 6 0;
#X connect 1 1 7 0;
#X connect 2 0 3 1;
#X connect 3 0 2 0;
#X connect 3 0 14 0;
#X connect 4 0 5 0;
#X connect 4 0 9 0;
#X connect 5 0 4 0;
#X connect 6 0 3 1;
#X connect 7 0 4 0;
#X connect 8 0 1 0;
#X connect 10 0 13 0;
#X connect 11 0 12 0;
#X connect 12 0 10 0;
#X connect 13 0 5 0;
#X connect 13 0 15 0;
#X connect 14 0 11 0;
#X connect 14 1 16 0;
#X connect 15 0 13 1;
#X connect 16 0 13 1;
#X restore 216 474 pd hoaNumbering;
#X msg 16 519 0 1 1 1 2 2 2 2 2 3 3 3 3 3 3 3;
#N canvas 0 50 462 402 hoaNumbering 0;
#X obj 95 63 until;
#X obj 95 34 t f b, f 7;
#X obj 144 93 + 1;
#X obj 95 93 f 1, f 7;
#X obj 174 239 c.prepend set;
#X obj 95 239 c.prepend 0;
#X obj 134 63 f 1;
#X obj 174 63 f 0;
#X obj 95 9 inlet;
#X obj 95 291 outlet;
#X obj 95 193 until;
#X obj 95 144 * 2;
#X obj 95 168 + 1;
#X obj 95 216 f, f 7;
#X obj 95 121 t f f, f 7;
#X connect 0 0 3 0;
#X connect 1 0 0 0;
#X connect 1 1 6 0;
#X connect 1 1 7 0;
#X connect 2 0 3 1;
#X connect 3 0 2 0;
#X connect 3 0 14 0;
#X connect 4 0 5 0;
#X connect 4 0 9 0;
#X connect 5 0 4 0;
#X connect 6 0 3 1;
#X connect 7 0 4 0;
#X connect 8 0 1 0;
#X connect 10 0 13 0;
#X connect 11 0 12 0;
#X connect 12 0 10 0;
#X connect 13 0 5 0;
#X connect 14 0 11 0;
#X connect 14 1 13 1;
#X restore 16 474 pd hoaNumbering;
#X msg 494 267 0 1 2 3 4 5 6 7 8 9 10 11 12 13 14 15 16;
#N canvas 480 120 450 300 hoaNumbering 0;
#X obj 95 133 until;
#X obj 95 34 t f b, f 7;
#X obj 144 163 + 1;
#X obj 95 163 f 1, f 7;
#X obj 174 209 c.prepend set;
#X obj 95 209 c.prepend 0;
#X obj 134 133 f 1;
#X obj 174 133 f 0;
#X obj 95 9 inlet;
#X obj 95 261 outlet;
#X obj 95 55 + 1;
#X obj 95 77 pow 2;
#X obj 95 99 - 1;
#X connect 0 0 3 0;
#X connect 1 0 10 0;
#X connect 1 1 6 0;
#X connect 1 1 7 0;
#X connect 2 0 3 1;
#X connect 3 0 2 0;
#X connect 3 0 5 0;
#X connect 4 0 5 0;
#X connect 4 0 9 0;
#X connect 5 0 4 0;
#X connect 6 0 3 1;
#X connect 7 0 4 0;
#X connect 8 0 1 0;
#X connect 10 0 11 0;
#X connect 11 0 12 0;
#X connect 12 0 0 0;
#X restore 494 222 pd hoaNumbering;
#X text 488 293 ACN of the harmonics;
#X msg 496 519 W Y Z X V T R S U Q O M K L N P;
#N canvas 0 50 908 474 hoaNumbering 0;
#X obj 95 133 until;
#X obj 95 34 t f b, f 7;
#X obj 144 158 + 1;
#X obj 174 349 c.prepend set;
#X obj 95 349 c.prepend 0;
#X obj 95 9 inlet;
#X obj 95 381 outlet;
#X obj 174 133 symbol W;
#X obj 95 243 symbol Y;
#X obj 196 243 symbol X;
#X obj 260 241 symbol V;
#X obj 491 244 symbol U;
#X obj 553 245 symbol Q;
#X obj 631 273 bng 15 250 50 0 empty empty empty 17 7 0 10 -262144
-1 -1;
#X obj 674 308 symbol ?;
#X obj 141 243 symbol Z;
#X obj 313 243 symbol T;
#X obj 373 243 symbol R;
#X obj 434 243 symbol S;
#X obj 141 283 symbol O;
#X obj 196 283 symbol M;
#X obj 253 283 symbol K;
#X obj 313 283 symbol L;
#X obj 373 283 symbol N;
#X obj 434 283 symbol P;
#X obj 95 65 + 1;
#X obj 95 87 pow 2;
#X obj 95 185 sel 1 2 3 4 5 6 7 8 9 10 11 12 13 14 15, f 78;
#X obj 134 133 f 1;
#X obj 95 158 f 1, f 7;
#X obj 95 110 - 1;
#X connect 0 0 29 0;
#X connect 1 0 25 0;
#X connect 1 1 7 0;
#X connect 1 1 28 0;
#X connect 2 0 29 1;
#X connect 3 0 4 0;
#X connect 3 0 6 0;
#X connect 4 0 3 0;
#X connect 5 0 1 0;
#X connect 7 0 3 0;
#X connect 8 0 4 0;
#X connect 9 0 4 0;
#X connect 10 0 4 0;
#X connect 11 0 4 0;
#X connect 12 0 4 0;
#X connect 13 0 14 0;
#X connect 14 0 4 0;
#X connect 15 0 4 0;
#X connect 16 0 4 0;
#X connect 17 0 4 0;
#X connect 18 0 4 0;
#X connect 19 0 4 0;
#X connect 20 0 4 0;
#X connect 21 0 4 0;
#X connect 22 0 4 0;
#X connect 23 0 4 0;
#X connect 24 0 4 0;
#X connect 25 0 26 0;
#X connect 26 0 30 0;
#X connect 27 0 8 0;
#X connect 27 1 15 0;
#X connect 27 2 9 0;
#X connect 27 3 10 0;
#X connect 27 4 16 0;
#X connect 27 5 17 0;
#X connect 27 6 18 0;
#X connect 27 7 11 0;
#X connect 27 8 12 0;
#X connect 27 9 19 0;
#X connect 27 10 20 0;
#X connect 27 11 21 0;
#X connect 27 12 22 0;
#X connect 27 13 23 0;
#X connect 27 14 24 0;
#X connect 27 15 13 0;
#X connect 28 0 29 1;
#X connect 29 0 2 0;
#X connect 29 0 27 0;
#X connect 30 0 0 0;
#X restore 496 474 pd hoaNumbering;
#X text 490 545 Letter codes of the harmonics;
#X text 5 50 A set of tools to understand the numbering of the harmonics
channels in 3d.;
#X obj 16 214 + 1;
#X obj 16 240 pow 2;
#X obj 196 214 sqrt;
#X obj 196 240 - 1;
#X text 11 163 Order of decomposition N;
#X text 191 293 Order of decomposition N;
#X text 489 163 Order of decomposition N;
#X text 491 415 Order of decomposition N;
#X text 211 415 Order of decomposition N;
#X text 11 415 Order of decomposition N;
#X text 211 545 Orders of the harmonics m;
#X text 11 545 Degrees of the harmonics l;
#X text 12 106 The number of harmonics depends on the order of decomposition
N:;
#X text 15 356 An harmonic is defined by a degree l and an order m
thus it can be noted h[l \, m]:;
#X text 483 356 The letter codes of the harmonics are not in the alphabetic
order:;
#X text 481 104 The numbering of the harmonics channels is similar
to the ACN even if the use of the degrees and the orders is preferred:
;
#X obj 16 187 nbx 5 14 -1e+37 1e+37 0 0 empty \$0-order empty 0 -8
0 10 -262144 -1 -1 3 256;
#X obj 196 187 nbx 5 14 -1e+37 1e+37 0 0 empty \$0-nharmo empty 0 -8
0 10 -262144 -1 -1 16 256;
#X obj 494 187 nbx 5 14 -1e+37 1e+37 0 0 empty \$0-order empty 0 -8
0 10 -262144 -1 -1 3 256;
#X obj 196 267 nbx 5 14 -1e+37 1e+37 0 0 empty empty empty 0 -8 0 10
-262144 -1 -1 3 256;
#X obj 16 267 nbx 5 14 -1e+37 1e+37 0 0 empty empty empty 0 -8 0 10
-262144 -1 -1 16 256;
#X obj 16 439 nbx 5 14 -1e+37 1e+37 0 0 empty \$0-order empty 0 -8
0 10 -262144 -1 -1 3 256;
#X obj 216 439 nbx 5 14 -1e+37 1e+37 0 0 empty \$0-order empty 0 -8
0 10 -262144 -1 -1 3 256;
#X obj 496 439 nbx 5 14 -1e+37 1e+37 0 0 empty \$0-order empty 0 -8
0 10 -262144 -1 -1 3 256;
#X msg 376 27 3;
#X obj 376 46 s \$0-order;
#X obj 459 45 s \$0-nharmo;
#X msg 459 26 16;
#X obj 459 4 loadbang;
#X obj 376 5 loadbang;
#X obj 10 11 cnv 15 200 20 empty empty hoa.3d.tools 4 10 0 14 -233017
-66577 0;
#X obj 20 594 declare -path ..;
#X obj 20 617 hoa.credits;
#X obj 100 617 hoa-help;
#X connect 3 0 2 0;
#X connect 5 0 4 0;
#X connect 7 0 6 0;
#X connect 10 0 9 0;
#X connect 13 0 14 0;
#X connect 14 0 33 0;
#X connect 15 0 16 0;
#X connect 16 0 32 0;
#X connect 29 0 13 0;
#X connect 30 0 15 0;
#X connect 31 0 7 0;
#X connect 34 0 5 0;
#X connect 35 0 3 0;
#X connect 36 0 10 0;
#X connect 37 0 38 0;
#X connect 40 0 39 0;
#X connect 41 0 40 0;
#X connect 42 0 37 0;
