#N canvas 394 82 722 655 10;
#X obj 223 129 c.number @size 53 17 @fontname Helvetica @fontweight
normal @fontslant roman @fontsize 11 @receive (null) @send (null) @presetname
(null) @min 0 @max 1 @minmax 0 1 @decimal 6 @bgcolor 0.7 0.7 0.7 1
@bdcolor 0.5 0.5 0.5 1 @textcolor 0 0 0 1;
#X obj 16 185 hoa.2d.scope~ @size 213 213 @fontname Helvetica @fontweight
normal @fontslant roman @fontsize 11 @receive (null) @send (null) @order
7 @view 0 @gain 5 @interval 100 @bgcolor 0.76 0.76 0.76 1 @bdcolor
0.7 0.7 0.7 1 @phcolor 1 0 0 1 @nhcolor 0 0 1 1;
#X obj 23 10 c.canvasinfos;
#X obj 22 6 loadbang;
#X obj 3 3 hoa.tuto.header;
#X obj 305 595 hoa.help.pub;
#X obj 223 103 c.loadmess 1;
#X obj 17 425 hoa.2d.meter~ @size 213 213 @fontname Helvetica @fontweight
normal @fontslant roman @fontsize 11 @receive (null) @send (null) @channels
16 @angles 0 22.5 45 67.5 90 112.5 135 157.5 180 202.5 225 247.5 270
292.5 315 337.5 @offset 0 @rotation anti-clockwise @vectors none @interval
50 @bgcolor 0.76 0.76 0.76 1 @bdcolor 0.7 0.7 0.7 1 @coldcolor 0 0.6
0 0.8 @tepidcolor 0.6 0.73 0 0.8 @warmcolor 0.85 0.85 0 0.8 @hotcolor
1 0.6 0 0.8 @overcolor 1 0 0 0.8 @energycolor 0 0 1 0.8 @velocitycolor
1 0 0 0.8;
#X obj 16 136 hoa.2d.encoder~ 7 --------------;
#X text 489 534 Dsp on/off;
#X obj 452 527 c.dsp~ @size 30 30 @fontname Helvetica @fontweight normal
@fontslant roman @fontsize 11 @receive (null) @send (null) @bgcolor
0.75 0.75 0.75 1 @bdcolor 0.5 0.5 0.5 1 @logocolor 0 0.6 0 0.8;
#X obj 17 402 hoa.2d.decoder~ 7 ambisonic 16 ----;
#X text 247 397 with;
#X text 265 412 a(x) = (1 - x) * π;
#X text 247 326 if l == 0 \,;
#X text 265 341 g(x) = b(x) * N + 1;
#X text 247 359 else \,;
#X text 265 376 g(x) = (b(x) * N - 1) + 1) * (cos(min(0 \, max(a(x)
* l \, π))) + 1) * 0.5, f 70;
#X text 247 429 with;
#X text 265 447 b(x) = (sin(a(x) - π / 2) + 1) * 0.5;
#X obj 16 161 hoa.2d.process~ 7 hoa.fx.wider~ ---;
#X text 236 162 Click to open;
#X text 247 274 This operation consists to multiply each harmonic by
a gain g which depends on the decomposition order N \, the harmonic
degree l and the widening value x :, f 73;
#X text 281 122 Widening value between 0 (omnidirectional);
#X text 282 134 and 1 (the most directional).;
#X text 4 51 During the harmonic treatments \, we can change the directivity
of the sound field. This is one of the underlying operations of the
distance compensation algorithm \, while the sound enters in the ambisonic
sphere or circle., f 73;
#X obj 16 115 sig~ 1;
#X connect 0 0 20 15;
#X connect 2 0 4 0;
#X connect 3 0 2 0;
#X connect 6 0 0 0;
#X connect 8 0 20 0;
#X connect 8 1 20 1;
#X connect 8 2 20 2;
#X connect 8 3 20 3;
#X connect 8 4 20 4;
#X connect 8 5 20 5;
#X connect 8 6 20 6;
#X connect 8 7 20 7;
#X connect 8 8 20 8;
#X connect 8 9 20 9;
#X connect 8 10 20 10;
#X connect 8 11 20 11;
#X connect 8 12 20 12;
#X connect 8 13 20 13;
#X connect 8 14 20 14;
#X connect 11 0 7 0;
#X connect 11 1 7 1;
#X connect 11 2 7 2;
#X connect 11 3 7 3;
#X connect 11 4 7 4;
#X connect 11 5 7 5;
#X connect 11 6 7 6;
#X connect 11 7 7 7;
#X connect 11 8 7 8;
#X connect 11 9 7 9;
#X connect 11 10 7 10;
#X connect 11 11 7 11;
#X connect 11 12 7 12;
#X connect 11 13 7 13;
#X connect 11 14 7 14;
#X connect 11 15 7 15;
#X connect 20 0 1 0;
#X connect 20 0 11 0;
#X connect 20 1 1 1;
#X connect 20 1 11 1;
#X connect 20 2 1 2;
#X connect 20 2 11 2;
#X connect 20 3 1 3;
#X connect 20 3 11 3;
#X connect 20 4 1 4;
#X connect 20 4 11 4;
#X connect 20 5 1 5;
#X connect 20 5 11 5;
#X connect 20 6 1 6;
#X connect 20 6 11 6;
#X connect 20 7 1 7;
#X connect 20 7 11 7;
#X connect 20 8 1 8;
#X connect 20 8 11 8;
#X connect 20 9 1 9;
#X connect 20 9 11 9;
#X connect 20 10 1 10;
#X connect 20 10 11 10;
#X connect 20 11 1 11;
#X connect 20 11 11 11;
#X connect 20 12 1 12;
#X connect 20 12 11 12;
#X connect 20 13 1 13;
#X connect 20 13 11 13;
#X connect 20 14 1 14;
#X connect 20 14 11 14;
#X connect 26 0 8 0;
