#N canvas 97 252 420 291 10;
#X obj 26 97 c.prepend set;
#X obj 137 97 c.prepend set;
#X msg 26 124 1 0 0;
#X obj 297 14 hoa.in extra 1;
#X text 154 75 Hoa mode output;
#X text 31 75 Hoa args output;
#X obj 26 9 c.loadmess;
#X msg 137 124 2d harmonics;
#X obj 24 181 hoa.process.display;
#X obj 26 50 hoa.thisprocess~, f 56;
#X connect 0 0 2 0;
#X connect 1 0 7 0;
#X connect 6 0 9 0;
#X connect 9 0 0 0;
#X connect 9 1 1 0;
