#N canvas 475 65 340 470 10;
#X obj 20 15 hoa.in~;
#X obj 20 429 hoa.out~ extra \$1;
#X obj 20 397 *~;
#X obj 35 374 sig~;
#X obj 35 173 *, f 5;
#X obj 62 142 abs;
#X obj 140 200 < 0;
#X obj 35 220 spigot 0;
#X obj 95 220 spigot 0;
#X obj 35 266 cos;
#X obj 80 200 >= 0;
#X obj 95 266 sin;
#X obj 35 71 t f b;
#X obj 62 98 f \$2;
#X obj 35 48 r \$3;
#X obj 121 244 sel 0;
#X obj 35 300 * 1;
#X obj 121 266 f 0.5;
#X obj 35 338 * \$4;
#X connect 0 0 2 0;
#X connect 2 0 1 0;
#X connect 3 0 2 1;
#X connect 4 0 7 0;
#X connect 4 0 8 0;
#X connect 5 0 4 1;
#X connect 6 0 8 1;
#X connect 7 0 9 0;
#X connect 8 0 11 0;
#X connect 9 0 16 0;
#X connect 10 0 7 1;
#X connect 11 0 16 0;
#X connect 12 0 4 0;
#X connect 12 1 13 0;
#X connect 13 0 5 0;
#X connect 13 0 10 0;
#X connect 13 0 6 0;
#X connect 13 0 15 0;
#X connect 14 0 12 0;
#X connect 15 0 17 0;
#X connect 16 0 18 0;
#X connect 17 0 16 1;
#X connect 18 0 3 0;
