#N canvas 65 82 738 485 10;
#X obj 45 1 cnv 15 315 40 empty \$0-hoa.header Tutorial_1 3 12 0 18
-212212 -1 0;
#X obj 438 444 s \$0-hoa.header;
#X obj 437 14 inlet;
#X obj 278 87 namecanvas \$0-r;
#X obj 472 395 s \$0-r;
#X msg 438 414 label \$1;
#X obj 404 317 list split 1;
#X obj 438 337 list split 1;
#X obj 3 3 c.blackboard @size 40 37 @fontname Helvetica @fontweight
normal @fontslant roman @fontsize 11 @receive (null) @send (null) @chalkmode
0 @bgcolor 0.802322 0.802322 0.802322 1 @bdcolor 0.802322 0.802322
0.802322 1;
#X msg 7 140 clear \, image 2 1 logo.gif;
#X obj 472 367 c.prepend text 46 23;
#X obj 484 127 textfile;
#X obj 452 97 until;
#X obj 467 260 f 1;
#X obj 500 259 f 0;
#X obj 404 282 spigot 0;
#X obj 467 206 sel sa;
#X msg 505 97 rewind;
#X obj 404 156 list;
#X obj 500 234 bang;
#X obj 404 180 t list symbol;
#X obj 437 44 t b b b b s;
#X msg 211 86 1;
#X obj 202 158 f 0;
#X obj 234 161 + 1;
#X obj 202 122 metro 100;
#X obj 194 195 <= 1000;
#X obj 197 231 sel 1;
#X msg 210 265 0;
#X msg 484 67 read hoa.tuto.txt;
#X connect 2 0 21 0;
#X connect 5 0 1 0;
#X connect 6 1 7 0;
#X connect 6 1 5 0;
#X connect 7 1 10 0;
#X connect 9 0 8 0;
#X connect 10 0 4 0;
#X connect 11 0 18 0;
#X connect 11 1 12 1;
#X connect 12 0 11 0;
#X connect 13 0 15 1;
#X connect 14 0 15 1;
#X connect 15 0 6 0;
#X connect 16 0 13 0;
#X connect 16 1 19 0;
#X connect 17 0 11 0;
#X connect 18 0 20 0;
#X connect 19 0 14 0;
#X connect 20 0 15 0;
#X connect 20 1 16 0;
#X connect 21 0 22 0;
#X connect 21 1 12 0;
#X connect 21 2 17 0;
#X connect 21 3 29 0;
#X connect 21 4 16 1;
#X connect 22 0 25 0;
#X connect 23 0 24 0;
#X connect 23 0 26 0;
#X connect 24 0 23 1;
#X connect 25 0 23 0;
#X connect 25 0 9 0;
#X connect 26 0 27 0;
#X connect 27 0 28 0;
#X connect 28 0 25 0;
#X connect 29 0 11 0;
#X coords 0 -1 1 1 361 42 2 0 0;
