#N canvas 386 267 499 330 10;
#X obj 89 47 hoa.in extra 1;
#X obj 248 58 hoa.thisprocess~;
#X obj 248 33 c.loadmess;
#X obj 291 197 spigot 0;
#X obj 89 197 spigot 0;
#X obj 279 83 unpack s s;
#X obj 89 278 hoa.out extra 1;
#X obj 134 175 f 1;
#X obj 134 143 sel harmonics;
#X obj 336 143 sel planewaves;
#X obj 336 175 f 1;
#X obj 89 241 c.prepend list harmonic \$1 \$2 \$3;
#X obj 291 241 c.prepend list planewaves \$1 \$2;
#X connect 0 0 3 0;
#X connect 0 0 4 0;
#X connect 1 1 5 0;
#X connect 2 0 1 0;
#X connect 3 0 12 0;
#X connect 4 0 11 0;
#X connect 5 1 9 0;
#X connect 5 1 8 0;
#X connect 7 0 4 1;
#X connect 8 0 7 0;
#X connect 9 0 10 0;
#X connect 10 0 3 1;
#X connect 11 0 6 0;
#X connect 12 0 6 0;
