#N canvas 1014 172 579 480 10;
#X obj 17 62 *~ 1;
#X obj 17 89 snapshot~;
#N canvas 680 62 567 623 omni 0;
#X obj 93 6 inlet;
#X obj 93 295 +, f 11;
#X obj 227 220 loadbang;
#X obj 227 242 f 1;
#X obj 93 378 pack f f, f 11;
#X obj 93 274 f;
#X obj 93 401 outlet, f 8;
#X obj 93 233 t b f, f 11;
#N canvas 0 22 450 300 loop.until 0;
#X obj 21 11 inlet;
#X obj 21 118 outlet;
#X obj 21 76 until;
#X obj 21 53 t f b, f 7;
#X obj 21 98 f 0, f 7;
#X obj 60 76 f 0;
#X obj 71 98 + 1, f 4;
#X obj 21 33 f 180;
#X connect 0 0 7 0;
#X connect 2 0 4 0;
#X connect 3 0 2 0;
#X connect 3 1 5 0;
#X connect 4 0 6 0;
#X connect 4 0 1 0;
#X connect 5 0 4 1;
#X connect 6 0 4 1;
#X connect 7 0 3 0;
#X restore 93 207 pd loop.until;
#X obj 177 84 f 1;
#X obj 177 106 /, f 5;
#X obj 204 84 + 1;
#X obj 162 150 *;
#X obj 177 128 * 0.5;
#X obj 93 356 *;
#X obj 93 28 t b b f, f 12;
#X obj 177 11 loadbang;
#X obj 177 32 t b b;
#N canvas 706 161 449 458 nor 0;
#X obj 37 47 t f f;
#X obj 37 178 abs;
#X obj 177 178 abs;
#X obj 37 148 +;
#X obj 177 148 +;
#X obj 192 42 inlet;
#X obj 37 21 inlet;
#X obj 37 200 max, f 24;
#X obj 37 332 outlet;
#X obj 37 250 t b f;
#X obj 37 272 f 1;
#X obj 37 294 /, f 5;
#X obj 37 227 max 1;
#X obj 37 126 array max \$6-buffer-0;
#X obj 177 126 array min \$6-buffer-0;
#X connect 0 0 13 0;
#X connect 0 1 14 0;
#X connect 1 0 7 0;
#X connect 2 0 7 1;
#X connect 3 0 1 0;
#X connect 4 0 2 0;
#X connect 5 0 4 1;
#X connect 5 0 3 1;
#X connect 6 0 0 0;
#X connect 7 0 12 0;
#X connect 9 0 10 0;
#X connect 9 1 11 1;
#X connect 10 0 11 0;
#X connect 11 0 8 0;
#X connect 12 0 9 0;
#X connect 13 0 3 0;
#X connect 14 0 4 0;
#X restore 127 328 pd nor;
#X obj 166 264 array get \$6-buffer-0;
#X obj 204 58 f \$3;
#X connect 0 0 15 0;
#X connect 1 0 14 0;
#X connect 2 0 3 0;
#X connect 3 0 19 1;
#X connect 4 0 6 0;
#X connect 5 0 1 0;
#X connect 7 0 5 0;
#X connect 7 1 4 1;
#X connect 7 1 19 0;
#X connect 8 0 7 0;
#X connect 9 0 10 0;
#X connect 10 0 13 0;
#X connect 11 0 10 1;
#X connect 12 0 5 1;
#X connect 12 0 18 1;
#X connect 13 0 12 1;
#X connect 14 0 4 0;
#X connect 15 0 8 0;
#X connect 15 1 18 0;
#X connect 15 2 12 0;
#X connect 16 0 17 0;
#X connect 17 0 9 0;
#X connect 17 1 20 0;
#X connect 18 0 14 1;
#X connect 19 0 1 1;
#X connect 20 0 11 0;
#X restore 17 230 pd omni;
#N canvas 879 54 490 584 directional 1;
#X obj 112 182 * 6.28319;
#N canvas 645 210 240 219 e^imθ 0;
#X obj 54 29 loadbang;
#X obj 21 7 inlet;
#X obj 21 171 outlet;
#X obj 54 83 < 0;
#X obj 21 115 spigot;
#X obj 21 137 sin;
#X obj 109 83 > 0;
#X obj 76 115 spigot;
#X obj 76 137 cos;
#X obj 21 83 * \$4;
#X obj 54 54 f \$5;
#X connect 0 0 10 0;
#X connect 1 0 9 0;
#X connect 3 0 4 1;
#X connect 4 0 5 0;
#X connect 5 0 2 0;
#X connect 6 0 7 1;
#X connect 7 0 8 0;
#X connect 8 0 2 0;
#X connect 9 0 4 0;
#X connect 9 0 7 0;
#X connect 10 0 3 0;
#X connect 10 0 6 0;
#X restore 112 230 pd e^imθ;
#X obj 112 140 t f f, f 11;
#X obj 112 293 +, f 11;
#X obj 112 23 inlet;
#X obj 112 272 *;
#X obj 236 208 loadbang;
#X obj 236 230 f 1;
#X obj 112 252 *;
#X obj 40 150 f 1;
#X obj 40 172 /, f 5;
#X obj 67 150 + 1;
#X msg 247 123 const 0;
#X obj 112 69 t b f b, f 23;
#X obj 247 99 spigot 0;
#N canvas 717 127 450 300 loop.until 0;
#X obj 21 11 inlet;
#X obj 21 118 outlet;
#X obj 21 76 until;
#X obj 21 53 t f b, f 7;
#X obj 21 98 f 0, f 7;
#X obj 60 76 f 0;
#X obj 71 98 + 1, f 4;
#X obj 21 33 f 180;
#X connect 0 0 7 0;
#X connect 2 0 4 0;
#X connect 3 0 2 0;
#X connect 3 1 5 0;
#X connect 4 0 6 0;
#X connect 4 0 1 0;
#X connect 5 0 4 1;
#X connect 6 0 4 1;
#X connect 7 0 3 0;
#X restore 112 104 pd loop.until;
#X obj 292 31 loadbang;
#X obj 40 77 loadbang;
#X obj 40 98 t b b;
#X obj 292 53 f \$3;
#X obj 292 77 == \$5;
#X obj 67 128 f \$3;
#X obj 247 145 s \$6-buffer-0;
#X obj 175 252 array get \$6-buffer-0;
#X obj 112 327 array set \$6-buffer-0, f 22;
#X obj 112 160 / -179;
#X obj 112 204 - 1.57079;
#X connect 0 0 26 0;
#X connect 1 0 8 0;
#X connect 2 0 25 0;
#X connect 2 1 23 0;
#X connect 2 1 24 1;
#X connect 3 0 24 0;
#X connect 4 0 13 0;
#X connect 5 0 3 0;
#X connect 6 0 7 0;
#X connect 7 0 23 1;
#X connect 8 0 5 0;
#X connect 9 0 10 0;
#X connect 10 0 8 1;
#X connect 11 0 10 1;
#X connect 12 0 22 0;
#X connect 13 0 15 0;
#X connect 13 1 5 1;
#X connect 13 2 14 0;
#X connect 14 0 12 0;
#X connect 15 0 2 0;
#X connect 16 0 19 0;
#X connect 17 0 18 0;
#X connect 18 0 9 0;
#X connect 18 1 21 0;
#X connect 19 0 20 0;
#X connect 20 0 14 1;
#X connect 21 0 11 0;
#X connect 23 0 3 1;
#X connect 25 0 0 0;
#X connect 26 0 1 0;
#X restore 74 230 pd directional;
#N canvas 677 84 665 431 \$0-t-scope 0;
#X obj 6 8 struct \$0-t-scope float x array bufr \$0-t-scope-value-r
array bufg \$0-t-scope-value-g;
#X obj 8 242 drawcurve -x 0 1 0.81 0 0.5751 0.5751 0 0.81 -0.5751 0.5751
-0.81 0 -0.5751 -0.5751 0 -0.81 0.5751 -0.5751 0.81 0;
#X obj 8 282 drawcurve -x 0 1 0.54 0 0.3834 0.3834 0 0.54 -0.3834 0.3834
-0.54 0 -0.3834 -0.3834 0 -0.54 0.3834 -0.3834 0.54 0;
#X obj 8 322 drawcurve -x 0 1 0.27 0 0.1917 0.1917 0 0.27 -0.1917 0.1917
-0.27 0 -0.1917 -0.1917 0 -0.27 0.1917 -0.1917 0.27 0;
#X obj 7 100 drawpolygon -x 0 1 1 0 0.24 0;
#X obj 7 120 drawpolygon -x 0 1 -1 0 -0.24 0;
#X obj 7 150 drawpolygon -x 0 1 0 1 0 0.24;
#X obj 7 170 drawpolygon -x 0 1 0 -1 0 -0.24;
#X obj 7 53 plot bufr 900 1 0 0 0;
#X obj 7 73 plot bufg 9 1 0 0 0;
#X obj 8 202 drawcurve -x 0 1 1.08 0 0.7668 0.7668 0 1.079 -0.7668
0.7668 -1.079 0 -0.7668 -0.7668 0 -1.08 0.7668 -0.7668 1.08 0;
#X restore 211 8 pd \$0-t-scope;
#X obj 17 294 spigot, f 7;
#X obj 17 316 unpack f f;
#N canvas 65 248 568 128 \$0-t-scope-value-r 0;
#X obj 35 11 struct \$0-t-scope-value-r float x float y;
#X restore 211 28 pd \$0-t-scope-value-r;
#N canvas 65 248 568 128 \$0-t-scope-value-g 0;
#X obj 35 11 struct \$0-t-scope-value-g float x float y;
#X restore 211 48 pd \$0-t-scope-value-g;
#N canvas 893 112 450 300 timer 0;
#X obj 144 20 bang~;
#X obj 77 65 r pd;
#X obj 77 87 route dsp;
#X obj 77 199 metro 100;
#X obj 144 42 spigot 1;
#X obj 171 87 f 0;
#X obj 77 221 outlet;
#X obj 77 179 change;
#X obj 144 64 t b b;
#X obj 144 86 f 1;
#N canvas 802 203 450 300 get.interval 0;
#X obj 20 94 list split 1;
#X obj 54 119 outlet;
#X obj 20 4 inlet;
#X obj 20 26 symbol interval;
#X obj 20 50 text search \$7;
#X obj 20 72 text get \$7;
#X connect 0 1 1 0;
#X connect 2 0 3 0;
#X connect 3 0 4 0;
#X connect 4 0 5 0;
#X connect 5 0 0 0;
#X restore 128 178 pd get.interval;
#X obj 128 129 loadbang;
#X obj 128 151 delay 10;
#X connect 0 0 4 0;
#X connect 1 0 2 0;
#X connect 2 0 7 0;
#X connect 3 0 6 0;
#X connect 4 0 8 0;
#X connect 5 0 4 1;
#X connect 7 0 3 0;
#X connect 8 0 9 0;
#X connect 8 1 5 0;
#X connect 9 0 7 0;
#X connect 10 0 3 1;
#X connect 11 0 12 0;
#X connect 12 0 10 0;
#X restore 56 62 pd timer;
#N canvas 776 98 450 300 amplifier 0;
#X obj 75 23 loadbang;
#X obj 75 45 delay 10;
#N canvas 974 244 450 300 get.gain 0;
#X obj 20 94 list split 1;
#X obj 54 119 outlet;
#X obj 20 4 inlet;
#X obj 20 26 symbol gain;
#X obj 20 50 text search \$7;
#X obj 20 72 text get \$7;
#X connect 0 1 1 0;
#X connect 2 0 3 0;
#X connect 3 0 4 0;
#X connect 4 0 5 0;
#X connect 5 0 0 0;
#X restore 75 68 pd get.gain;
#X obj 75 91 dbtorms;
#X obj 75 113 + 1;
#X obj 75 135 outlet;
#X connect 0 0 1 0;
#X connect 1 0 2 0;
#X connect 2 0 3 0;
#X connect 3 0 4 0;
#X connect 4 0 5 0;
#X restore 38 39 pd amplifier;
#N canvas 765 192 450 434 clear_and_add_t 0;
#X obj 145 290 pointer;
#X obj 34 314 append \$0-t-scope x;
#X msg 274 267 \; pd-\$1 clear;
#X msg 145 267 traverse pd-\$1 \, bang;
#X obj 34 219 f 0;
#X obj 34 197 t b b, f 19;
#X obj 145 243 t s s, f 22;
#X obj 34 342 t b b p, f 45;
#X obj 34 364 f 1;
#X obj 167 383 setsize \$0-t-scope bufr;
#X obj 167 404 setsize \$0-t-scope bufg;
#X obj 167 363 f 180;
#X obj 34 386 outlet;
#X obj 301 444 outlet;
#X obj 34 173 spigot 0, f 10;
#X obj 86 89 == 0;
#X obj 34 4 loadbang;
#X obj 34 26 delay 10;
#X obj 139 112 f 1;
#X obj 34 47 t b b b, f 18;
#X obj 86 131 +;
#X obj 86 153 == 2;
#X obj 145 221 symbol \$6;
#X obj 139 90 sel \$6;
#X obj 139 68 symbol \$6;
#X obj 86 67 f \$4;
#X connect 0 0 1 1;
#X connect 1 0 7 0;
#X connect 3 0 0 0;
#X connect 4 0 1 0;
#X connect 5 0 4 0;
#X connect 5 1 22 0;
#X connect 6 0 3 0;
#X connect 6 1 2 0;
#X connect 7 0 8 0;
#X connect 7 1 11 0;
#X connect 7 2 9 1;
#X connect 7 2 10 1;
#X connect 7 2 13 0;
#X connect 8 0 12 0;
#X connect 11 0 9 0;
#X connect 11 0 10 0;
#X connect 14 0 5 0;
#X connect 15 0 20 0;
#X connect 16 0 17 0;
#X connect 17 0 19 0;
#X connect 18 0 20 1;
#X connect 19 0 14 0;
#X connect 19 1 25 0;
#X connect 19 2 24 0;
#X connect 20 0 21 0;
#X connect 21 0 14 1;
#X connect 22 0 6 0;
#X connect 23 0 18 0;
#X connect 24 0 23 0;
#X connect 25 0 15 0;
#X restore 56 259 pd clear_and_add_t;
#N canvas 918 77 168 206 split_y 0;
#X obj 13 130 spigot;
#X obj 64 130 spigot;
#X obj 46 39 loadbang;
#X obj 46 103 == 0;
#X obj 97 103 != 0;
#X obj 13 13 inlet;
#X obj 13 152 outlet;
#X obj 64 152 outlet;
#X obj 46 61 f \$4;
#X connect 0 0 6 0;
#X connect 1 0 7 0;
#X connect 2 0 8 0;
#X connect 3 0 0 1;
#X connect 4 0 1 1;
#X connect 5 0 0 0;
#X connect 5 0 1 0;
#X connect 8 0 3 0;
#X connect 8 0 4 0;
#X restore 17 204 pd split_y;
#N canvas 0 22 450 300 set_positive 0;
#X obj 28 122 pack f f;
#X obj 205 85 element \$0-t-scope bufr;
#X obj 28 99 max 0;
#X obj 28 168 set \$0-t-scope-value-r x y, f 30;
#N canvas 0 23 189 224 poltocar 0;
#X obj 26 11 inlet;
#X obj 26 172 outlet;
#X obj 26 135 pack f f, f 14;
#X obj 26 33 unpack f f, f 17;
#X obj 107 103 *;
#X obj 26 55 t f f, f 14;
#X obj 125 81 sin;
#X obj 26 103 *;
#X obj 44 81 cos;
#X connect 0 0 3 0;
#X connect 2 0 1 0;
#X connect 3 0 5 0;
#X connect 3 1 6 0;
#X connect 3 1 8 0;
#X connect 4 0 2 1;
#X connect 5 0 7 0;
#X connect 5 1 4 0;
#X connect 6 0 4 1;
#X connect 7 0 2 0;
#X connect 8 0 7 1;
#X restore 28 145 pd poltocar;
#X obj 28 48 inlet;
#X obj 73 48 inlet;
#X obj 205 48 inlet;
#X obj 340 48 inlet;
#X connect 0 0 4 0;
#X connect 1 0 3 2;
#X connect 2 0 0 0;
#X connect 4 0 3 0;
#X connect 5 0 2 0;
#X connect 6 0 0 1;
#X connect 7 0 1 0;
#X connect 8 0 1 1;
#X restore 17 394 pd set_positive;
#X obj 46 344 / 179;
#X obj 46 366 * 6.28319;
#N canvas 0 22 450 300 set_negative 0;
#X obj 28 142 pack f f;
#N canvas 0 23 189 224 poltocar 0;
#X obj 26 11 inlet;
#X obj 26 172 outlet;
#X obj 26 135 pack f f, f 14;
#X obj 26 33 unpack f f, f 17;
#X obj 107 103 *;
#X obj 26 55 t f f, f 14;
#X obj 125 81 sin;
#X obj 26 103 *;
#X obj 44 81 cos;
#X connect 0 0 3 0;
#X connect 2 0 1 0;
#X connect 3 0 5 0;
#X connect 3 1 6 0;
#X connect 3 1 8 0;
#X connect 4 0 2 1;
#X connect 5 0 7 0;
#X connect 5 1 4 0;
#X connect 6 0 4 1;
#X connect 7 0 2 0;
#X connect 8 0 7 1;
#X restore 28 165 pd poltocar;
#X obj 28 48 inlet;
#X obj 73 48 inlet;
#X obj 205 48 inlet;
#X obj 340 48 inlet, f 45;
#X obj 28 188 set \$0-t-scope-value-g x y, f 30;
#X obj 205 85 element \$0-t-scope bufg;
#X obj 28 99 min 0;
#X obj 28 121 * -1;
#X connect 0 0 1 0;
#X connect 1 0 6 0;
#X connect 2 0 8 0;
#X connect 3 0 0 1;
#X connect 4 0 7 0;
#X connect 5 0 7 1;
#X connect 7 0 6 2;
#X connect 8 0 9 0;
#X connect 9 0 0 0;
#X restore 17 424 pd set_negative;
#X obj 17 181 spigot 0;
#X obj 62 115 loadbang;
#X obj 62 158 != 0;
#X obj 17 16 hoa.in~;
#X obj 62 136 f \$3;
#X obj 211 68 array define \$6-buffer-\$4 180;
#X connect 0 0 1 0;
#X connect 1 0 17 0;
#X connect 2 0 5 0;
#X connect 5 0 6 0;
#X connect 6 0 13 0;
#X connect 6 0 16 0;
#X connect 6 1 13 2;
#X connect 6 1 14 0;
#X connect 6 1 16 2;
#X connect 9 0 1 0;
#X connect 10 0 0 1;
#X connect 11 0 5 1;
#X connect 11 1 13 3;
#X connect 11 1 16 3;
#X connect 12 0 2 0;
#X connect 12 1 3 0;
#X connect 14 0 15 0;
#X connect 15 0 13 1;
#X connect 15 0 16 1;
#X connect 17 0 12 0;
#X connect 18 0 21 0;
#X connect 19 0 17 1;
#X connect 20 0 0 0;
#X connect 21 0 19 0;
