#N canvas 794 108 410 637 10;
#X obj 24 141 hoa.3d.encoder~ 4, f 48;
#X obj 25 211 hoa.3d.scope~ @size 303 303 @fontname "Helvetica" @fontweight
"normal" @fontslant "roman" @fontsize 11 @receive "(null)" @send "(null)"
@order 4 @view 0 0 0 @gain 1 @interval 100 @bgcolor 0.76 0.76 0.76
1 @bdcolor 0.7 0.7 0.7 1 @phcolor 1 0 0 1 @nhcolor 0 0 1 1;
#X obj 108 87 c.dsp~ @size 30 30 @fontname "Helvetica" @fontweight
"normal" @fontslant "roman" @fontsize 11 @receive "(null)" @send "(null)"
@bgcolor 0.75 0.75 0.75 1 @bdcolor 0.5 0.5 0.5 1 @logocolor 0 0.6 0
0.8;
#X obj 321 162 c.number @size 59 14 @fontname "Helvetica" @fontweight
"normal" @fontslant "roman" @fontsize 11 @receive "(null)" @send "(null)"
@presetname "(null)" @min 0 @max 1 @minmax 0 1 @decimal 6 @bgcolor
0.75 0.75 0.75 1 @bdcolor 0.5 0.5 0.5 1 @textcolor 0 0 0 1;
#X obj 25 521 hoa.3d.decoder~ 4 @channels 16, f 50;
#X obj 25 548 hoa.dac~ 1:16, f 50;
#X obj 24 183 hoa.3d.process~ 4 hoa.fx.dephaser~ harmonics, f 50;
#X obj 24 118 osc~ 300;
#X obj 166 118 hoa.pi~ 2;
#X obj 216 96 phasor~ 0.5;
#X obj 216 77 c.number @size 53 14 @fontname "Helvetica" @fontweight
"normal" @fontslant "roman" @fontsize 11 @receive "(null)" @send "(null)"
@presetname "(null)" @min "(null)" @max "(null)" @minmax "(null)" "(null)"
@decimal 6 @bgcolor 0.75 0.75 0.75 1 @bdcolor 0.5 0.5 0.5 1 @textcolor
0 0 0 1;
#X obj 307 75 phasor~ 0.1;
#X obj 307 56 c.number @size 53 14 @fontname "Helvetica" @fontweight
"normal" @fontslant "roman" @fontsize 11 @receive "(null)" @send "(null)"
@presetname "(null)" @min "(null)" @max "(null)" @minmax "(null)" "(null)"
@decimal 6 @bgcolor 0.75 0.75 0.75 1 @bdcolor 0.5 0.5 0.5 1 @textcolor
0 0 0 1;
#X obj 308 119 hoa.pi~ 1;
#N canvas 65 122 540 300 triangle~ 0;
#X obj 229 118 outlet~;
#X obj 229 54 expr~ if($v1 > 0.5 \, 1-$v1 \, $v1);
#X obj 229 76 *~ 4;
#X obj 229 97 -~ 1;
#X obj 229 11 inlet~;
#X obj 229 32 phasor~ 0.5;
#X connect 1 0 2 0;
#X connect 2 0 3 0;
#X connect 3 0 0 0;
#X connect 4 0 5 0;
#X connect 5 0 1 0;
#X restore 308 97 pd triangle~;
#X obj 13 19 c.patcherinfos;
#X obj 18 2 loadbang;
#X obj 4 2 hoa.help.header;
#X obj 119 582 hoa.help.also;
#X text 3 46 hoa.fx.dephaser~ is a fft dephaser.;
#X connect 0 0 6 0;
#X connect 0 1 6 1;
#X connect 0 2 6 2;
#X connect 0 3 6 3;
#X connect 0 4 6 4;
#X connect 0 5 6 5;
#X connect 0 6 6 6;
#X connect 0 7 6 7;
#X connect 0 8 6 8;
#X connect 0 9 6 9;
#X connect 0 10 6 10;
#X connect 0 11 6 11;
#X connect 0 12 6 12;
#X connect 0 13 6 13;
#X connect 0 14 6 14;
#X connect 0 15 6 15;
#X connect 0 16 6 16;
#X connect 0 17 6 17;
#X connect 0 18 6 18;
#X connect 0 19 6 19;
#X connect 0 20 6 20;
#X connect 0 21 6 21;
#X connect 0 22 6 22;
#X connect 0 23 6 23;
#X connect 0 24 6 24;
#X connect 3 0 6 25;
#X connect 4 0 5 0;
#X connect 4 1 5 1;
#X connect 4 2 5 2;
#X connect 4 3 5 3;
#X connect 4 4 5 4;
#X connect 4 5 5 5;
#X connect 4 6 5 6;
#X connect 4 7 5 7;
#X connect 4 8 5 8;
#X connect 4 9 5 9;
#X connect 4 10 5 10;
#X connect 4 11 5 11;
#X connect 4 12 5 12;
#X connect 4 13 5 13;
#X connect 4 14 5 14;
#X connect 4 15 5 15;
#X connect 6 0 1 0;
#X connect 6 0 4 0;
#X connect 6 1 1 1;
#X connect 6 1 4 1;
#X connect 6 2 1 2;
#X connect 6 2 4 2;
#X connect 6 3 1 3;
#X connect 6 3 4 3;
#X connect 6 4 1 4;
#X connect 6 4 4 4;
#X connect 6 5 1 5;
#X connect 6 5 4 5;
#X connect 6 6 1 6;
#X connect 6 6 4 6;
#X connect 6 7 1 7;
#X connect 6 7 4 7;
#X connect 6 8 1 8;
#X connect 6 8 4 8;
#X connect 6 9 1 9;
#X connect 6 9 4 9;
#X connect 6 10 1 10;
#X connect 6 10 4 10;
#X connect 6 11 1 11;
#X connect 6 11 4 11;
#X connect 6 12 1 12;
#X connect 6 12 4 12;
#X connect 6 13 1 13;
#X connect 6 13 4 13;
#X connect 6 14 1 14;
#X connect 6 14 4 14;
#X connect 6 15 1 15;
#X connect 6 15 4 15;
#X connect 6 16 1 16;
#X connect 6 16 4 16;
#X connect 6 17 1 17;
#X connect 6 17 4 17;
#X connect 6 18 1 18;
#X connect 6 18 4 18;
#X connect 6 19 1 19;
#X connect 6 19 4 19;
#X connect 6 20 1 20;
#X connect 6 20 4 20;
#X connect 6 21 1 21;
#X connect 6 21 4 21;
#X connect 6 22 1 22;
#X connect 6 22 4 22;
#X connect 6 23 1 23;
#X connect 6 23 4 23;
#X connect 6 24 1 24;
#X connect 6 24 4 24;
#X connect 7 0 0 0;
#X connect 8 0 0 1;
#X connect 9 0 8 1;
#X connect 10 0 9 0;
#X connect 11 0 14 0;
#X connect 12 0 11 0;
#X connect 13 0 0 2;
#X connect 14 0 13 0;
#X connect 15 0 17 0;
#X connect 16 0 15 0;
