#N canvas 383 103 812 640 10;
#X obj 453 226 hoa.in~ extra 1;
#X obj 271 569 hoa.out~;
#X obj 441 35 hoa.thisprocess~;
#X obj 441 59 unpack, f 13;
#X obj 261 107 s~ h\$0;
#X obj 453 368 cos~;
#X obj 453 336 *~, f 11;
#X obj 336 114 < 0;
#X obj 376 232 f;
#X obj 336 232 f;
#X obj 336 281 makefilename h%d;
#X obj 336 135 sel 1, f 6;
#X obj 376 114 > 0;
#X obj 376 135 sel 1, f 6;
#X obj 271 399 *~;
#X obj 336 400 *~;
#X obj 271 451 +~;
#X obj 321 451 -~;
#X obj 271 534 *~;
#X obj 321 534 *~;
#X obj 261 62 hoa.in~;
#X obj 271 358 r~ h\$0;
#X obj 336 255 + 1;
#X obj 376 255 - 1;
#X obj 336 358 r~ dummy\$0;
#X obj 179 62 s~ dummy\$0;
#X obj 441 116 ==;
#X obj 441 135 sel 1;
#X obj 336 90 f;
#X obj 441 159 s hrloaded;
#X obj 336 64 r hrloaded;
#X obj 361 438 hoa.thisprocess~;
#X obj 361 462 unpack;
#X obj 286 506 >= 0;
#X obj 336 506 < 0;
#X obj 468 280 hoa.pi 2;
#X obj 453 307 /~;
#X obj 468 252 loadbang;
#X obj 361 412 loadbang;
#X obj 441 10 loadbang;
#X obj 351 193 f \$0;
#X obj 351 165 loadbang;
#X obj 336 330 list trim;
#X obj 336 308 list prepend set;
#X obj 537 420 cos~;
#X obj 537 400 +~;
#X obj 552 325 loadbang;
#X obj 552 347 f 0.25;
#X connect 0 0 36 0;
#X connect 2 0 3 0;
#X connect 3 0 26 0;
#X connect 3 1 26 1;
#X connect 3 1 28 1;
#X connect 3 1 6 1;
#X connect 5 0 14 1;
#X connect 6 0 5 0;
#X connect 6 0 45 0;
#X connect 7 0 11 0;
#X connect 8 0 23 0;
#X connect 9 0 22 0;
#X connect 10 0 43 0;
#X connect 11 0 9 0;
#X connect 12 0 13 0;
#X connect 13 0 8 0;
#X connect 14 0 16 0;
#X connect 14 0 17 0;
#X connect 15 0 16 1;
#X connect 15 0 17 1;
#X connect 16 0 18 0;
#X connect 17 0 19 0;
#X connect 18 0 1 0;
#X connect 19 0 1 0;
#X connect 20 0 4 0;
#X connect 21 0 14 0;
#X connect 22 0 10 0;
#X connect 23 0 10 0;
#X connect 24 0 15 0;
#X connect 26 0 27 0;
#X connect 27 0 29 0;
#X connect 28 0 7 0;
#X connect 28 0 12 0;
#X connect 30 0 28 0;
#X connect 31 0 32 0;
#X connect 32 1 33 0;
#X connect 32 1 34 0;
#X connect 33 0 18 1;
#X connect 34 0 19 1;
#X connect 35 0 36 1;
#X connect 36 0 6 0;
#X connect 37 0 35 0;
#X connect 38 0 31 0;
#X connect 39 0 2 0;
#X connect 40 0 8 1;
#X connect 40 0 9 1;
#X connect 41 0 40 0;
#X connect 42 0 24 0;
#X connect 43 0 42 0;
#X connect 44 0 15 1;
#X connect 45 0 44 0;
#X connect 46 0 47 0;
#X connect 47 0 45 1;
