#N canvas 316 502 461 294 10;
#X obj 158 25 hoa.in~;
#X obj 159 216 hoa.out~;
#N canvas 777 132 521 551 hoa.fft.dephaser~ 1;
#X obj 78 381 +~;
#X obj 365 283 * 1, f 7;
#X obj 377 194 /;
#X obj 377 149 t b f;
#X obj 377 259 t b f;
#X obj 110 166 / 1, f 5;
#X obj 110 141 t b f;
#X obj 95 190 * 1;
#X msg 95 214 \$1 20;
#X obj 95 237 line~;
#X obj 94 300 *~;
#X obj 109 279 hoa.pi 2;
#X msg 328 260 \$1 20;
#X obj 328 283 line~;
#X obj 328 324 *~;
#X obj 344 303 *~ 1;
#X obj 94 340 +~;
#N canvas 659 208 450 339 rand~ 0;
#X obj 140 20 inlet;
#X obj 140 269 outlet~;
#X obj 140 84 /;
#X obj 140 42 t b f;
#X obj 140 105 * 1000;
#X obj 140 148 metro;
#X obj 140 188 - 10000;
#X obj 140 168 random 20001;
#X obj 140 208 / 10000;
#X obj 140 249 line~;
#X obj 140 229 pack f f;
#X obj 140 126 t b f f, f 8;
#X obj 140 63 f 1;
#X connect 0 0 3 0;
#X connect 2 0 4 0;
#X connect 3 0 12 0;
#X connect 3 1 2 1;
#X connect 4 0 11 0;
#X connect 5 0 7 0;
#X connect 6 0 8 0;
#X connect 7 0 6 0;
#X connect 8 0 10 0;
#X connect 9 0 1 0;
#X connect 10 0 9 0;
#X connect 11 0 5 0;
#X connect 11 1 5 1;
#X connect 11 2 10 1;
#X connect 12 0 2 0;
#X restore 344 118 pd rand~;
#X obj 9 59 inlet~;
#X obj 8 507 outlet~;
#X obj 95 59 inlet;
#X obj 227 59 inlet;
#X obj 164 59 inlet;
#X obj 8 486 /~ 256;
#X obj 344 9 c.loadmess 256;
#X obj 344 96 /;
#X obj 344 54 t b f;
#X obj 365 238 hoa.pi 1;
#X obj 365 217 c.loadmess 1;
#X obj 109 258 c.loadmess 2;
#X obj 8 465 rifft~;
#N canvas 351 388 450 300 sampstoms 0;
#X obj 165 13 inlet;
#X obj 192 83 samplerate~;
#X obj 165 60 * 1000;
#X obj 165 105 /, f 5;
#X obj 165 37 t f b;
#X obj 165 127 outlet;
#X connect 0 0 4 0;
#X connect 1 0 3 1;
#X connect 2 0 3 0;
#X connect 3 0 5 0;
#X connect 4 0 2 0;
#X connect 4 1 1 0;
#X restore 344 31 pd sampstoms;
#X obj 344 75 f 1000;
#X obj 377 171 f 1;
#X obj 9 81 rfft~;
#X obj 253 457 block~ 256 2;
#N canvas 65 306 450 300 poltocar~ 0;
#X obj 122 43 inlet~;
#X obj 122 182 outlet~;
#X obj 227 182 outlet~;
#X obj 218 43 inlet~;
#X obj 138 140 cos~;
#X obj 122 161 *~;
#X obj 227 161 *~;
#X obj 218 110 /~;
#X obj 233 69 c.loadmess;
#X obj 233 90 hoa.pi 2;
#N canvas 121 324 450 300 sin~ 0;
#X obj 183 41 inlet~;
#X obj 183 128 cos~;
#X obj 183 175 outlet~;
#X obj 183 108 +~;
#X obj 198 67 c.loadmess -0.25;
#X connect 0 0 3 0;
#X connect 1 0 2 0;
#X connect 3 0 1 0;
#X connect 4 0 3 1;
#X restore 242 134 pd sin~;
#X connect 0 0 5 0;
#X connect 0 0 6 0;
#X connect 3 0 7 0;
#X connect 3 0 10 0;
#X connect 4 0 5 1;
#X connect 5 0 1 0;
#X connect 6 0 2 0;
#X connect 7 0 4 0;
#X connect 8 0 9 0;
#X connect 9 0 7 1;
#X connect 10 0 6 1;
#X restore 8 425 pd poltocar~;
#N canvas 878 227 450 349 cartopol~ 0;
#X obj 112 63 inlet~;
#X obj 125 192 outlet~;
#X obj 249 192 outlet~;
#X obj 167 63 inlet~;
#X obj 125 171 sqrt~;
#X obj 160 123 *~;
#X obj 105 122 *~;
#X obj 125 150 +~;
#N canvas 190 22 883 709 atan2~ 0;
#X obj 397 22 inlet~;
#X obj 265 21 inlet~;
#X obj 333 630 outlet~;
#X text 404 2 x;
#X text 269 2 y;
#X obj 454 186 +~;
#X obj 315 243 /~;
#X obj 453 244 /~;
#X obj 469 162 +~ 1e-10;
#X obj 469 140 abs~;
#X obj 315 293 *~;
#X obj 453 303 *~;
#X obj 401 539 *~ -1;
#X obj 251 541 *~;
#X obj 264 477 +~ 1;
#X obj 402 564 *~;
#X text 344 292 >= 0;
#X text 481 304 < 0;
#X obj 468 221 *~ -1;
#X obj 315 185 -~;
#X text 389 650 http://www.dspguru.com/comp.dsp/tricks/alg/fxdatan2.htm
;
#N canvas 0 22 450 300 (subpatch) 0;
#X array \$0-binary-up2 2 float 2;
#X coords 0 1 2 -1 100 50 1;
#X restore 533 31 graph;
#N canvas 0 22 450 300 (subpatch) 0;
#X array \$0-binary-down2 2 float 2;
#X coords 0 1 2 -1 100 50 1;
#X restore 647 31 graph;
#X obj 330 269 tabread~ \$0-binary-up2;
#X obj 509 269 tabread~ \$0-binary-down2;
#X obj 265 507 tabread~ \$0-binary-up2;
#X obj 415 505 tabread~ \$0-binary-down2;
#X text 388 631 better atan2 approximation \, based on:;
#X text 344 244 r;
#X text 482 246 r;
#X text 126 194 pi/4;
#X obj 134 235 * 3;
#X obj 88 239 sig~;
#X obj 399 418 *~;
#X obj 134 257 sig~;
#X obj 75 82 \$0;
#X obj 109 40 bng 15 250 50 0 empty empty empty 17 7 0 10 -262144 -1
-1;
#X obj 147 40 loadbang;
#X obj 210 83 \$0;
#X msg 206 103 \; \$1-binary-down2 0 1 0;
#X msg 72 103 \; \$1-binary-up2 0 0 1;
#X msg 178 213 0.1963;
#X obj 176 234 sig~;
#X obj 379 353 *~;
#X obj 379 375 *~;
#X obj 228 234 sig~;
#X msg 230 213 0.9817;
#X obj 364 418 *~;
#X obj 414 326 +~ 0;
#X text 445 326 r;
#X obj 364 445 -~;
#X obj 365 470 +~;
#X obj 421 447 *~;
#X obj 480 446 *~;
#X text 450 446 >= 0;
#X text 508 447 < 0;
#X obj 508 244 +~ 1;
#X msg 117 213 0.785398;
#X text 384 392 r^3;
#X connect 0 0 19 0;
#X connect 0 0 5 0;
#X connect 0 0 56 0;
#X connect 1 0 14 0;
#X connect 1 0 9 0;
#X connect 5 0 6 1;
#X connect 5 0 7 0;
#X connect 6 0 10 0;
#X connect 7 0 11 0;
#X connect 8 0 5 1;
#X connect 8 0 19 1;
#X connect 9 0 8 0;
#X connect 10 0 48 0;
#X connect 11 0 48 0;
#X connect 12 0 15 0;
#X connect 13 0 2 0;
#X connect 14 0 25 0;
#X connect 14 0 26 0;
#X connect 15 0 2 0;
#X connect 18 0 7 1;
#X connect 19 0 6 0;
#X connect 19 0 18 0;
#X connect 23 0 10 1;
#X connect 23 0 52 1;
#X connect 24 0 11 1;
#X connect 24 0 53 1;
#X connect 25 0 13 1;
#X connect 26 0 15 1;
#X connect 31 0 34 0;
#X connect 32 0 52 0;
#X connect 33 0 50 1;
#X connect 34 0 53 0;
#X connect 35 0 40 0;
#X connect 36 0 35 0;
#X connect 36 0 38 0;
#X connect 37 0 35 0;
#X connect 37 0 38 0;
#X connect 37 0 41 0;
#X connect 37 0 46 0;
#X connect 37 0 57 0;
#X connect 38 0 39 0;
#X connect 41 0 42 0;
#X connect 42 0 47 0;
#X connect 43 0 44 0;
#X connect 44 0 47 1;
#X connect 45 0 33 0;
#X connect 46 0 45 0;
#X connect 47 0 50 0;
#X connect 48 0 43 0;
#X connect 48 0 43 1;
#X connect 48 0 44 1;
#X connect 48 0 33 1;
#X connect 50 0 51 0;
#X connect 51 0 13 0;
#X connect 51 0 12 0;
#X connect 52 0 51 1;
#X connect 53 0 51 1;
#X connect 56 0 24 0;
#X connect 56 0 23 0;
#X connect 57 0 31 0;
#X connect 57 0 32 0;
#X restore 249 126 pd atan2~;
#X connect 0 0 6 0;
#X connect 0 0 6 1;
#X connect 0 0 8 0;
#X connect 3 0 5 0;
#X connect 3 0 5 1;
#X connect 3 0 8 1;
#X connect 4 0 1 0;
#X connect 5 0 7 1;
#X connect 6 0 7 0;
#X connect 7 0 4 0;
#X connect 8 0 2 0;
#X restore 9 114 pd cartopol~;
#N canvas 65 97 450 300 %~ 0;
#X obj 31 25 inlet~;
#X obj 352 25 inlet;
#X obj 31 91 outlet~;
#X obj 31 58 expr~ if($v1<=$f2 && $v1 >= -$f2 \, $v1 \, fmod($v1 \,
$f2));
#X connect 0 0 3 0;
#X connect 1 0 3 1;
#X connect 3 0 2 0;
#X restore 78 403 pd %~;
#X obj 105 381 hoa.pi 1;
#X obj 105 360 c.loadmess 1;
#X connect 0 0 38 0;
#X connect 1 0 15 1;
#X connect 2 0 4 0;
#X connect 3 0 33 0;
#X connect 3 1 2 1;
#X connect 4 0 1 0;
#X connect 4 1 1 1;
#X connect 5 0 7 1;
#X connect 6 0 5 0;
#X connect 6 1 5 1;
#X connect 7 0 8 0;
#X connect 8 0 9 0;
#X connect 9 0 10 0;
#X connect 10 0 16 0;
#X connect 11 0 10 1;
#X connect 12 0 13 0;
#X connect 13 0 14 0;
#X connect 14 0 16 1;
#X connect 15 0 14 1;
#X connect 16 0 0 1;
#X connect 17 0 15 0;
#X connect 18 0 34 0;
#X connect 20 0 12 0;
#X connect 20 0 7 0;
#X connect 21 0 5 0;
#X connect 22 0 3 0;
#X connect 22 0 6 0;
#X connect 23 0 19 0;
#X connect 24 0 31 0;
#X connect 25 0 17 0;
#X connect 26 0 32 0;
#X connect 26 1 25 1;
#X connect 27 0 1 0;
#X connect 28 0 27 0;
#X connect 29 0 11 0;
#X connect 30 0 23 0;
#X connect 31 0 26 0;
#X connect 32 0 25 0;
#X connect 33 0 2 0;
#X connect 34 0 37 0;
#X connect 34 1 37 1;
#X connect 36 0 30 0;
#X connect 36 1 30 1;
#X connect 37 0 36 0;
#X connect 37 1 0 0;
#X connect 38 0 36 1;
#X connect 39 0 38 1;
#X connect 40 0 39 0;
#X restore 159 180 pd hoa.fft.dephaser~;
#X obj 198 47 hoa.in extra 1;
#X obj 198 68 clip 0 1;
#X obj 237 92 c.loadmess;
#X obj 268 136 hoa.mode.sel;
#X obj 237 158 hoa.args.map;
#X obj 237 113 hoa.thisprocess~;
#X connect 0 0 2 0;
#X connect 2 0 1 0;
#X connect 3 0 4 0;
#X connect 4 0 2 1;
#X connect 5 0 8 0;
#X connect 6 0 7 1;
#X connect 7 0 2 2;
#X connect 7 1 2 3;
#X connect 8 0 7 0;
#X connect 8 1 6 0;
